{
DisplayStrings = (
z/dotaccent/zdotaccent
);
classes = (
{
automatic = 1;
code = "A Aacute Acircumflex Adieresis Agrave Aring Atilde B C Ccedilla D Eth E Eacute Ecircumflex Edieresis Egrave F G H I IJ Iacute Icircumflex Idieresis Igrave J K L Ldot M N Ntilde O Oacute Ocircumflex Odieresis Ograve Oslash Otilde P Q R S T U Uacute Ucircumflex Udieresis Ugrave V W Wacute Wcircumflex Wdieresis Wgrave X Y Yacute Ycircumflex Ydieresis Ygrave Z L.001";
name = Uppercase;
}
);
copyright = "Copyright \U00A9 2014 by Thomas Maier. All rights reserved.";
date = "2014-04-07 16:43:23 +0000";
designer = "Thomas Maier";
designerURL = "http://github.com/DrTypo";
familyName = "Glyphs Sapperlot";
featurePrefixes = (
{
automatic = 1;
code = "languagesystem DFLT dflt;\012languagesystem latn dflt;\012languagesystem latn CAT;\012";
name = Languagesystems;
}
);
features = (
{
automatic = 1;
code = "feature sups;\012feature ordn;\012feature fwid;\012feature locl;\012";
name = aalt;
},
{
automatic = 1;
code = "script latn;\012language CAT;\012sub  l' periodcentered' l by ldot;\012sub  L' periodcentered' L by Ldot;\012";
name = locl;
},
{
automatic = 1;
code = "sub a by a.sups;\012sub b by b.sups;\012sub d by d.sups;\012sub e by e.sups;\012sub g by g.sups;\012sub h by h.sups;\012sub i by i.sups;\012sub l by l.sups;\012sub m by m.sups;\012sub n by n.sups;\012sub o by o.sups;\012sub p by p.sups;\012sub r by r.sups;\012sub s by s.sups;\012sub t by t.sups;\012sub u by u.sups;\012";
name = sups;
},
{
automatic = 1;
code = "sub [zero one two three four five six seven eight nine] [A a]' by ordfeminine;\012sub [zero one two three four five six seven eight nine] [O o]' by ordmasculine;\012";
name = ordn;
},
{
automatic = 1;
code = "pos @Uppercase <5 0 10 0>;\012";
name = cpsp;
},
{
automatic = 1;
code = "sub plus by plus.full;\012";
name = fwid;
}
);
fontMaster = (
{
ascender = 800;
capHeight = 700;
custom = Front;
customValue = 1;
customParameters = (
{
name = "Master Color";

glyphs = (
{
glyphname = A;
lastChange = "2014-09-19 15:51:55 +0100";
layers = (
{
anchors = (
{
name = ogonek;
position = "{423, -1}";
},
{
name = top;
position = "{279, 700}";
}
);
layerId = "8706937B-409E-4048-AB1C-4F6C90F3053E";
name = Front;
paths = (
{
closed = 1;
nodes = (
"177 710 OFFCURVE",
"110 627 OFFCURVE",
"110 538 CURVE",
"110 437 LINE",
"110 107 LINE",
"44 107 LINE",
"44 0 LINE",
"217 0 LINE",
"217 266 LINE",
"345 266 LINE",
"345 0 LINE",
"513 0 LINE",
"513 107 LINE",
"453 107 LINE",
"453 558 LINE SMOOTH",
"453 589 OFFCURVE",
"440 618 OFFCURVE",
"419 643 CURVE SMOOTH",
"384 683 OFFCURVE",
"328 710 OFFCURVE",
"279 710 CURVE SMOOTH"
);
},
{
closed = 1;
nodes = (
"321 604 OFFCURVE",
"345 575 OFFCURVE",
"345 541 CURVE",
"345 373 LINE",
"213 373 LINE",
"213 542 LINE",
"213 575 OFFCURVE",
"240 604 OFFCURVE",
"282 604 CURVE SMOOTH"
);
}
);
width = 573;
},
{
anchors = (
{
name = ogonek;
position = "{423, -1}";
},
{
name = top;
position = "{279, 700}";
}
);
layerId = "C85A4985-4A4B-40F2-9F5D-E307D783C1A5";
name = InsideLight;
paths = (
{
closed = 1;
nodes = (
"440 618 OFFCURVE",
"453 589 OFFCURVE",
"453 558 CURVE SMOOTH",
"453 107 LINE",
"513 107 LINE",
"513 0 LINE",
"598 -70 LINE",
"598 35 LINE",
"539 89 LINE",
"538 433 LINE SMOOTH",
"538 470 OFFCURVE",
"529 503 OFFCURVE",
"511 534 CURVE SMOOTH",
"484 581 OFFCURVE",
"463 604 OFFCURVE",
"419 643 CURVE"
);
},
{
closed = 1;
nodes = (
"217 0 LINE",
"285 -50 LINE",
"285 113 LINE",
"217 266 LINE"
);
},
{
closed = 1;
nodes = (
"213 373 LINE",
"285 373 LINE",
"285 408 LINE",
"213 542 LINE"
);
}
);
width = 573;
},
{
anchors = (
{
name = ogonek;
position = "{423, -1}";
},
{
name = top;
position = "{279, 700}";
}
);
layerId = "2AF69027-8699-4DA7-9B20-F07C10F82EEB";
name = InsideShadow;
paths = (
{
closed = 1;
nodes = (
"217 266 LINE",
"285 113 LINE",
"285 -50 LINE",
"217 0 LINE",
"44 0 LINE",
"143 -70 LINE",
"313 -70 LINE",
"313 176 LINE",
"345 176 LINE",
"345 266 LINE"
);
},
{
closed = 1;
nodes = (
"345 0 LINE",
"432 -70 LINE",
"598 -70 LINE",
"513 0 LINE"
);
},
{
closed = 1;
nodes = (
"240 604 OFFCURVE",
"213 575 OFFCURVE",
"213 542 CURVE",
"285 408 LINE",
"285 373 LINE",
"313 373 LINE",
"313 437 LINE SMOOTH",
"313 455 OFFCURVE",
"325 475 OFFCURVE",
"345 481 CURVE",
"345 541 LINE SMOOTH",
"345 575 OFFCURVE",
"321 604 OFFCURVE",
"282 604 CURVE SMOOTH"
);
}
);
width = 573;
},
{
anchors = (
{
name = ogonek;
position = "{423, -1}";
},
{
name = top;
position = "{279, 700}";
}
);
layerId = "251EB316-0412-4A3C-A569-0EEB43C6D9CE";
name = Shadow;
paths = (
{
closed = 1;
nodes = (
"313 176 LINE",
"313 -70 LINE",
"143 -70 LINE",
"57 -9 LINE",
"57 -39 LINE",
"5 -100 LINE",
"5 -216 LINE",
"159 -216 LINE",
"288 -93 LINE",
"288 -216 LINE",
"449 -216 LINE",
"598 -70 LINE",
"432 -70 LINE",
"345 0 LINE",
"345 176 LINE"
);
},
{
closed = 1;
nodes = (
"89 417 OFFCURVE",
"56 364 OFFCURVE",
"56 320 CURVE SMOOTH",
"56 107 LINE",
"110 107 LINE",
"110 437 LINE"
);
},
{
closed = 1;
nodes = (
"325 475 OFFCURVE",
"313 455 OFFCURVE",
"313 437 CURVE SMOOTH",
"313 373 LINE",
"345 373 LINE",
"345 481 LINE"
);
}
);
width = 573;
}
);
unicode = 0041;
},
{
glyphname = B;
lastChange = "2014-09-19 15:51:55 +0100";
layers = (
{
anchors = (
{
name = ogonek;
position = "{513, -1}";
},
{
name = top;
position = "{279, 700}";
}
);
layerId = "8706937B-409E-4048-AB1C-4F6C90F3053E";
name = Front;
paths = (
{
closed = 1;
nodes = (
"79 700 LINE",
"79 598 LINE",
"130 598 LINE",
"130 109 LINE",
"45 109 LINE",
"45 0 LINE",
"300 0 LINE SMOOTH",
"341 0 OFFCURVE",
"394 18 OFFCURVE",
"429 57 CURVE SMOOTH",
"451 82 OFFCURVE",
"465 118 OFFCURVE",
"465 162 CURVE",
"465 257 LINE",
"465 284 OFFCURVE",
"459 323 OFFCURVE",
"437 344 CURVE SMOOTH",
"424 356 OFFCURVE",
"403 367 OFFCURVE",
"378 373 CURVE",
"431 378 OFFCURVE",
"463 414 OFFCURVE",
"463 461 CURVE",
"463 552 LINE",
"463 582 OFFCURVE",
"450 610 OFFCURVE",
"431 634 CURVE SMOOTH",
"398 674 OFFCURVE",
"345 700 OFFCURVE",
"297 700 CURVE SMOOTH"
);
},
{
closed = 1;
nodes = (
"331 307 OFFCURVE",
"355 289 OFFCURVE",
"355 248 CURVE",
"355 173 LINE SMOOTH",
"355 154 OFFCURVE",
"352 128 OFFCURVE",
"332 115 CURVE SMOOTH",
"326 111 OFFCURVE",
"312 107 OFFCURVE",
"294 107 CURVE SMOOTH",
"235 107 LINE",
"235 307 LINE",
"294 307 LINE"
);
},
{
closed = 1;
nodes = (
"330 598 OFFCURVE",
"354 569 OFFCURVE",
"354 535 CURVE SMOOTH",
"354 467 LINE",
"354 448 OFFCURVE",
"350 428 OFFCURVE",
"331 415 CURVE SMOOTH",
"322 409 OFFCURVE",
"308 404 OFFCURVE",
"293 404 CURVE",
"234 404 LINE",
"234 598 LINE",
"293 598 LINE SMOOTH"
);
}
);
width = 523;
},
{
anchors = (
{
name = ogonek;
position = "{513, -1}";
},
{
name = top;
position = "{279, 700}";
}
);
layerId = "C85A4985-4A4B-40F2-9F5D-E307D783C1A5";
name = InsideLight;
paths = (
{
closed = 1;
nodes = (
"235 107 LINE",
"268 107 LINE",
"268 233 LINE",
"235 307 LINE"
);
},
{
closed = 1;
nodes = (
"234 404 LINE",
"268 404 LINE",
"268 519 LINE",
"234 598 LINE"
);
},
{
closed = 1;
nodes = (
"487 568 OFFCURVE",
"464 599 OFFCURVE",
"431 634 CURVE",
"450 610 OFFCURVE",
"463 582 OFFCURVE",
"463 551 CURVE SMOOTH",
"463 461 LINE",
"478 448 OFFCURVE",
"493 433 OFFCURVE",
"510 415 CURVE SMOOTH",
"529 395 OFFCURVE",
"536 386 OFFCURVE",
"548 365 CURVE",
"548 430 LINE SMOOTH",
"548 465 OFFCURVE",
"534 494 OFFCURVE",
"516 523 CURVE SMOOTH"
);
},
{
closed = 1;
nodes = (
"437 344 LINE",
"459 323 OFFCURVE",
"465 284 OFFCURVE",
"465 257 CURVE SMOOTH",
"465 162 LINE SMOOTH",
"465 118 OFFCURVE",
"451 82 OFFCURVE",
"429 57 CURVE",
"444 44 OFFCURVE",
"458 32 OFFCURVE",
"473 17 CURVE SMOOTH",
"486 4 OFFCURVE",
"498 -10 OFFCURVE",
"510 -23 CURVE",
"534 -1 OFFCURVE",
"548 45 OFFCURVE",
"548 85 CURVE SMOOTH",
"548 159 LINE",
"547 211 OFFCURVE",
"539 249 OFFCURVE",
"501 284 CURVE SMOOTH"
);
}
);
width = 523;
},
{
anchors = (
{
name = ogonek;
position = "{513, -1}";
},
{
name = top;
position = "{279, 700}";
}
);
layerId = "2AF69027-8699-4DA7-9B20-F07C10F82EEB";
name = InsideShadow;
paths = (
{
closed = 1;
nodes = (
"394 18 OFFCURVE",
"341 0 OFFCURVE",
"300 0 CURVE SMOOTH",
"45 0 LINE",
"152 -70 LINE",
"396 -70 LINE SMOOTH",
"417 -70 OFFCURVE",
"466 -63 OFFCURVE",
"510 -23 CURVE",
"498 -10 OFFCURVE",
"486 4 OFFCURVE",
"473 17 CURVE SMOOTH",
"458 32 OFFCURVE",
"444 44 OFFCURVE",
"429 57 CURVE"
);
},
{
closed = 1;
nodes = (
"235 307 LINE",
"268 233 LINE",
"268 107 LINE",
"294 107 LINE SMOOTH",
"312 107 OFFCURVE",
"326 111 OFFCURVE",
"332 115 CURVE",
"332 216 LINE",
"355 216 LINE",
"355 248 LINE SMOOTH",
"355 289 OFFCURVE",
"331 307 OFFCURVE",
"294 307 CURVE SMOOTH"
);
},
{
closed = 1;
nodes = (
"79 598 LINE",
"130 530 LINE",
"130 598 LINE"
);
},
{
closed = 1;
nodes = (
"234 598 LINE",
"268 519 LINE",
"268 404 LINE",
"293 404 LINE SMOOTH",
"308 404 OFFCURVE",
"322 409 OFFCURVE",
"331 415 CURVE",
"331 493 LINE",
"354 493 LINE",
"354 535 LINE SMOOTH",
"354 569 OFFCURVE",
"330 598 OFFCURVE",
"293 598 CURVE SMOOTH"
);
},
{
closed = 1;
nodes = (
"463 414 OFFCURVE",
"431 378 OFFCURVE",
"378 373 CURVE",
"403 367 OFFCURVE",
"424 356 OFFCURVE",
"437 344 CURVE SMOOTH",
"501 284 LINE",
"522 298 OFFCURVE",
"548 340 OFFCURVE",
"548 365 CURVE",
"536 386 OFFCURVE",
"529 395 OFFCURVE",
"510 415 CURVE SMOOTH",
"493 433 OFFCURVE",
"478 448 OFFCURVE",
"463 461 CURVE"
);
}
);
width = 523;
},
{
anchors = (
{
name = ogonek;
position = "{513, -1}";
},
{
name = top;
position = "{279, 700}";
}
);
layerId = "251EB316-0412-4A3C-A569-0EEB43C6D9CE";
name = Shadow;
paths = (
{
closed = 1;
nodes = (
"72 -83 LINE",
"19 -134 LINE",
"19 -216 LINE",
"228 -216 LINE",
"272 -216 OFFCURVE",
"326 -194 OFFCURVE",
"362 -166 CURVE SMOOTH",
"419 -122 OFFCURVE",
"490 -51 OFFCURVE",
"510 -23 CURVE",
"466 -63 OFFCURVE",
"417 -70 OFFCURVE",
"396 -70 CURVE",
"152 -70 LINE",
"72 -18 LINE"
);
},
{
closed = 1;
nodes = (
"19 423 LINE",
"19 321 LINE",
"72 321 LINE",
"72 109 LINE",
"130 109 LINE",
"130 520 LINE"
);
},
{
closed = 1;
nodes = (
"332 216 LINE",
"332 115 LINE",
"352 128 OFFCURVE",
"355 154 OFFCURVE",
"355 173 CURVE SMOOTH",
"355 216 LINE"
);
},
{
closed = 1;
nodes = (
"331 493 LINE",
"331 415 LINE",
"350 428 OFFCURVE",
"354 448 OFFCURVE",
"354 467 CURVE SMOOTH",
"354 493 LINE"
);
}
);
width = 523;
}
);
unicode = 0042;
},
{
glyphname = C;
lastChange = "2014-09-19 15:51:55 +0100";
layers = (
{
anchors = (
{
name = ogonek;
position = "{482, -1}";
},
{
name = top;
position = "{248, 700}";
}
);
layerId = "8706937B-409E-4048-AB1C-4F6C90F3053E";
name = Front;
paths = (
{
closed = 1;
nodes = (
"306 426 LINE",
"470 426 LINE",
"470 528 LINE",
"414 528 LINE",
"414 557 LINE",
"414 588 OFFCURVE",
"401 615 OFFCURVE",
"382 639 CURVE SMOOTH",
"349 679 OFFCURVE",
"296 706 OFFCURVE",
"248 706 CURVE SMOOTH",
"148 706 OFFCURVE",
"83 625 OFFCURVE",
"83 537 CURVE SMOOTH",
"83 160 LINE SMOOTH",
"83 114 OFFCURVE",
"108 59 OFFCURVE",
"153 25 CURVE SMOOTH",
"180 5 OFFCURVE",
"212 -8 OFFCURVE",
"251 -8 CURVE SMOOTH",
"318 -8 OFFCURVE",
"416 39 OFFCURVE",
"416 155 CURVE SMOOTH",
"416 242 LINE",
"306 242 LINE",
"306 172 LINE SMOOTH",
"306 153 OFFCURVE",
"298 131 OFFCURVE",
"283 114 CURVE",
"276 107 OFFCURVE",
"265 101 OFFCURVE",
"255 101 CURVE SMOOTH",
"207 101 OFFCURVE",
"186 132 OFFCURVE",
"186 166 CURVE SMOOTH",
"186 543 LINE SMOOTH",
"186 573 OFFCURVE",
"204 602 OFFCURVE",
"245 602 CURVE SMOOTH",
"282 602 OFFCURVE",
"306 574 OFFCURVE",
"306 540 CURVE SMOOTH"
);
}
);
width = 501;
},
{
anchors = (
{
name = ogonek;
position = "{482, -1}";
},
{
name = top;
position = "{248, 700}";
}
);
layerId = "C85A4985-4A4B-40F2-9F5D-E307D783C1A5";
name = InsideLight;
paths = (
{
closed = 1;
nodes = (
"401 615 OFFCURVE",
"414 588 OFFCURVE",
"414 557 CURVE",
"414 528 LINE",
"470 528 LINE",
"423 597 OFFCURVE",
"411 607 OFFCURVE",
"382 639 CURVE"
);
},
{
closed = 1;
nodes = (
"186 166 LINE",
"186 132 OFFCURVE",
"207 101 OFFCURVE",
"255 101 CURVE",
"255 386 LINE",
"186 543 LINE"
);
},
{
closed = 1;
nodes = (
"416 155 LINE",
"499 78 LINE",
"499 170 LINE",
"416 242 LINE"
);
},
{
closed = 1;
nodes = (
"470 426 LINE",
"556 321 LINE",
"556 423 LINE",
"470 528 LINE"
);
}
);
width = 501;
},
{
anchors = (
{
name = ogonek;
position = "{482, -1}";
},
{
name = top;
position = "{248, 700}";
}
);
layerId = "2AF69027-8699-4DA7-9B20-F07C10F82EEB";
name = InsideShadow;
paths = (
{
closed = 1;
nodes = (
"416 39 OFFCURVE",
"318 -8 OFFCURVE",
"251 -8 CURVE SMOOTH",
"212 -8 OFFCURVE",
"180 5 OFFCURVE",
"153 25 CURVE",
"266 -56 LINE",
"285 -71 OFFCURVE",
"307 -77 OFFCURVE",
"347 -77 CURVE SMOOTH",
"368 -77 OFFCURVE",
"417 -75 OFFCURVE",
"461 -30 CURVE SMOOTH",
"474 -17 OFFCURVE",
"499 16 OFFCURVE",
"499 78 CURVE",
"416 155 LINE"
);
},
{
closed = 1;
nodes = (
"204 602 OFFCURVE",
"186 573 OFFCURVE",
"186 543 CURVE",
"255 386 LINE",
"255 101 LINE",
"265 101 OFFCURVE",
"276 107 OFFCURVE",
"283 114 CURVE",
"283 437 LINE SMOOTH",
"283 456 OFFCURVE",
"293 471 OFFCURVE",
"306 482 CURVE",
"306 540 LINE SMOOTH",
"306 574 OFFCURVE",
"282 602 OFFCURVE",
"245 602 CURVE SMOOTH"
);
},
{
closed = 1;
nodes = (
"306 426 LINE",
"405 321 LINE",
"556 321 LINE",
"470 426 LINE"
);
}
);
width = 501;
},
{
anchors = (
{
name = ogonek;
position = "{482, -1}";
},
{
name = top;
position = "{248, 700}";
}
);
layerId = "251EB316-0412-4A3C-A569-0EEB43C6D9CE";
name = Shadow;
paths = (
{
closed = 1;
nodes = (
"51 402 OFFCURVE",
"35 364 OFFCURVE",
"35 319 CURVE SMOOTH",
"35 -56 LINE SMOOTH",
"35 -147 OFFCURVE",
"95 -220 OFFCURVE",
"198 -220 CURVE SMOOTH",
"242 -220 OFFCURVE",
"280 -204 OFFCURVE",
"313 -173 CURVE SMOOTH",
"461 -30 LINE",
"417 -75 OFFCURVE",
"368 -77 OFFCURVE",
"347 -77 CURVE SMOOTH",
"307 -77 OFFCURVE",
"285 -71 OFFCURVE",
"266 -56 CURVE",
"153 25 LINE",
"108 59 OFFCURVE",
"83 114 OFFCURVE",
"83 160 CURVE",
"83 434 LINE"
);
},
{
closed = 1;
nodes = (
"293 471 OFFCURVE",
"283 456 OFFCURVE",
"283 437 CURVE SMOOTH",
"283 114 LINE",
"298 131 OFFCURVE",
"306 153 OFFCURVE",
"306 172 CURVE SMOOTH",
"306 184 LINE",
"306 242 LINE",
"416 242 LINE",
"440 221 LINE",
"556 321 LINE",
"405 321 LINE",
"306 426 LINE",
"306 482 LINE"
);
}
);
width = 501;
}
);
unicode = 0043;
},
{
glyphname = D;
lastChange = "2014-09-19 15:51:55 +0100";
layers = (
{
anchors = (
{
name = ogonek;
position = "{503, -1}";
},
{
name = top;
position = "{269, 700}";
}
);
layerId = "8706937B-409E-4048-AB1C-4F6C90F3053E";
name = Front;
paths = (
{
closed = 1;
nodes = (
"79 700 LINE",
"79 598 LINE",
"130 598 LINE",
"130 107 LINE",
"45 107 LINE",
"45 0 LINE",
"300 0 LINE SMOOTH",
"367 0 OFFCURVE",
"465 46 OFFCURVE",
"465 162 CURVE",
"463 551 LINE",
"463 633 OFFCURVE",
"373 700 OFFCURVE",
"297 700 CURVE SMOOTH"
);
},
{
closed = 1;
nodes = (
"331 598 OFFCURVE",
"355 570 OFFCURVE",
"355 536 CURVE SMOOTH",
"355 173 LINE SMOOTH",
"355 154 OFFCURVE",
"354 132 OFFCURVE",
"332 115 CURVE",
"325 111 OFFCURVE",
"314 107 OFFCURVE",
"304 107 CURVE",
"235 107 LINE",
"235 598 LINE",
"294 598 LINE"
);
}
);
width = 543;
},
{
anchors = (
{
name = ogonek;
position = "{503, -1}";
},
{
name = top;
position = "{269, 700}";
}
);
layerId = "C85A4985-4A4B-40F2-9F5D-E307D783C1A5";
name = InsideLight;
paths = (
{
closed = 1;
nodes = (
"451 611 OFFCURVE",
"463 582 OFFCURVE",
"463 551 CURVE",
"465 162 LINE",
"548 85 LINE",
"548 430 LINE SMOOTH",
"548 465 OFFCURVE",
"537 495 OFFCURVE",
"516 523 CURVE SMOOTH",
"487 561 OFFCURVE",
"459 597 OFFCURVE",
"431 634 CURVE"
);
},
{
closed = 1;
nodes = (
"235 107 LINE",
"304 107 LINE",
"304 372 LINE SMOOTH",
"304 437 OFFCURVE",
"289 483 OFFCURVE",
"273 517 CURVE SMOOTH",
"235 598 LINE"
);
}
);
width = 543;
},
{
anchors = (
{
name = ogonek;
position = "{503, -1}";
},
{
name = top;
position = "{269, 700}";
}
);
layerId = "2AF69027-8699-4DA7-9B20-F07C10F82EEB";
name = InsideShadow;
paths = (
{
closed = 1;
nodes = (
"465 115 OFFCURVE",
"449 79 OFFCURVE",
"425 54 CURVE SMOOTH",
"390 16 OFFCURVE",
"340 0 OFFCURVE",
"300 0 CURVE SMOOTH",
"273 0 LINE",
"364 -70 LINE",
"396 -70 LINE SMOOTH",
"417 -70 OFFCURVE",
"466 -63 OFFCURVE",
"510 -23 CURVE SMOOTH",
"524 -11 OFFCURVE",
"548 23 OFFCURVE",
"548 85 CURVE",
"465 162 LINE"
);
},
{
closed = 1;
nodes = (
"45 0 LINE",
"152 -70 LINE",
"364 -70 LINE",
"273 0 LINE"
);
},
{
closed = 1;
nodes = (
"235 598 LINE",
"273 517 LINE SMOOTH",
"289 483 OFFCURVE",
"304 437 OFFCURVE",
"304 372 CURVE SMOOTH",
"304 107 LINE",
"314 107 OFFCURVE",
"325 111 OFFCURVE",
"332 115 CURVE",
"332 493 LINE",
"355 493 LINE",
"355 536 LINE SMOOTH",
"355 570 OFFCURVE",
"331 598 OFFCURVE",
"294 598 CURVE SMOOTH"
);
},
{
closed = 1;
nodes = (
"79 598 LINE",
"130 526 LINE",
"130 598 LINE"
);
}
);
width = 543;
},
{
anchors = (
{
name = ogonek;
position = "{503, -1}";
},
{
name = top;
position = "{269, 700}";
}
);
layerId = "251EB316-0412-4A3C-A569-0EEB43C6D9CE";
name = Shadow;
paths = (
{
closed = 1;
nodes = (
"72 -83 LINE",
"19 -134 LINE",
"19 -216 LINE",
"247 -216 LINE",
"291 -216 OFFCURVE",
"329 -197 OFFCURVE",
"362 -166 CURVE SMOOTH",
"510 -23 LINE",
"466 -63 OFFCURVE",
"417 -70 OFFCURVE",
"396 -70 CURVE",
"364 -70 LINE",
"152 -70 LINE",
"72 -18 LINE"
);
},
{
closed = 1;
nodes = (
"19 423 LINE",
"19 321 LINE",
"72 321 LINE",
"72 107 LINE",
"130 107 LINE",
"130 526 LINE"
);
},
{
closed = 1;
nodes = (
"332 493 LINE",
"332 115 LINE",
"354 132 OFFCURVE",
"355 154 OFFCURVE",
"355 173 CURVE SMOOTH",
"355 493 LINE"
);
}
);
width = 543;
}
);
unicode = 0044;
},
{
glyphname = E;
lastChange = "2014-09-19 15:51:55 +0100";
layers = (
{
anchors = (
{
name = ogonek;
position = "{303, -1}";
},
{
name = top;
position = "{269, 700}";
}
);
layerId = "8706937B-409E-4048-AB1C-4F6C90F3053E";
name = Front;
paths = (
{
closed = 1;
nodes = (
"79 700 LINE",
"79 598 LINE",
"130 598 LINE",
"130 107 LINE",
"45 107 LINE",
"45 0 LINE",
"435 0 LINE",
"435 107 LINE",
"235 107 LINE",
"235 299 LINE",
"379 299 LINE",
"379 405 LINE",
"235 405 LINE",
"235 598 LINE",
"430 598 LINE",
"430 700 LINE"
);
}
);
width = 501;
},
{
anchors = (
{
name = ogonek;
position = "{303, -1}";
},
{
name = top;
position = "{269, 700}";
}
);
layerId = "C85A4985-4A4B-40F2-9F5D-E307D783C1A5";
name = InsideLight;
paths = (
{
closed = 1;
nodes = (
"379 299 LINE",
"469 208 LINE",
"469 309 LINE",
"379 405 LINE"
);
},
{
closed = 1;
nodes = (
"235 107 LINE",
"325 107 LINE",
"235 299 LINE"
);
},
{
closed = 1;
nodes = (
"435 0 LINE",
"526 -70 LINE",
"526 28 LINE",
"435 107 LINE"
);
},
{
closed = 1;
nodes = (
"235 405 LINE",
"325 405 LINE",
"235 598 LINE"
);
},
{
closed = 1;
nodes = (
"430 598 LINE",
"516 493 LINE",
"516 588 LINE",
"430 700 LINE"
);
}
);
width = 501;
},
{
anchors = (
{
name = ogonek;
position = "{303, -1}";
},
{
name = top;
position = "{269, 700}";
}
);
layerId = "2AF69027-8699-4DA7-9B20-F07C10F82EEB";
name = InsideShadow;
paths = (
{
closed = 1;
nodes = (
"45 0 LINE",
"152 -70 LINE",
"526 -70 LINE",
"435 0 LINE"
);
},
{
closed = 1;
nodes = (
"325 107 LINE",
"334 107 LINE",
"334 208 LINE",
"235 299 LINE"
);
},
{
closed = 1;
nodes = (
"235 299 LINE",
"334 208 LINE",
"469 208 LINE",
"379 299 LINE"
);
},
{
closed = 1;
nodes = (
"79 598 LINE",
"130 532 LINE",
"130 598 LINE"
);
},
{
closed = 1;
nodes = (
"325 405 LINE",
"334 405 LINE",
"334 493 LINE",
"235 598 LINE"
);
},
{
closed = 1;
nodes = (
"235 598 LINE",
"334 493 LINE",
"516 493 LINE",
"430 598 LINE"
);
}
);
width = 501;
},
{
anchors = (
{
name = ogonek;
position = "{303, -1}";
},
{
name = top;
position = "{269, 700}";
}
);
layerId = "251EB316-0412-4A3C-A569-0EEB43C6D9CE";
name = Shadow;
paths = (
{
closed = 1;
nodes = (
"72 -49 LINE",
"19 -100 LINE",
"19 -216 LINE",
"376 -216 LINE",
"526 -70 LINE",
"152 -70 LINE",
"72 -18 LINE"
);
},
{
closed = 1;
nodes = (
"19 423 LINE",
"19 321 LINE",
"72 321 LINE",
"72 107 LINE",
"130 107 LINE",
"130 520 LINE"
);
},
{
closed = 1;
nodes = (
"334 208 LINE",
"334 107 LINE",
"362 107 LINE",
"469 208 LINE"
);
},
{
closed = 1;
nodes = (
"334 493 LINE",
"334 405 LINE",
"379 405 LINE",
"394 389 LINE",
"516 493 LINE"
);
}
);
width = 501;
}
);
unicode = 0045;
},
{
glyphname = F;
lastChange = "2014-09-19 15:51:55 +0100";
layers = (
{
anchors = (
{
name = ogonek;
position = "{513, -1}";
},
{
name = top;
position = "{279, 700}";
}
);
layerId = "8706937B-409E-4048-AB1C-4F6C90F3053E";
name = Front;
paths = (
{
closed = 1;
nodes = (
"79 700 LINE",
"79 598 LINE",
"130 598 LINE",
"130 107 LINE",
"45 107 LINE",
"45 0 LINE",
"313 0 LINE",
"313 108 LINE",
"235 108 LINE",
"235 299 LINE",
"379 299 LINE",
"379 405 LINE",
"235 405 LINE",
"235 598 LINE",
"354 598 LINE",
"354 468 LINE",
"460 468 LINE",
"460 700 LINE"
);
}
);
width = 523;
},
{
anchors = (
{
name = ogonek;
position = "{513, -1}";
},
{
name = top;
position = "{279, 700}";
}
);
layerId = "C85A4985-4A4B-40F2-9F5D-E307D783C1A5";
name = InsideLight;
paths = (
{
closed = 1;
nodes = (
"235 108 LINE",
"313 108 LINE",
"313 0 LINE",
"404 -70 LINE",
"404 28 LINE",
"334 89 LINE",
"235 299 LINE"
);
},
{
closed = 1;
nodes = (
"379 299 LINE",
"469 208 LINE",
"469 309 LINE",
"379 405 LINE"
);
},
{
closed = 1;
nodes = (
"235 405 LINE",
"325 405 LINE",
"235 598 LINE"
);
},
{
closed = 1;
nodes = (
"460 468 LINE",
"546 371 LINE",
"546 587 LINE",
"460 700 LINE"
);
}
);
width = 523;
},
{
anchors = (
{
name = ogonek;
position = "{513, -1}";
},
{
name = top;
position = "{279, 700}";
}
);
layerId = "2AF69027-8699-4DA7-9B20-F07C10F82EEB";
name = InsideShadow;
paths = (
{
closed = 1;
nodes = (
"45 0 LINE",
"152 -70 LINE",
"404 -70 LINE",
"313 0 LINE"
);
},
{
closed = 1;
nodes = (
"334 89 LINE",
"334 208 LINE",
"235 299 LINE"
);
},
{
closed = 1;
nodes = (
"235 299 LINE",
"334 208 LINE",
"469 208 LINE",
"379 299 LINE"
);
},
{
closed = 1;
nodes = (
"79 598 LINE",
"130 526 LINE",
"130 598 LINE"
);
},
{
closed = 1;
nodes = (
"325 405 LINE",
"334 405 LINE",
"334 493 LINE",
"235 598 LINE"
);
},
{
closed = 1;
nodes = (
"235 598 LINE",
"334 493 LINE",
"354 493 LINE",
"354 598 LINE"
);
},
{
closed = 1;
nodes = (
"354 468 LINE",
"449 371 LINE",
"546 371 LINE",
"460 468 LINE"
);
}
);
width = 523;
},
{
anchors = (
{
name = ogonek;
position = "{513, -1}";
},
{
name = top;
position = "{279, 700}";
}
);
layerId = "251EB316-0412-4A3C-A569-0EEB43C6D9CE";
name = Shadow;
paths = (
{
closed = 1;
nodes = (
"72 -83 LINE",
"19 -134 LINE",
"19 -216 LINE",
"254 -216 LINE",
"404 -70 LINE",
"152 -70 LINE",
"72 -18 LINE"
);
},
{
closed = 1;
nodes = (
"19 423 LINE",
"19 321 LINE",
"72 321 LINE",
"72 107 LINE",
"130 107 LINE",
"130 526 LINE"
);
},
{
closed = 1;
nodes = (
"334 208 LINE",
"334 89 LINE",
"469 208 LINE"
);
},
{
closed = 1;
nodes = (
"334 493 LINE",
"334 405 LINE",
"379 405 LINE",
"469 309 LINE",
"469 279 LINE",
"546 371 LINE",
"449 371 LINE",
"354 468 LINE",
"354 493 LINE"
);
}
);
width = 523;
}
);
unicode = 0046;
},
{
glyphname = G;
lastChange = "2014-09-19 15:51:55 +0100";
layers = (
{
anchors = (
{
name = bottom;
position = "{251, 0}";
},
{
name = ogonek;
position = "{483, -1}";
},
{
name = top;
position = "{249, 700}";
}
);
layerId = "8706937B-409E-4048-AB1C-4F6C90F3053E";
name = Front;
paths = (
{
closed = 1;
nodes = (
"148 706 OFFCURVE",
"83 625 OFFCURVE",
"83 537 CURVE SMOOTH",
"83 160 LINE SMOOTH",
"83 114 OFFCURVE",
"108 59 OFFCURVE",
"153 25 CURVE SMOOTH",
"180 5 OFFCURVE",
"210 -8 OFFCURVE",
"251 -8 CURVE SMOOTH",
"290 -8 OFFCURVE",
"339 8 OFFCURVE",
"373 43 CURVE SMOOTH",
"398 69 OFFCURVE",
"416 106 OFFCURVE",
"416 155 CURVE SMOOTH",
"416 242 LINE",
"470 242 LINE",
"470 348 LINE",
"248 348 LINE",
"248 242 LINE",
"306 242 LINE",
"306 172 LINE SMOOTH",
"306 153 OFFCURVE",
"298 131 OFFCURVE",
"283 114 CURVE",
"276 107 OFFCURVE",
"265 101 OFFCURVE",
"255 101 CURVE",
"207 101 OFFCURVE",
"186 132 OFFCURVE",
"186 166 CURVE SMOOTH",
"186 543 LINE SMOOTH",
"186 573 OFFCURVE",
"204 602 OFFCURVE",
"245 602 CURVE SMOOTH",
"282 602 OFFCURVE",
"306 574 OFFCURVE",
"306 540 CURVE SMOOTH",
"306 463 LINE",
"414 463 LINE",
"414 557 LINE",
"414 588 OFFCURVE",
"401 615 OFFCURVE",
"382 639 CURVE SMOOTH",
"349 679 OFFCURVE",
"296 706 OFFCURVE",
"248 706 CURVE SMOOTH"
);
}
);
width = 502;
},
{
anchors = (
{
name = bottom;
position = "{251, 0}";
},
{
name = ogonek;
position = "{483, -1}";
},
{
name = top;
position = "{249, 700}";
}
);
layerId = "C85A4985-4A4B-40F2-9F5D-E307D783C1A5";
name = InsideLight;
paths = (
{
closed = 1;
nodes = (
"416 155 LINE SMOOTH",
"416 106 OFFCURVE",
"398 69 OFFCURVE",
"373 43 CURVE",
"387 25 OFFCURVE",
"401 13 OFFCURVE",
"418 -1 CURVE SMOOTH",
"434 -14 OFFCURVE",
"448 -22 OFFCURVE",
"461 -30 CURVE",
"471 -20 OFFCURVE",
"488 9 OFFCURVE",
"495 38 CURVE",
"495 68 OFFCURVE",
"490 85 OFFCURVE",
"482 102 CURVE SMOOTH",
"416 242 LINE"
);
},
{
closed = 1;
nodes = (
"186 166 LINE SMOOTH",
"186 132 OFFCURVE",
"207 101 OFFCURVE",
"255 101 CURVE",
"255 235 LINE",
"248 242 LINE",
"248 348 LINE",
"255 348 LINE",
"255 386 LINE",
"186 543 LINE"
);
},
{
closed = 1;
nodes = (
"470 242 LINE",
"547 146 LINE",
"547 245 LINE",
"470 348 LINE"
);
},
{
closed = 1;
nodes = (
"401 615 OFFCURVE",
"414 588 OFFCURVE",
"414 557 CURVE SMOOTH",
"414 463 LINE",
"499 362 LINE",
"499 436 LINE SMOOTH",
"499 471 OFFCURVE",
"487 500 OFFCURVE",
"467 529 CURVE SMOOTH",
"420 598 OFFCURVE",
"411 607 OFFCURVE",
"382 639 CURVE"
);
}
);
width = 502;
},
{
anchors = (
{
name = bottom;
position = "{251, 0}";
},
{
name = ogonek;
position = "{483, -1}";
},
{
name = top;
position = "{249, 700}";
}
);
layerId = "2AF69027-8699-4DA7-9B20-F07C10F82EEB";
name = InsideShadow;
paths = (
{
closed = 1;
nodes = (
"339 8 OFFCURVE",
"290 -8 OFFCURVE",
"251 -8 CURVE SMOOTH",
"210 -8 OFFCURVE",
"180 5 OFFCURVE",
"153 25 CURVE",
"266 -56 LINE",
"285 -71 OFFCURVE",
"307 -77 OFFCURVE",
"347 -77 CURVE SMOOTH",
"368 -77 OFFCURVE",
"417 -75 OFFCURVE",
"461 -30 CURVE",
"448 -22 OFFCURVE",
"434 -14 OFFCURVE",
"418 -1 CURVE SMOOTH",
"401 13 OFFCURVE",
"387 25 OFFCURVE",
"373 43 CURVE"
);
},
{
closed = 1;
nodes = (
"255 101 LINE",
"265 101 OFFCURVE",
"276 107 OFFCURVE",
"283 114 CURVE",
"283 207 LINE",
"255 235 LINE"
);
},
{
closed = 1;
nodes = (
"248 242 LINE",
"306 184 LINE",
"306 242 LINE"
);
},
{
closed = 1;
nodes = (
"416 242 LINE",
"482 102 LINE SMOOTH",
"490 85 OFFCURVE",
"495 68 OFFCURVE",
"495 38 CURVE",
"498 51 OFFCURVE",
"499 59 OFFCURVE",
"499 71 CURVE",
"499 146 LINE",
"547 146 LINE",
"470 242 LINE"
);
},
{
closed = 1;
nodes = (
"204 602 OFFCURVE",
"186 573 OFFCURVE",
"186 543 CURVE",
"255 386 LINE",
"255 348 LINE",
"283 348 LINE",
"283 437 LINE SMOOTH",
"283 456 OFFCURVE",
"293 471 OFFCURVE",
"306 482 CURVE",
"306 540 LINE SMOOTH",
"306 574 OFFCURVE",
"282 602 OFFCURVE",
"245 602 CURVE SMOOTH"
);
},
{
closed = 1;
nodes = (
"306 463 LINE",
"397 362 LINE",
"499 362 LINE",
"414 463 LINE"
);
}
);
width = 502;
},
{
anchors = (
{
name = bottom;
position = "{251, 0}";
},
{
name = ogonek;
position = "{483, -1}";
},
{
name = top;
position = "{249, 700}";
}
);
layerId = "251EB316-0412-4A3C-A569-0EEB43C6D9CE";
name = Shadow;
paths = (
{
closed = 1;
nodes = (
"51 402 OFFCURVE",
"35 364 OFFCURVE",
"35 319 CURVE SMOOTH",
"35 -56 LINE SMOOTH",
"35 -147 OFFCURVE",
"95 -220 OFFCURVE",
"198 -220 CURVE SMOOTH",
"242 -220 OFFCURVE",
"280 -204 OFFCURVE",
"313 -173 CURVE SMOOTH",
"461 -30 LINE",
"417 -75 OFFCURVE",
"368 -77 OFFCURVE",
"347 -77 CURVE SMOOTH",
"307 -77 OFFCURVE",
"285 -71 OFFCURVE",
"266 -56 CURVE",
"153 25 LINE",
"108 59 OFFCURVE",
"83 114 OFFCURVE",
"83 160 CURVE",
"83 434 LINE"
);
},
{
closed = 1;
nodes = (
"283 114 LINE",
"298 131 OFFCURVE",
"306 153 OFFCURVE",
"306 172 CURVE",
"306 184 LINE",
"283 207 LINE"
);
},
{
closed = 1;
nodes = (
"293 471 OFFCURVE",
"283 456 OFFCURVE",
"283 437 CURVE",
"283 348 LINE",
"470 348 LINE",
"479 336 LINE",
"499 362 LINE",
"397 362 LINE",
"306 463 LINE",
"306 482 LINE"
);
}
);
width = 502;
}
);
unicode = 0047;
},
{
glyphname = H;
lastChange = "2014-09-19 15:51:55 +0100";
layers = (
{
anchors = (
{
name = ogonek;
position = "{533, -1}";
},
{
name = top;
position = "{299, 700}";
}
);
layerId = "8706937B-409E-4048-AB1C-4F6C90F3053E";
name = Front;
paths = (
{
closed = 1;
nodes = (
"64 701 LINE",
"64 598 LINE",
"130 598 LINE",
"130 107 LINE",
"62 107 LINE",
"62 0 LINE",
"234 0 LINE",
"234 299 LINE",
"364 299 LINE",
"364 0 LINE",
"534 0 LINE",
"534 107 LINE",
"470 107 LINE",
"470 598 LINE",
"536 598 LINE",
"536 700 LINE",
"364 700 LINE",
"364 406 LINE",
"234 406 LINE",
"234 701 LINE"
);
}
);
width = 600;
},
{
anchors = (
{
name = ogonek;
position = "{533, -1}";
},
{
name = top;
position = "{299, 700}";
}
);
layerId = "C85A4985-4A4B-40F2-9F5D-E307D783C1A5";
name = InsideLight;
paths = (
{
closed = 1;
nodes = (
"470 107 LINE",
"534 107 LINE",
"555 88 LINE",
"555 426 LINE",
"470 598 LINE"
);
},
{
closed = 1;
nodes = (
"234 0 LINE",
"302 -51 LINE",
"302 148 LINE",
"234 299 LINE"
);
},
{
closed = 1;
nodes = (
"534 0 LINE",
"618 -70 LINE",
"618 29 LINE",
"534 107 LINE"
);
},
{
closed = 1;
nodes = (
"234 406 LINE",
"302 406 LINE",
"302 537 LINE",
"331 503 LINE",
"331 587 LINE",
"234 700 LINE"
);
},
{
closed = 1;
nodes = (
"536 598 LINE",
"635 493 LINE",
"635 587 LINE",
"536 700 LINE"
);
}
);
width = 600;
},
{
anchors = (
{
name = ogonek;
position = "{533, -1}";
},
{
name = top;
position = "{299, 700}";
}
);
layerId = "2AF69027-8699-4DA7-9B20-F07C10F82EEB";
name = InsideShadow;
paths = (
{
closed = 1;
nodes = (
"302 148 LINE",
"302 -50 LINE",
"331 -70 LINE",
"331 210 LINE",
"234 299 LINE"
);
},
{
closed = 1;
nodes = (
"62 0 LINE",
"169 -70 LINE",
"331 -70 LINE",
"234 0 LINE"
);
},
{
closed = 1;
nodes = (
"364 0 LINE",
"454 -70 LINE",
"618 -70 LINE",
"534 0 LINE"
);
},
{
closed = 1;
nodes = (
"234 299 LINE",
"331 210 LINE",
"364 210 LINE",
"364 299 LINE"
);
},
{
closed = 1;
nodes = (
"64 598 LINE",
"130 509 LINE",
"130 598 LINE"
);
},
{
closed = 1;
nodes = (
"302 406 LINE",
"331 406 LINE",
"331 503 LINE",
"302 537 LINE"
);
},
{
closed = 1;
nodes = (
"470 598 LINE",
"555 426 LINE",
"555 493 LINE",
"635 493 LINE",
"536 598 LINE"
);
}
);
width = 600;
},
{
anchors = (
{
name = ogonek;
position = "{533, -1}";
},
{
name = top;
position = "{299, 700}";
}
);
layerId = "251EB316-0412-4A3C-A569-0EEB43C6D9CE";
name = Shadow;
paths = (
{
closed = 1;
nodes = (
"331 210 LINE",
"331 -70 LINE",
"169 -70 LINE",
"89 -17 LINE",
"89 -52 LINE",
"36 -103 LINE",
"36 -216 LINE",
"224 -216 LINE",
"292 -147 LINE",
"292 -216 LINE",
"469 -216 LINE",
"618 -70 LINE",
"454 -70 LINE",
"364 0 LINE",
"364 210 LINE"
);
},
{
closed = 1;
nodes = (
"36 424 LINE",
"36 322 LINE",
"89 322 LINE",
"89 107 LINE",
"130 107 LINE",
"130 509 LINE"
);
},
{
closed = 1;
nodes = (
"331 503 LINE",
"331 406 LINE",
"364 406 LINE",
"364 530 LINE"
);
},
{
closed = 1;
nodes = (
"555 493 LINE",
"555 426 LINE",
"635 493 LINE"
);
}
);
width = 600;
}
);
unicode = 0048;
},
{
glyphname = I;
lastChange = "2014-09-19 15:51:55 +0100";
layers = (
{
anchors = (
{
name = ogonek;
position = "{212, -1}";
},
{
name = top;
position = "{179, 700}";
}
);
layerId = "8706937B-409E-4048-AB1C-4F6C90F3053E";
name = Front;
paths = (
{
closed = 1;
nodes = (
"64 700 LINE",
"64 598 LINE",
"130 598 LINE",
"130 107 LINE",
"62 107 LINE",
"62 0 LINE",
"302 0 LINE",
"302 108 LINE",
"234 108 LINE",
"234 598 LINE",
"298 598 LINE",
"298 700 LINE"
);
}
);
width = 364;
},
{
anchors = (
{
name = ogonek;
position = "{212, -1}";
},
{
name = top;
position = "{179, 700}";
}
);
layerId = "C85A4985-4A4B-40F2-9F5D-E307D783C1A5";
name = InsideLight;
paths = (
{
closed = 1;
nodes = (
"234 108 LINE",
"302 108 LINE",
"331 80 LINE",
"331 426 LINE",
"234 598 LINE"
);
},
{
closed = 1;
nodes = (
"302 0 LINE",
"386 -70 LINE",
"386 29 LINE",
"302 108 LINE"
);
},
{
closed = 1;
nodes = (
"298 598 LINE",
"397 493 LINE",
"397 587 LINE",
"298 700 LINE"
);
}
);
width = 364;
},
{
anchors = (
{
name = ogonek;
position = "{212, -1}";
},
{
name = top;
position = "{179, 700}";
}
);
layerId = "2AF69027-8699-4DA7-9B20-F07C10F82EEB";
name = InsideShadow;
paths = (
{
closed = 1;
nodes = (
"62 0 LINE",
"169 -70 LINE",
"386 -70 LINE",
"302 0 LINE"
);
},
{
closed = 1;
nodes = (
"64 598 LINE",
"130 519 LINE",
"130 598 LINE"
);
},
{
closed = 1;
nodes = (
"331 426 LINE",
"331 493 LINE",
"234 598 LINE"
);
},
{
closed = 1;
nodes = (
"234 598 LINE",
"331 493 LINE",
"397 493 LINE",
"298 598 LINE"
);
}
);
width = 364;
},
{
anchors = (
{
name = ogonek;
position = "{212, -1}";
},
{
name = top;
position = "{179, 700}";
}
);
layerId = "251EB316-0412-4A3C-A569-0EEB43C6D9CE";
name = Shadow;
paths = (
{
closed = 1;
nodes = (
"89 -49 LINE",
"36 -100 LINE",
"36 -216 LINE",
"234 -216 LINE",
"386 -70 LINE",
"169 -70 LINE",
"89 -18 LINE"
);
},
{
closed = 1;
nodes = (
"36 423 LINE",
"36 321 LINE",
"89 321 LINE",
"89 107 LINE",
"130 107 LINE",
"130 509 LINE"
);
},
{
closed = 1;
nodes = (
"331 493 LINE",
"331 426 LINE",
"397 493 LINE"
);
}
);
width = 364;
}
);
unicode = 0049;
},
{
glyphname = J;
lastChange = "2014-09-19 15:51:55 +0100";
layers = (
{
anchors = (
{
name = ogonek;
position = "{573, -1}";
},
{
name = top;
position = "{339, 700}";
}
);
layerId = "8706937B-409E-4048-AB1C-4F6C90F3053E";
name = Front;
paths = (
{
closed = 1;
nodes = (
"225 700 LINE",
"225 598 LINE",
"291 598 LINE",
"291 160 LINE SMOOTH",
"291 141 OFFCURVE",
"277 122 OFFCURVE",
"263 111 CURVE SMOOTH",
"254 104 OFFCURVE",
"245 101 OFFCURVE",
"235 101 CURVE SMOOTH",
"191 101 OFFCURVE",
"166 132 OFFCURVE",
"166 166 CURVE SMOOTH",
"166 232 LINE",
"219 232 LINE",
"219 338 LINE",
"63 338 LINE",
"63 160 LINE SMOOTH",
"63 114 OFFCURVE",
"88 59 OFFCURVE",
"133 25 CURVE SMOOTH",
"160 5 OFFCURVE",
"192 -8 OFFCURVE",
"231 -8 CURVE SMOOTH",
"298 -8 OFFCURVE",
"396 39 OFFCURVE",
"396 155 CURVE",
"394 598 LINE",
"459 598 LINE",
"459 700 LINE"
);
}
);
width = 523;
},
{
anchors = (
{
name = ogonek;
position = "{573, -1}";
},
{
name = top;
position = "{339, 700}";
}
);
layerId = "C85A4985-4A4B-40F2-9F5D-E307D783C1A5";
name = InsideLight;
paths = (
{
closed = 1;
nodes = (
"396 155 LINE",
"479 78 LINE",
"479 406 LINE",
"394 598 LINE"
);
},
{
closed = 1;
nodes = (
"166 166 LINE SMOOTH",
"166 132 OFFCURVE",
"191 101 OFFCURVE",
"235 101 CURVE",
"235 185 LINE",
"166 232 LINE"
);
},
{
closed = 1;
nodes = (
"219 232 LINE",
"291 184 LINE",
"291 273 LINE",
"219 338 LINE"
);
},
{
closed = 1;
nodes = (
"459 598 LINE",
"558 493 LINE",
"558 587 LINE",
"459 700 LINE"
);
}
);
width = 523;
},
{
anchors = (
{
name = ogonek;
position = "{573, -1}";
},
{
name = top;
position = "{339, 700}";
}
);
layerId = "2AF69027-8699-4DA7-9B20-F07C10F82EEB";
name = InsideShadow;
paths = (
{
closed = 1;
nodes = (
"396 39 OFFCURVE",
"298 -8 OFFCURVE",
"231 -8 CURVE SMOOTH",
"192 -8 OFFCURVE",
"160 5 OFFCURVE",
"133 25 CURVE",
"136 22 OFFCURVE",
"222 -42 OFFCURVE",
"246 -56 CURVE SMOOTH",
"267 -67 OFFCURVE",
"287 -77 OFFCURVE",
"327 -77 CURVE SMOOTH",
"348 -77 OFFCURVE",
"397 -70 OFFCURVE",
"441 -30 CURVE SMOOTH",
"455 -18 OFFCURVE",
"479 16 OFFCURVE",
"479 78 CURVE",
"396 155 LINE"
);
},
{
closed = 1;
nodes = (
"235 101 LINE",
"245 101 OFFCURVE",
"254 104 OFFCURVE",
"263 111 CURVE",
"263 160 LINE",
"235 185 LINE"
);
},
{
closed = 1;
nodes = (
"166 232 LINE",
"235 185 LINE",
"263 160 LINE",
"291 160 LINE",
"291 184 LINE",
"219 232 LINE"
);
},
{
closed = 1;
nodes = (
"225 598 LINE",
"291 519 LINE",
"291 598 LINE"
);
},
{
closed = 1;
nodes = (
"479 406 LINE",
"479 493 LINE",
"394 598 LINE"
);
},
{
closed = 1;
nodes = (
"394 598 LINE",
"479 493 LINE",
"558 493 LINE",
"459 598 LINE"
);
}
);
width = 523;
},
{
anchors = (
{
name = ogonek;
position = "{573, -1}";
},
{
name = top;
position = "{339, 700}";
}
);
layerId = "251EB316-0412-4A3C-A569-0EEB43C6D9CE";
name = Shadow;
paths = (
{
closed = 1;
nodes = (
"15 115 LINE",
"15 -56 LINE SMOOTH",
"15 -147 OFFCURVE",
"75 -220 OFFCURVE",
"178 -220 CURVE SMOOTH",
"222 -220 OFFCURVE",
"260 -204 OFFCURVE",
"293 -173 CURVE SMOOTH",
"441 -30 LINE",
"397 -70 OFFCURVE",
"348 -77 OFFCURVE",
"327 -77 CURVE SMOOTH",
"287 -77 OFFCURVE",
"267 -67 OFFCURVE",
"246 -56 CURVE",
"222 -42 OFFCURVE",
"136 23 OFFCURVE",
"133 25 CURVE",
"88 59 OFFCURVE",
"63 114 OFFCURVE",
"63 160 CURVE"
);
},
{
closed = 1;
nodes = (
"263 160 LINE",
"263 111 LINE",
"277 122 OFFCURVE",
"291 141 OFFCURVE",
"291 160 CURVE"
);
},
{
closed = 1;
nodes = (
"197 423 LINE",
"197 338 LINE",
"219 338 LINE",
"291 273 LINE",
"291 509 LINE"
);
},
{
closed = 1;
nodes = (
"479 493 LINE",
"479 405 LINE",
"557 493 LINE"
);
}
);
width = 523;
}
);
unicode = 004A;
},
{
glyphname = K;
lastChange = "2014-09-19 15:51:55 +0100";
layers = (
{
anchors = (
{
name = bottom;
position = "{296, 0}";
},
{
name = ogonek;
position = "{553, -1}";
},
{
name = top;
position = "{319, 700}";
}
);
layerId = "8706937B-409E-4048-AB1C-4F6C90F3053E";
name = Front;
paths = (
{
closed = 1;
nodes = (
"404 700 LINE",
"268 414 LINE",
"234 414 LINE",
"234 700 LINE",
"62 700 LINE",
"62 598 LINE",
"130 598 LINE",
"130 107 LINE",
"63 107 LINE",
"63 0 LINE",
"234 0 LINE",
"234 300 LINE",
"298 300 LINE SMOOTH",
"312 300 OFFCURVE",
"323 295 OFFCURVE",
"330 288 CURVE",
"353 268 OFFCURVE",
"353 254 OFFCURVE",
"353 230 CURVE SMOOTH",
"353 0 LINE",
"527 0 LINE",
"527 107 LINE",
"462 107 LINE",
"462 247 LINE SMOOTH",
"462 295 OFFCURVE",
"455 331 OFFCURVE",
"439 357 CURVE SMOOTH",
"425 379 OFFCURVE",
"405 394 OFFCURVE",
"378 402 CURVE",
"477 598 LINE",
"537 598 LINE",
"537 700 LINE"
);
}
);
width = 592;
},
{
anchors = (
{
name = bottom;
position = "{296, 0}";
},
{
name = ogonek;
position = "{553, -1}";
},
{
name = top;
position = "{319, 700}";
}
);
layerId = "C85A4985-4A4B-40F2-9F5D-E307D783C1A5";
name = InsideLight;
paths = (
{
closed = 1;
nodes = (
"455 331 OFFCURVE",
"462 295 OFFCURVE",
"462 247 CURVE SMOOTH",
"462 107 LINE",
"527 107 LINE",
"548 88 LINE",
"548 153 LINE SMOOTH",
"548 234 OFFCURVE",
"489 292 CURVE SMOOTH",
"470 317 LINE",
"439 357 LINE"
);
},
{
closed = 1;
nodes = (
"234 0 LINE",
"306 -51 LINE",
"306 179 LINE",
"234 300 LINE"
);
},
{
closed = 1;
nodes = (
"527 0 LINE",
"618 -70 LINE",
"618 30 LINE",
"527 107 LINE"
);
},
{
closed = 1;
nodes = (
"234 414 LINE",
"268 414 LINE",
"306 493 LINE",
"306 557 LINE",
"325 533 LINE",
"331 546 LINE",
"331 588 LINE",
"234 700 LINE"
);
},
{
closed = 1;
nodes = (
"537 598 LINE",
"622 493 LINE",
"622 588 LINE",
"537 700 LINE"
);
}
);
width = 592;
},
{
anchors = (
{
name = bottom;
position = "{296, 0}";
},
{
name = ogonek;
position = "{553, -1}";
},
{
name = top;
position = "{319, 700}";
}
);
layerId = "2AF69027-8699-4DA7-9B20-F07C10F82EEB";
name = InsideShadow;
paths = (
{
closed = 1;
nodes = (
"378 402 LINE",
"405 394 OFFCURVE",
"425 379 OFFCURVE",
"439 357 CURVE",
"470 317 LINE",
"562 493 LINE",
"477 598 LINE"
);
},
{
closed = 1;
nodes = (
"63 0 LINE",
"159 -70 LINE",
"334 -70 LINE",
"234 0 LINE"
);
},
{
closed = 1;
nodes = (
"234 300 LINE",
"306 179 LINE",
"306 -51 LINE",
"334 -70 LINE",
"334 229 LINE",
"353 229 LINE",
"353 253 OFFCURVE",
"353 268 OFFCURVE",
"330 288 CURVE",
"323 295 OFFCURVE",
"312 300 OFFCURVE",
"298 300 CURVE SMOOTH"
);
},
{
closed = 1;
nodes = (
"353 0 LINE",
"449 -70 LINE",
"618 -70 LINE",
"527 0 LINE"
);
},
{
closed = 1;
nodes = (
"62 598 LINE",
"130 519 LINE",
"130 598 LINE"
);
},
{
closed = 1;
nodes = (
"477 598 LINE",
"562 493 LINE",
"622 493 LINE",
"537 598 LINE"
);
},
{
closed = 1;
nodes = (
"306 493 LINE",
"325 533 LINE",
"306 557 LINE"
);
}
);
width = 592;
},
{
anchors = (
{
name = bottom;
position = "{296, 0}";
},
{
name = ogonek;
position = "{553, -1}";
},
{
name = top;
position = "{319, 700}";
}
);
layerId = "251EB316-0412-4A3C-A569-0EEB43C6D9CE";
name = Shadow;
paths = (
{
closed = 1;
nodes = (
"334 229 LINE",
"334 -70 LINE",
"159 -70 LINE",
"89 -19 LINE",
"89 -72 LINE",
"26 -133 LINE",
"26 -216 LINE",
"224 -216 LINE",
"300 -116 LINE",
"353 -216 LINE",
"473 -216 LINE",
"618 -70 LINE",
"449 -70 LINE",
"353 0 LINE",
"353 229 LINE"
);
},
{
closed = 1;
nodes = (
"37 423 LINE",
"37 321 LINE",
"90 321 LINE",
"90 107 LINE",
"130 107 LINE",
"130 509 LINE"
);
},
{
closed = 1;
nodes = (
"562 493 LINE",
"470 317 LINE",
"489 292 LINE",
"622 493 LINE"
);
}
);
width = 592;
}
);
unicode = 004B;
},
{
glyphname = L;
lastChange = "2014-09-19 15:51:55 +0100";
layers = (
{
anchors = (
{
name = bottom;
position = "{263, 0}";
},
{
name = ogonek;
position = "{483, -1}";
},
{
name = top;
position = "{249, 700}";
},
{
name = topright;
position = "{505, 700}";
}
);
layerId = "8706937B-409E-4048-AB1C-4F6C90F3053E";
name = Front;
paths = (
{
closed = 1;
nodes = (
"64 700 LINE",
"64 598 LINE",
"130 598 LINE",
"130 107 LINE",
"62 107 LINE",
"62 0 LINE",
"469 0 LINE",
"469 230 LINE",
"364 230 LINE",
"364 108 LINE",
"234 108 LINE",
"233 598 LINE",
"298 598 LINE",
"298 700 LINE"
);
}
);
width = 525;
},
{
anchors = (
{
name = bottom;
position = "{263, 0}";
},
{
name = ogonek;
position = "{483, -1}";
},
{
name = top;
position = "{249, 700}";
},
{
name = topright;
position = "{505, 700}";
}
);
layerId = "C85A4985-4A4B-40F2-9F5D-E307D783C1A5";
name = InsideLight;
paths = (
{
closed = 1;
nodes = (
"234 108 LINE",
"331 108 LINE",
"331 230 LINE",
"331 426 LINE",
"233 598 LINE"
);
},
{
closed = 1;
nodes = (
"469 0 LINE",
"553 -70 LINE",
"553 152 LINE",
"469 230 LINE"
);
},
{
closed = 1;
nodes = (
"298 598 LINE",
"397 493 LINE",
"397 587 LINE",
"298 700 LINE"
);
}
);
width = 525;
},
{
anchors = (
{
name = bottom;
position = "{263, 0}";
},
{
name = ogonek;
position = "{483, -1}";
},
{
name = top;
position = "{249, 700}";
},
{
name = topright;
position = "{505, 700}";
}
);
layerId = "2AF69027-8699-4DA7-9B20-F07C10F82EEB";
name = InsideShadow;
paths = (
{
closed = 1;
nodes = (
"62 0 LINE",
"169 -70 LINE",
"553 -70 LINE",
"469 0 LINE"
);
},
{
closed = 1;
nodes = (
"64 598 LINE",
"130 519 LINE",
"130 598 LINE"
);
},
{
closed = 1;
nodes = (
"331 426 LINE",
"331 493 LINE",
"233 598 LINE"
);
},
{
closed = 1;
nodes = (
"233 598 LINE",
"331 493 LINE",
"397 493 LINE",
"298 598 LINE"
);
}
);
width = 525;
},
{
anchors = (
{
name = bottom;
position = "{263, 0}";
},
{
name = ogonek;
position = "{483, -1}";
},
{
name = top;
position = "{249, 700}";
},
{
name = topright;
position = "{505, 700}";
}
);
layerId = "251EB316-0412-4A3C-A569-0EEB43C6D9CE";
name = Shadow;
paths = (
{
closed = 1;
nodes = (
"89 -52 LINE",
"36 -103 LINE",
"36 -216 LINE",
"401 -216 LINE",
"553 -70 LINE",
"169 -70 LINE",
"89 -17 LINE"
);
},
{
closed = 1;
nodes = (
"36 423 LINE",
"36 321 LINE",
"89 321 LINE",
"89 107 LINE",
"130 107 LINE",
"130 509 LINE"
);
},
{
closed = 1;
nodes = (
"331 493 LINE",
"331 426 LINE",
"397 493 LINE"
);
}
);
width = 525;
}
);
unicode = 004C;
},
{
glyphname = M;
lastChange = "2014-09-19 15:51:55 +0100";
layers = (
{
anchors = (
{
name = ogonek;
position = "{643, -1}";
},
{
name = top;
position = "{409, 700}";
}
);
layerId = "8706937B-409E-4048-AB1C-4F6C90F3053E";
name = Front;
paths = (
{
closed = 1;
nodes = (
"608 700 LINE",
"424 277 LINE",
"233 700 LINE",
"64 700 LINE",
"64 598 LINE",
"130 598 LINE",
"130 107 LINE",
"62 107 LINE",
"62 0 LINE",
"233 0 LINE",
"233 415 LINE",
"391 76 LINE",
"460 76 LINE",
"608 421 LINE",
"608 0 LINE",
"780 0 LINE",
"780 107 LINE",
"712 107 LINE",
"712 598 LINE",
"776 598 LINE",
"776 700 LINE"
);
}
);
width = 842;
},
{
anchors = (
{
name = ogonek;
position = "{643, -1}";
},
{
name = top;
position = "{409, 700}";
}
);
layerId = "C85A4985-4A4B-40F2-9F5D-E307D783C1A5";
name = InsideLight;
paths = (
{
closed = 1;
nodes = (
"424 277 LINE",
"453 343 LINE",
"332 587 LINE SMOOTH",
"233 700 LINE"
);
},
{
closed = 1;
nodes = (
"233 0 LINE",
"288 -39 LINE",
"288 233 LINE",
"233 415 LINE"
);
},
{
closed = 1;
nodes = (
"460 76 LINE",
"487 53 LINE SMOOTH",
"512 113 LINE",
"513 204 LINE"
);
},
{
closed = 1;
nodes = (
"780 0 LINE",
"864 -70 LINE",
"864 29 LINE",
"780 107 LINE"
);
},
{
closed = 1;
nodes = (
"712 107 LINE",
"780 107 LINE",
"809 80 LINE",
"809 405 LINE",
"712 598 LINE"
);
},
{
closed = 1;
nodes = (
"776 598 LINE",
"875 493 LINE",
"875 587 LINE",
"776 700 LINE"
);
}
);
width = 842;
},
{
anchors = (
{
name = ogonek;
position = "{643, -1}";
},
{
name = top;
position = "{409, 700}";
}
);
layerId = "2AF69027-8699-4DA7-9B20-F07C10F82EEB";
name = InsideShadow;
paths = (
{
closed = 1;
nodes = (
"288 233 LINE",
"288 -39 LINE",
"335 -70 LINE",
"335 197 LINE",
"233 415 LINE"
);
},
{
closed = 1;
nodes = (
"62 0 LINE",
"169 -70 LINE",
"335 -70 LINE",
"233 0 LINE"
);
},
{
closed = 1;
nodes = (
"391 76 LINE",
"484 6 LINE",
"544 5 LINE",
"460 76 LINE"
);
},
{
closed = 1;
nodes = (
"64 598 LINE",
"130 519 LINE",
"130 598 LINE"
);
},
{
closed = 1;
nodes = (
"608 0 LINE",
"715 -70 LINE",
"864 -70 LINE",
"780 0 LINE"
);
},
{
closed = 1;
nodes = (
"513 204 LINE",
"512 113 LINE",
"487 53 LINE",
"544 5 LINE",
"608 113 LINE",
"608 421 LINE"
);
},
{
closed = 1;
nodes = (
"809 405 LINE",
"809 493 LINE",
"712 598 LINE"
);
},
{
closed = 1;
nodes = (
"712 598 LINE",
"809 493 LINE",
"875 493 LINE",
"776 598 LINE"
);
}
);
width = 842;
},
{
anchors = (
{
name = ogonek;
position = "{643, -1}";
},
{
name = top;
position = "{409, 700}";
}
);
layerId = "251EB316-0412-4A3C-A569-0EEB43C6D9CE";
name = Shadow;
paths = (
{
closed = 1;
nodes = (
"335 -70 LINE",
"169 -70 LINE",
"89 -18 LINE",
"89 -83 LINE",
"36 -134 LINE",
"36 -216 LINE",
"230 -216 LINE",
"335 -96 LINE",
"335 -173 LINE",
"517 -173 LINE",
"563 -115 LINE",
"564 -216 LINE",
"754 -216 LINE",
"864 -70 LINE",
"715 -70 LINE",
"608 0 LINE",
"608 113 LINE",
"544 5 LINE",
"484 6 LINE",
"391 76 LINE",
"335 197 LINE"
);
},
{
closed = 1;
nodes = (
"36 423 LINE",
"36 321 LINE",
"89 321 LINE",
"89 107 LINE",
"130 107 LINE",
"130 509 LINE"
);
},
{
closed = 1;
nodes = (
"809 493 LINE",
"809 405 LINE",
"875 493 LINE"
);
}
);
width = 842;
}
);
unicode = 004D;
},
{
glyphname = N;
lastChange = "2014-09-19 15:51:55 +0100";
layers = (
{
anchors = (
{
name = bottom;
position = "{329, 0}";
},
{
name = ogonek;
position = "{536, 0}";
},
{
name = top;
position = "{328, 700}";
}
);
layerId = "8706937B-409E-4048-AB1C-4F6C90F3053E";
name = Front;
paths = (
{
closed = 1;
nodes = (
"432 700 LINE",
"432 224 LINE",
"358 402 LINE",
"233 700 LINE",
"64 700 LINE",
"64 598 LINE",
"130 598 LINE",
"130 107 LINE",
"62 107 LINE",
"62 0 LINE",
"233 0 LINE",
"233 415 LINE",
"332 210 LINE",
"432 0 LINE",
"536 0 LINE",
"535 598 LINE",
"600 598 LINE",
"600 700 LINE"
);
}
);
width = 657;
},
{
anchors = (
{
name = bottom;
position = "{329, 0}";
},
{
name = ogonek;
position = "{536, 0}";
},
{
name = top;
position = "{328, 700}";
}
);
layerId = "C85A4985-4A4B-40F2-9F5D-E307D783C1A5";
name = InsideLight;
paths = (
{
closed = 1;
nodes = (
"536 0 LINE",
"633 -70 LINE",
"633 406 LINE",
"535 598 LINE"
);
},
{
closed = 1;
nodes = (
"233 0 LINE",
"302 -50 LINE",
"302 199 LINE",
"233 415 LINE"
);
},
{
closed = 1;
nodes = (
"358 402 LINE",
"384 459 LINE",
"332 587 LINE",
"233 700 LINE"
);
},
{
closed = 1;
nodes = (
"600 598 LINE",
"699 493 LINE",
"699 587 LINE",
"600 700 LINE"
);
}
);
width = 657;
},
{
anchors = (
{
name = bottom;
position = "{329, 0}";
},
{
name = ogonek;
position = "{536, 0}";
},
{
name = top;
position = "{328, 700}";
}
);
layerId = "2AF69027-8699-4DA7-9B20-F07C10F82EEB";
name = InsideShadow;
paths = (
{
closed = 1;
nodes = (
"302 199 LINE",
"302 -50 LINE",
"332 -70 LINE",
"332 210 LINE",
"233 415 LINE"
);
},
{
closed = 1;
nodes = (
"62 0 LINE",
"169 -70 LINE",
"332 -70 LINE",
"233 0 LINE"
);
},
{
closed = 1;
nodes = (
"432 0 LINE",
"539 -70 LINE",
"633 -70 LINE",
"536 0 LINE"
);
},
{
closed = 1;
nodes = (
"64 598 LINE",
"130 519 LINE",
"130 598 LINE"
);
},
{
closed = 1;
nodes = (
"358 402 LINE",
"432 224 LINE",
"432 354 LINE",
"384 459 LINE"
);
},
{
closed = 1;
nodes = (
"633 406 LINE",
"633 493 LINE",
"535 598 LINE"
);
},
{
closed = 1;
nodes = (
"535 598 LINE",
"633 493 LINE",
"699 493 LINE",
"600 598 LINE"
);
}
);
width = 657;
},
{
anchors = (
{
name = bottom;
position = "{329, 0}";
},
{
name = ogonek;
position = "{536, 0}";
},
{
name = top;
position = "{328, 700}";
}
);
layerId = "251EB316-0412-4A3C-A569-0EEB43C6D9CE";
name = Shadow;
paths = (
{
closed = 1;
nodes = (
"332 -70 LINE",
"169 -70 LINE",
"89 -18 LINE",
"89 -83 LINE",
"36 -134 LINE",
"36 -216 LINE",
"182 -216 LINE",
"292 -106 LINE",
"390 -216 LINE",
"483 -216 LINE",
"633 -70 LINE",
"539 -70 LINE",
"432 0 LINE",
"332 210 LINE"
);
},
{
closed = 1;
nodes = (
"36 423 LINE",
"36 321 LINE",
"89 321 LINE",
"89 107 LINE",
"130 107 LINE",
"130 509 LINE"
);
},
{
closed = 1;
nodes = (
"384 459 LINE",
"432 354 LINE",
"432 509 LINE"
);
},
{
closed = 1;
nodes = (
"633 493 LINE",
"633 406 LINE",
"699 493 LINE"
);
}
);
width = 657;
}
);
unicode = 004E;
},
{
glyphname = O;
lastChange = "2014-09-19 15:51:55 +0100";
layers = (
{
anchors = (
{
name = ogonek;
position = "{483, -1}";
},
{
name = top;
position = "{249, 700}";
}
);
layerId = "8706937B-409E-4048-AB1C-4F6C90F3053E";
name = Front;
paths = (
{
closed = 1;
nodes = (
"148 706 OFFCURVE",
"83 625 OFFCURVE",
"83 537 CURVE SMOOTH",
"83 160 LINE SMOOTH",
"83 114 OFFCURVE",
"114 54 OFFCURVE",
"153 25 CURVE SMOOTH",
"179 5 OFFCURVE",
"212 -8 OFFCURVE",
"251 -8 CURVE SMOOTH",
"318 -8 OFFCURVE",
"414 39 OFFCURVE",
"414 155 CURVE",
"414 557 LINE",
"414 587 OFFCURVE",
"402 616 OFFCURVE",
"382 639 CURVE SMOOTH",
"349 680 OFFCURVE",
"296 706 OFFCURVE",
"248 706 CURVE SMOOTH"
);
},
{
closed = 1;
nodes = (
"282 602 OFFCURVE",
"306 574 OFFCURVE",
"306 540 CURVE SMOOTH",
"306 172 LINE SMOOTH",
"306 153 OFFCURVE",
"303 134 OFFCURVE",
"283 114 CURVE SMOOTH",
"276 107 OFFCURVE",
"265 101 OFFCURVE",
"255 101 CURVE SMOOTH",
"205 101 OFFCURVE",
"186 130 OFFCURVE",
"186 166 CURVE SMOOTH",
"186 543 LINE SMOOTH",
"186 573 OFFCURVE",
"204 602 OFFCURVE",
"245 602 CURVE SMOOTH"
);
}
);
width = 497;
},
{
anchors = (
{
name = ogonek;
position = "{483, -1}";
},
{
name = top;
position = "{249, 700}";
}
);
layerId = "C85A4985-4A4B-40F2-9F5D-E307D783C1A5";
name = InsideLight;
paths = (
{
closed = 1;
nodes = (
"402 616 OFFCURVE",
"414 587 OFFCURVE",
"414 557 CURVE",
"414 155 LINE",
"499 78 LINE",
"499 436 LINE SMOOTH",
"499 471 OFFCURVE",
"486 500 OFFCURVE",
"467 529 CURVE SMOOTH",
"442 567 OFFCURVE",
"417 600 OFFCURVE",
"382 639 CURVE"
);
},
{
closed = 1;
nodes = (
"186 166 LINE SMOOTH",
"186 130 OFFCURVE",
"205 101 OFFCURVE",
"255 101 CURVE",
"255 386 LINE",
"186 543 LINE"
);
}
);
width = 497;
},
{
anchors = (
{
name = ogonek;
position = "{483, -1}";
},
{
name = top;
position = "{249, 700}";
}
);
layerId = "2AF69027-8699-4DA7-9B20-F07C10F82EEB";
name = InsideShadow;
paths = (
{
closed = 1;
nodes = (
"414 39 OFFCURVE",
"318 -8 OFFCURVE",
"251 -8 CURVE SMOOTH",
"212 -8 OFFCURVE",
"179 5 OFFCURVE",
"153 25 CURVE",
"156 22 OFFCURVE",
"242 -42 OFFCURVE",
"266 -56 CURVE SMOOTH",
"287 -67 OFFCURVE",
"307 -77 OFFCURVE",
"347 -77 CURVE SMOOTH",
"368 -77 OFFCURVE",
"417 -70 OFFCURVE",
"461 -30 CURVE SMOOTH",
"475 -18 OFFCURVE",
"499 16 OFFCURVE",
"499 78 CURVE",
"414 155 LINE"
);
},
{
closed = 1;
nodes = (
"204 602 OFFCURVE",
"186 573 OFFCURVE",
"186 543 CURVE",
"255 386 LINE",
"255 101 LINE",
"265 101 OFFCURVE",
"276 107 OFFCURVE",
"283 114 CURVE",
"283 437 LINE SMOOTH",
"283 456 OFFCURVE",
"293 471 OFFCURVE",
"306 482 CURVE",
"306 540 LINE SMOOTH",
"306 574 OFFCURVE",
"282 602 OFFCURVE",
"245 602 CURVE SMOOTH"
);
}
);
width = 497;
},
{
anchors = (
{
name = ogonek;
position = "{483, -1}";
},
{
name = top;
position = "{249, 700}";
}
);
layerId = "251EB316-0412-4A3C-A569-0EEB43C6D9CE";
name = Shadow;
paths = (
{
closed = 1;
nodes = (
"51 402 OFFCURVE",
"35 364 OFFCURVE",
"35 319 CURVE SMOOTH",
"35 -56 LINE SMOOTH",
"35 -147 OFFCURVE",
"95 -220 OFFCURVE",
"198 -220 CURVE SMOOTH",
"242 -220 OFFCURVE",
"280 -204 OFFCURVE",
"313 -173 CURVE SMOOTH",
"461 -30 LINE",
"417 -70 OFFCURVE",
"368 -77 OFFCURVE",
"347 -77 CURVE SMOOTH",
"307 -77 OFFCURVE",
"287 -67 OFFCURVE",
"266 -56 CURVE SMOOTH",
"242 -42 OFFCURVE",
"156 22 OFFCURVE",
"153 25 CURVE SMOOTH",
"114 54 OFFCURVE",
"83 114 OFFCURVE",
"83 160 CURVE",
"83 434 LINE"
);
},
{
closed = 1;
nodes = (
"293 471 OFFCURVE",
"283 456 OFFCURVE",
"283 437 CURVE SMOOTH",
"283 114 LINE",
"303 134 OFFCURVE",
"306 153 OFFCURVE",
"306 172 CURVE SMOOTH",
"306 482 LINE"
);
}
);
width = 497;
}
);
unicode = 004F;
},
{
glyphname = P;
lastChange = "2014-09-19 15:51:55 +0100";
layers = (
{
anchors = (
{
name = ogonek;
position = "{503, -1}";
},
{
name = top;
position = "{269, 700}";
}
);
layerId = "8706937B-409E-4048-AB1C-4F6C90F3053E";
name = Front;
paths = (
{
closed = 1;
nodes = (
"77 700 LINE",
"77 598 LINE",
"130 598 LINE",
"130 107 LINE",
"56 107 LINE",
"56 0 LINE",
"293 0 LINE",
"293 107 LINE",
"233 107 LINE",
"233 266 LINE",
"296 266 LINE SMOOTH",
"352 266 OFFCURVE",
"416 302 OFFCURVE",
"444 362 CURVE SMOOTH",
"454 383 OFFCURVE",
"460 406 OFFCURVE",
"460 434 CURVE",
"460 535 LINE",
"460 578 OFFCURVE",
"446 614 OFFCURVE",
"422 641 CURVE SMOOTH",
"391 678 OFFCURVE",
"344 700 OFFCURVE",
"294 700 CURVE SMOOTH"
);
},
{
closed = 1;
nodes = (
"335 598 OFFCURVE",
"358 576 OFFCURVE",
"358 541 CURVE SMOOTH",
"358 432 LINE SMOOTH",
"358 414 OFFCURVE",
"347 397 OFFCURVE",
"333 385 CURVE SMOOTH",
"323 376 OFFCURVE",
"311 371 OFFCURVE",
"299 371 CURVE SMOOTH",
"233 371 LINE",
"233 598 LINE",
"297 598 LINE SMOOTH"
);
}
);
width = 523;
},
{
anchors = (
{
name = ogonek;
position = "{503, -1}";
},
{
name = top;
position = "{269, 700}";
}
);
layerId = "C85A4985-4A4B-40F2-9F5D-E307D783C1A5";
name = InsideLight;
paths = (
{
closed = 1;
nodes = (
"233 107 LINE",
"293 107 LINE",
"293 0 LINE",
"385 -70 LINE",
"385 29 LINE",
"334 71 LINE",
"303 131 LINE",
"233 266 LINE"
);
},
{
closed = 1;
nodes = (
"233 371 LINE",
"299 371 LINE SMOOTH",
"311 371 OFFCURVE",
"323 376 OFFCURVE",
"333 385 CURVE",
"333 399 LINE",
"233 598 LINE"
);
},
{
closed = 1;
nodes = (
"446 614 OFFCURVE",
"460 578 OFFCURVE",
"460 535 CURVE SMOOTH",
"460 434 LINE SMOOTH",
"460 406 OFFCURVE",
"454 383 OFFCURVE",
"444 362 CURVE",
"477 340 OFFCURVE",
"531 267 OFFCURVE",
"531 267 CURVE",
"541 285 OFFCURVE",
"545 308 OFFCURVE",
"545 335 CURVE SMOOTH",
"545 430 LINE SMOOTH",
"545 466 OFFCURVE",
"533 504 OFFCURVE",
"513 531 CURVE SMOOTH",
"483 568 OFFCURVE",
"446 614 OFFCURVE",
"422 641 CURVE"
);
}
);
width = 523;
},
{
anchors = (
{
name = ogonek;
position = "{503, -1}";
},
{
name = top;
position = "{269, 700}";
}
);
layerId = "2AF69027-8699-4DA7-9B20-F07C10F82EEB";
name = InsideShadow;
paths = (
{
closed = 1;
nodes = (
"416 302 OFFCURVE",
"352 266 OFFCURVE",
"296 266 CURVE SMOOTH",
"233 266 LINE",
"334 178 LINE",
"391 178 LINE SMOOTH",
"429 178 OFFCURVE",
"464 195 OFFCURVE",
"487 213 CURVE SMOOTH",
"501 224 OFFCURVE",
"521 249 OFFCURVE",
"531 267 CURVE",
"531 267 OFFCURVE",
"477 340 OFFCURVE",
"444 362 CURVE"
);
},
{
closed = 1;
nodes = (
"56 0 LINE",
"70 -9 LINE",
"167 -70 LINE",
"385 -70 LINE",
"293 0 LINE"
);
},
{
closed = 1;
nodes = (
"334 71 LINE",
"334 178 LINE",
"233 266 LINE"
);
},
{
closed = 1;
nodes = (
"77 598 LINE",
"130 529 LINE",
"130 598 LINE"
);
},
{
closed = 1;
nodes = (
"333 399 LINE",
"333 493 LINE",
"233 598 LINE"
);
},
{
closed = 1;
nodes = (
"233 598 LINE",
"333 493 LINE",
"358 493 LINE",
"358 541 LINE SMOOTH",
"358 576 OFFCURVE",
"335 598 OFFCURVE",
"297 598 CURVE SMOOTH"
);
}
);
width = 523;
},
{
anchors = (
{
name = ogonek;
position = "{503, -1}";
},
{
name = top;
position = "{269, 700}";
}
);
layerId = "251EB316-0412-4A3C-A569-0EEB43C6D9CE";
name = Shadow;
paths = (
{
closed = 1;
nodes = (
"70 -39 LINE",
"18 -100 LINE",
"18 -216 LINE",
"239 -216 LINE",
"385 -70 LINE",
"167 -70 LINE",
"70 -9 LINE"
);
},
{
closed = 1;
nodes = (
"18 434 LINE",
"18 315 LINE",
"70 315 LINE",
"70 107 LINE",
"130 107 LINE",
"130 519 LINE"
);
},
{
closed = 1;
nodes = (
"464 195 OFFCURVE",
"429 178 OFFCURVE",
"391 178 CURVE SMOOTH",
"334 178 LINE",
"334 71 LINE",
"342 77 OFFCURVE",
"350 84 OFFCURVE",
"358 91 CURVE SMOOTH",
"487 213 LINE"
);
},
{
closed = 1;
nodes = (
"333 493 LINE",
"333 385 LINE",
"347 397 OFFCURVE",
"358 414 OFFCURVE",
"358 432 CURVE SMOOTH",
"358 493 LINE"
);
}
);
width = 523;
},
{
anchors = (
{
name = ogonek;
position = "{503, -1}";
},
{
name = top;
position = "{269, 700}";
}
);
associatedMasterId = "251EB316-0412-4A3C-A569-0EEB43C6D9CE";
layerId = "D2B64924-32A1-4D29-A06E-CED6E9BA8D9C";
name = "Sep 1 14, 16:59";
paths = (
{
closed = 1;
nodes = (
"52 -39 LINE",
"0 -100 LINE",
"0 -216 LINE",
"221 -216 LINE",
"367 -70 LINE",
"149 -70 LINE",
"52 -9 LINE"
);
},
{
closed = 1;
nodes = (
"0 434 LINE",
"0 315 LINE",
"52 315 LINE",
"52 107 LINE",
"112 107 LINE",
"112 519 LINE"
);
},
{
closed = 1;
nodes = (
"446 195 OFFCURVE",
"411 178 OFFCURVE",
"373 178 CURVE SMOOTH",
"316 178 LINE",
"316 71 LINE",
"324 77 OFFCURVE",
"332 84 OFFCURVE",
"340 91 CURVE SMOOTH",
"469 213 LINE"
);
},
{
closed = 1;
nodes = (
"315 493 LINE",
"315 385 LINE",
"329 397 OFFCURVE",
"340 414 OFFCURVE",
"340 432 CURVE SMOOTH",
"340 493 LINE"
);
}
);
width = 550;
}
);
unicode = 0050;
},
{
glyphname = Q;
lastChange = "2014-09-19 15:51:55 +0100";
layers = (
{
anchors = (
{
name = ogonek;
position = "{483, -1}";
},
{
name = top;
position = "{249, 700}";
}
);
layerId = "8706937B-409E-4048-AB1C-4F6C90F3053E";
name = Front;
paths = (
{
closed = 1;
nodes = (
"148 706 OFFCURVE",
"83 625 OFFCURVE",
"83 537 CURVE SMOOTH",
"83 145 LINE SMOOTH",
"83 72 OFFCURVE",
"142 20 OFFCURVE",
"196 0 CURVE",
"196 -166 LINE",
"368 -166 LINE",
"368 -58 LINE",
"300 -58 LINE",
"299 -1 LINE",
"357 16 OFFCURVE",
"416 65 OFFCURVE",
"416 155 CURVE",
"414 557 LINE",
"414 639 OFFCURVE",
"324 706 OFFCURVE",
"248 706 CURVE SMOOTH"
);
},
{
closed = 1;
nodes = (
"282 602 OFFCURVE",
"306 574 OFFCURVE",
"306 540 CURVE SMOOTH",
"306 172 LINE SMOOTH",
"306 153 OFFCURVE",
"305 131 OFFCURVE",
"283 114 CURVE",
"276 107 OFFCURVE",
"265 101 OFFCURVE",
"255 101 CURVE SMOOTH",
"251 101 LINE SMOOTH",
"207 101 OFFCURVE",
"186 132 OFFCURVE",
"186 166 CURVE SMOOTH",
"186 543 LINE SMOOTH",
"186 573 OFFCURVE",
"204 602 OFFCURVE",
"245 602 CURVE SMOOTH"
);
}
);
width = 497;
},
{
anchors = (
{
name = ogonek;
position = "{483, -1}";
},
{
name = top;
position = "{249, 700}";
}
);
layerId = "C85A4985-4A4B-40F2-9F5D-E307D783C1A5";
name = InsideLight;
paths = (
{
closed = 1;
nodes = (
"402 617 OFFCURVE",
"414 588 OFFCURVE",
"414 557 CURVE",
"416 155 LINE",
"499 78 LINE",
"499 436 LINE SMOOTH",
"499 471 OFFCURVE",
"488 501 OFFCURVE",
"467 529 CURVE SMOOTH",
"438 567 OFFCURVE",
"411 603 OFFCURVE",
"382 640 CURVE"
);
},
{
closed = 1;
nodes = (
"368 -166 LINE",
"452 -237 LINE",
"452 -136 LINE",
"368 -58 LINE"
);
},
{
closed = 1;
nodes = (
"300 -58 LINE",
"368 -58 LINE",
"397 -85 LINE",
"397 -70 LINE",
"299 -1 LINE"
);
},
{
closed = 1;
nodes = (
"186 166 LINE SMOOTH",
"186 132 OFFCURVE",
"207 101 OFFCURVE",
"251 101 CURVE SMOOTH",
"255 101 LINE",
"255 386 LINE",
"186 543 LINE"
);
}
);
width = 497;
},
{
anchors = (
{
name = ogonek;
position = "{483, -1}";
},
{
name = top;
position = "{249, 700}";
}
);
layerId = "2AF69027-8699-4DA7-9B20-F07C10F82EEB";
name = InsideShadow;
paths = (
{
closed = 1;
nodes = (
"204 602 OFFCURVE",
"186 573 OFFCURVE",
"186 543 CURVE",
"255 386 LINE",
"255 101 LINE",
"265 101 OFFCURVE",
"276 107 OFFCURVE",
"283 114 CURVE",
"283 437 LINE SMOOTH",
"283 456 OFFCURVE",
"293 471 OFFCURVE",
"306 482 CURVE",
"306 540 LINE SMOOTH",
"306 574 OFFCURVE",
"282 602 OFFCURVE",
"245 602 CURVE SMOOTH"
);
},
{
closed = 1;
nodes = (
"196 -166 LINE",
"303 -237 LINE",
"452 -237 LINE",
"368 -166 LINE"
);
},
{
closed = 1;
nodes = (
"416 65 OFFCURVE",
"357 16 OFFCURVE",
"299 -1 CURVE",
"397 -70 LINE",
"436 -70 OFFCURVE",
"499 -6 OFFCURVE",
"499 78 CURVE",
"416 155 LINE"
);
}
);
width = 497;
},
{
anchors = (
{
name = ogonek;
position = "{483, -1}";
},
{
name = top;
position = "{249, 700}";
}
);
layerId = "251EB316-0412-4A3C-A569-0EEB43C6D9CE";
name = Shadow;
paths = (
{
closed = 1;
nodes = (
"51 402 OFFCURVE",
"35 364 OFFCURVE",
"35 319 CURVE SMOOTH",
"35 -56 LINE SMOOTH",
"35 -133 OFFCURVE",
"78 -197 OFFCURVE",
"155 -215 CURVE",
"155 -383 LINE",
"300 -382 LINE",
"452 -237 LINE",
"303 -237 LINE",
"196 -166 LINE",
"196 0 LINE",
"142 20 OFFCURVE",
"83 72 OFFCURVE",
"83 145 CURVE SMOOTH",
"83 434 LINE"
);
},
{
closed = 1;
nodes = (
"293 471 OFFCURVE",
"283 456 OFFCURVE",
"283 437 CURVE SMOOTH",
"283 114 LINE",
"305 131 OFFCURVE",
"306 153 OFFCURVE",
"306 172 CURVE SMOOTH",
"306 482 LINE"
);
}
);
width = 497;
}
);
unicode = 0051;
},
{
glyphname = R;
lastChange = "2014-09-19 15:51:55 +0100";
layers = (
{
anchors = (
{
name = bottom;
position = "{296, 0}";
},
{
name = ogonek;
position = "{493, -1}";
},
{
name = top;
position = "{259, 700}";
}
);
layerId = "8706937B-409E-4048-AB1C-4F6C90F3053E";
name = Front;
paths = (
{
closed = 1;
nodes = (
"64 700 LINE",
"64 598 LINE",
"130 598 LINE",
"130 107 LINE",
"62 107 LINE",
"62 0 LINE",
"234 0 LINE",
"234 264 LINE",
"308 264 LINE",
"419 0 LINE",
"571 0 LINE",
"571 107 LINE",
"499 107 LINE",
"399 299 LINE",
"417 315 OFFCURVE",
"433 336 OFFCURVE",
"444 360 CURVE SMOOTH",
"453 379 OFFCURVE",
"459 402 OFFCURVE",
"459 430 CURVE SMOOTH",
"460 533 LINE SMOOTH",
"460 576 OFFCURVE",
"446 612 OFFCURVE",
"422 639 CURVE SMOOTH",
"392 675 OFFCURVE",
"346 700 OFFCURVE",
"298 700 CURVE SMOOTH"
);
},
{
closed = 1;
nodes = (
"335 598 OFFCURVE",
"358 574 OFFCURVE",
"358 539 CURVE SMOOTH",
"358 430 LINE SMOOTH",
"358 412 OFFCURVE",
"347 395 OFFCURVE",
"333 383 CURVE SMOOTH",
"323 374 OFFCURVE",
"311 369 OFFCURVE",
"299 369 CURVE SMOOTH",
"233 369 LINE",
"233 598 LINE",
"297 598 LINE SMOOTH"
);
}
);
width = 591;
},
{
anchors = (
{
name = bottom;
position = "{296, 0}";
},
{
name = ogonek;
position = "{493, -1}";
},
{
name = top;
position = "{259, 700}";
}
);
layerId = "C85A4985-4A4B-40F2-9F5D-E307D783C1A5";
name = InsideLight;
paths = (
{
closed = 1;
nodes = (
"446 612 OFFCURVE",
"460 576 OFFCURVE",
"460 533 CURVE SMOOTH",
"459 430 LINE SMOOTH",
"459 402 OFFCURVE",
"453 379 OFFCURVE",
"444 360 CURVE",
"531 265 LINE",
"541 283 OFFCURVE",
"545 306 OFFCURVE",
"545 333 CURVE SMOOTH",
"545 428 LINE SMOOTH",
"545 464 OFFCURVE",
"533 502 OFFCURVE",
"513 529 CURVE SMOOTH",
"483 566 OFFCURVE",
"446 612 OFFCURVE",
"422 639 CURVE"
);
},
{
closed = 1;
nodes = (
"234 0 LINE",
"333 -70 LINE",
"333 107 LINE",
"234 264 LINE"
);
},
{
closed = 1;
nodes = (
"571 0 LINE",
"663 -70 LINE",
"663 27 LINE",
"571 107 LINE"
);
},
{
closed = 1;
nodes = (
"499 107 LINE",
"545 107 LINE",
"486 204 LINE SMOOTH",
"399 299 LINE"
);
},
{
closed = 1;
nodes = (
"233 369 LINE",
"299 369 LINE",
"299 433 LINE SMOOTH",
"299 449 OFFCURVE",
"292 476 OFFCURVE",
"284 493 CURVE SMOOTH",
"233 598 LINE"
);
}
);
width = 591;
},
{
anchors = (
{
name = bottom;
position = "{296, 0}";
},
{
name = ogonek;
position = "{493, -1}";
},
{
name = top;
position = "{259, 700}";
}
);
layerId = "2AF69027-8699-4DA7-9B20-F07C10F82EEB";
name = InsideShadow;
paths = (
{
closed = 1;
nodes = (
"284 493 LINE SMOOTH",
"292 476 OFFCURVE",
"299 449 OFFCURVE",
"299 433 CURVE SMOOTH",
"299 369 LINE",
"311 369 OFFCURVE",
"323 374 OFFCURVE",
"333 383 CURVE",
"333 493 LINE",
"233 598 LINE"
);
},
{
closed = 1;
nodes = (
"62 0 LINE",
"165 -70 LINE",
"333 -70 LINE",
"234 0 LINE"
);
},
{
closed = 1;
nodes = (
"333 107 LINE",
"333 178 LINE",
"234 264 LINE"
);
},
{
closed = 1;
nodes = (
"234 264 LINE",
"333 178 LINE",
"344 178 LINE",
"308 264 LINE"
);
},
{
closed = 1;
nodes = (
"419 0 LINE",
"510 -70 LINE",
"663 -70 LINE",
"571 0 LINE"
);
},
{
closed = 1;
nodes = (
"64 598 LINE",
"130 519 LINE",
"130 598 LINE"
);
},
{
closed = 1;
nodes = (
"433 336 OFFCURVE",
"417 315 OFFCURVE",
"399 299 CURVE",
"486 204 LINE",
"504 220 OFFCURVE",
"520 241 OFFCURVE",
"531 265 CURVE",
"444 360 LINE"
);
},
{
closed = 1;
nodes = (
"233 598 LINE",
"333 493 LINE",
"358 493 LINE",
"358 539 LINE SMOOTH",
"358 574 OFFCURVE",
"335 598 OFFCURVE",
"297 598 CURVE SMOOTH"
);
}
);
width = 591;
},
{
anchors = (
{
name = bottom;
position = "{296, 0}";
},
{
name = ogonek;
position = "{493, -1}";
},
{
name = top;
position = "{259, 700}";
}
);
layerId = "251EB316-0412-4A3C-A569-0EEB43C6D9CE";
name = Shadow;
paths = (
{
closed = 1;
nodes = (
"333 178 LINE",
"333 -70 LINE",
"165 -70 LINE",
"89 -17 LINE",
"89 -83 LINE",
"36 -134 LINE",
"36 -216 LINE",
"276 -216 LINE",
"312 -170 LINE",
"312 -216 LINE",
"518 -216 LINE",
"663 -70 LINE",
"510 -70 LINE",
"419 0 LINE",
"344 178 LINE"
);
},
{
closed = 1;
nodes = (
"36 423 LINE",
"36 321 LINE",
"89 321 LINE",
"89 107 LINE",
"130 107 LINE",
"130 509 LINE"
);
},
{
closed = 1;
nodes = (
"333 493 LINE",
"333 383 LINE",
"347 395 OFFCURVE",
"358 412 OFFCURVE",
"358 430 CURVE SMOOTH",
"358 493 LINE"
);
}
);
width = 591;
}
);
unicode = 0052;
},
{
glyphname = S;
lastChange = "2014-09-19 15:51:55 +0100";
layers = (
{
anchors = (
{
name = bottom;
position = "{280, 0}";
},
{
name = ogonek;
position = "{513, -1}";
},
{
name = top;
position = "{279, 700}";
}
);
layerId = "8706937B-409E-4048-AB1C-4F6C90F3053E";
name = Front;
paths = (
{
closed = 1;
nodes = (
"226 540 LINE SMOOTH",
"227 574 OFFCURVE",
"247 602 OFFCURVE",
"283 602 CURVE SMOOTH",
"324 602 OFFCURVE",
"346 581 OFFCURVE",
"346 543 CURVE SMOOTH",
"346 463 LINE",
"449 463 LINE",
"447 557 LINE",
"447 588 OFFCURVE",
"434 615 OFFCURVE",
"415 639 CURVE SMOOTH",
"382 679 OFFCURVE",
"329 706 OFFCURVE",
"281 706 CURVE SMOOTH",
"181 706 OFFCURVE",
"116 625 OFFCURVE",
"116 537 CURVE SMOOTH",
"116 478 LINE",
"138 452 LINE",
"339 219 LINE",
"339 172 LINE SMOOTH",
"339 150 OFFCURVE",
"330 128 OFFCURVE",
"316 114 CURVE",
"308 107 OFFCURVE",
"299 101 OFFCURVE",
"288 101 CURVE SMOOTH",
"240 101 OFFCURVE",
"219 132 OFFCURVE",
"219 166 CURVE SMOOTH",
"219 266 LINE",
"31 266 LINE",
"31 159 LINE",
"116 159 LINE",
"116 105 OFFCURVE",
"146 56 OFFCURVE",
"187 25 CURVE SMOOTH",
"214 5 OFFCURVE",
"249 -8 OFFCURVE",
"284 -8 CURVE SMOOTH",
"351 -8 OFFCURVE",
"449 39 OFFCURVE",
"449 155 CURVE SMOOTH",
"449 242 LINE",
"226 507 LINE"
);
}
);
width = 520;
},
{
anchors = (
{
name = bottom;
position = "{280, 0}";
},
{
name = ogonek;
position = "{513, -1}";
},
{
name = top;
position = "{279, 700}";
}
);
layerId = "C85A4985-4A4B-40F2-9F5D-E307D783C1A5";
name = InsideLight;
paths = (
{
closed = 1;
nodes = (
"226 507 LINE",
"449 242 LINE",
"534 172 LINE",
"427 301 LINE",
"366 353 LINE",
"251 490 LINE",
"226 540 LINE"
);
},
{
closed = 1;
nodes = (
"219 166 LINE",
"219 132 OFFCURVE",
"240 101 OFFCURVE",
"288 101 CURVE",
"288 224 LINE",
"219 266 LINE"
);
},
{
closed = 1;
nodes = (
"449 155 LINE",
"532 78 LINE",
"534 172 LINE",
"449 242 LINE"
);
},
{
closed = 1;
nodes = (
"434 615 OFFCURVE",
"447 588 OFFCURVE",
"447 557 CURVE",
"449 463 LINE",
"535 394 LINE",
"535 425 LINE SMOOTH",
"535 460 OFFCURVE",
"520 500 OFFCURVE",
"500 529 CURVE SMOOTH",
"453 598 OFFCURVE",
"444 607 OFFCURVE",
"415 639 CURVE"
);
}
);
width = 520;
},
{
anchors = (
{
name = bottom;
position = "{280, 0}";
},
{
name = ogonek;
position = "{513, -1}";
},
{
name = top;
position = "{279, 700}";
}
);
layerId = "2AF69027-8699-4DA7-9B20-F07C10F82EEB";
name = InsideShadow;
paths = (
{
closed = 1;
nodes = (
"449 39 OFFCURVE",
"351 -8 OFFCURVE",
"284 -8 CURVE SMOOTH",
"249 -8 OFFCURVE",
"214 5 OFFCURVE",
"187 25 CURVE",
"299 -56 LINE",
"318 -71 OFFCURVE",
"340 -77 OFFCURVE",
"380 -77 CURVE SMOOTH",
"401 -77 OFFCURVE",
"455 -81 OFFCURVE",
"494 -30 CURVE SMOOTH",
"505 -15 OFFCURVE",
"532 16 OFFCURVE",
"532 78 CURVE",
"449 155 LINE"
);
},
{
closed = 1;
nodes = (
"288 101 LINE",
"298 101 OFFCURVE",
"309 107 OFFCURVE",
"316 114 CURVE",
"316 207 LINE",
"288 224 LINE"
);
},
{
closed = 1;
nodes = (
"247 602 OFFCURVE",
"227 574 OFFCURVE",
"226 540 CURVE",
"251 490 LINE",
"366 353 LINE",
"427 301 LINE",
"311 447 LINE",
"311 476 LINE",
"312 502 OFFCURVE",
"327 522 OFFCURVE",
"346 527 CURVE",
"346 543 LINE",
"346 581 OFFCURVE",
"324 602 OFFCURVE",
"283 602 CURVE SMOOTH"
);
},
{
closed = 1;
nodes = (
"346 463 LINE",
"439 394 LINE",
"535 394 LINE",
"449 463 LINE"
);
},
{
closed = 1;
nodes = (
"31 159 LINE",
"187 25 LINE",
"146 56 OFFCURVE",
"116 105 OFFCURVE",
"116 159 CURVE"
);
}
);
width = 520;
},
{
anchors = (
{
name = bottom;
position = "{280, 0}";
},
{
name = ogonek;
position = "{513, -1}";
},
{
name = top;
position = "{279, 700}";
}
);
layerId = "251EB316-0412-4A3C-A569-0EEB43C6D9CE";
name = Shadow;
paths = (
{
closed = 1;
nodes = (
"327 522 OFFCURVE",
"312 502 OFFCURVE",
"311 476 CURVE",
"311 447 LINE",
"427 301 LINE",
"535 394 LINE",
"439 394 LINE",
"346 463 LINE",
"346 527 LINE"
);
},
{
closed = 1;
nodes = (
"219 266 LINE",
"316 207 LINE",
"316 114 LINE",
"331 127 OFFCURVE",
"339 137 OFFCURVE",
"339 172 CURVE SMOOTH",
"339 219 LINE",
"138 452 LINE",
"92 420 OFFCURVE",
"58 364 OFFCURVE",
"58 319 CURVE SMOOTH",
"58 266 LINE"
);
},
{
closed = 1;
nodes = (
"340 -77 OFFCURVE",
"318 -71 OFFCURVE",
"299 -56 CURVE",
"187 25 LINE",
"50 143 LINE",
"5 102 LINE",
"5 0 LINE",
"58 0 LINE",
"58 -56 LINE SMOOTH",
"58 -147 OFFCURVE",
"121 -220 OFFCURVE",
"224 -220 CURVE SMOOTH",
"268 -220 OFFCURVE",
"310 -201 OFFCURVE",
"346 -173 CURVE SMOOTH",
"411 -122 OFFCURVE",
"421 -115 OFFCURVE",
"485 -40 CURVE",
"447 -80 OFFCURVE",
"399 -77 OFFCURVE",
"380 -77 CURVE SMOOTH"
);
},
{
closed = 1;
nodes = (
"488 -37 OFFCURVE",
"491 -34 OFFCURVE",
"494 -30 CURVE",
"485 -40 LINE"
);
}
);
width = 520;
}
);
unicode = 0053;
},
{
glyphname = T;
lastChange = "2014-09-19 15:51:55 +0100";
layers = (
{
anchors = (
{
name = bottom;
position = "{303, 0}";
},
{
name = center;
position = "{303, 350}";
},
{
name = ogonek;
position = "{533, -1}";
},
{
name = top;
position = "{299, 700}";
}
);
layerId = "8706937B-409E-4048-AB1C-4F6C90F3053E";
name = Front;
paths = (
{
closed = 1;
nodes = (
"66 700 LINE",
"65 468 LINE",
"171 468 LINE",
"171 598 LINE",
"250 598 LINE",
"250 107 LINE",
"165 107 LINE",
"165 0 LINE",
"433 0 LINE",
"433 107 LINE",
"355 107 LINE",
"355 598 LINE",
"434 598 LINE",
"434 468 LINE",
"540 468 LINE",
"540 700 LINE"
);
}
);
width = 605;
},
{
anchors = (
{
name = bottom;
position = "{303, 0}";
},
{
name = center;
position = "{303, 350}";
},
{
name = ogonek;
position = "{533, -1}";
},
{
name = top;
position = "{299, 700}";
}
);
layerId = "C85A4985-4A4B-40F2-9F5D-E307D783C1A5";
name = InsideLight;
paths = (
{
closed = 1;
nodes = (
"355 107 LINE",
"433 107 LINE",
"455 87 LINE",
"455 226 LINE",
"396 369 LINE",
"396 493 LINE",
"355 598 LINE"
);
},
{
closed = 1;
nodes = (
"433 0 LINE",
"524 -70 LINE",
"524 28 LINE",
"433 107 LINE"
);
},
{
closed = 1;
nodes = (
"171 468 LINE",
"250 391 LINE",
"250 406 LINE",
"171 598 LINE"
);
},
{
closed = 1;
nodes = (
"540 468 LINE",
"626 371 LINE",
"626 587 LINE",
"540 700 LINE"
);
}
);
width = 605;
},
{
anchors = (
{
name = bottom;
position = "{303, 0}";
},
{
name = center;
position = "{303, 350}";
},
{
name = ogonek;
position = "{533, -1}";
},
{
name = top;
position = "{299, 700}";
}
);
layerId = "2AF69027-8699-4DA7-9B20-F07C10F82EEB";
name = InsideShadow;
paths = (
{
closed = 1;
nodes = (
"396 493 LINE",
"396 369 LINE",
"455 226 LINE",
"455 447 LINE",
"434 468 LINE",
"434 509 LINE",
"355 598 LINE"
);
},
{
closed = 1;
nodes = (
"165 0 LINE",
"272 -70 LINE",
"524 -70 LINE",
"433 0 LINE"
);
},
{
closed = 1;
nodes = (
"65 468 LINE",
"161 369 LINE",
"250 369 LINE",
"250 391 LINE",
"171 468 LINE"
);
},
{
closed = 1;
nodes = (
"250 406 LINE",
"250 509 LINE",
"171 598 LINE"
);
},
{
closed = 1;
nodes = (
"171 598 LINE",
"250 509 LINE",
"250 598 LINE"
);
},
{
closed = 1;
nodes = (
"355 598 LINE",
"434 509 LINE",
"434 598 LINE"
);
},
{
closed = 1;
nodes = (
"434 468 LINE",
"529 371 LINE",
"626 371 LINE",
"540 468 LINE"
);
}
);
width = 605;
},
{
anchors = (
{
name = bottom;
position = "{303, 0}";
},
{
name = center;
position = "{303, 350}";
},
{
name = ogonek;
position = "{533, -1}";
},
{
name = top;
position = "{299, 700}";
}
);
layerId = "251EB316-0412-4A3C-A569-0EEB43C6D9CE";
name = Shadow;
paths = (
{
closed = 1;
nodes = (
"12 500 LINE",
"12 240 LINE",
"115 240 LINE",
"192 315 LINE",
"192 107 LINE",
"250 107 LINE",
"250 369 LINE",
"161 369 LINE",
"65 468 LINE",
"65 551 LINE"
);
},
{
closed = 1;
nodes = (
"192 -83 LINE",
"139 -134 LINE",
"139 -216 LINE",
"374 -216 LINE",
"524 -70 LINE",
"272 -70 LINE",
"192 -17 LINE"
);
},
{
closed = 1;
nodes = (
"455 226 LINE",
"486 226 LINE",
"626 371 LINE",
"529 371 LINE",
"455 447 LINE"
);
}
);
width = 605;
}
);
unicode = 0054;
},
{
glyphname = U;
lastChange = "2014-09-19 15:51:55 +0100";
layers = (
{
anchors = (
{
name = ogonek;
position = "{318, -1}";
},
{
name = top;
position = "{284, 700}";
}
);
layerId = "8706937B-409E-4048-AB1C-4F6C90F3053E";
name = Front;
paths = (
{
closed = 1;
nodes = (
"53 700 LINE",
"53 598 LINE",
"119 598 LINE",
"119 163 LINE SMOOTH",
"119 113 OFFCURVE",
"150 54 OFFCURVE",
"189 25 CURVE SMOOTH",
"216 5 OFFCURVE",
"248 -8 OFFCURVE",
"287 -8 CURVE SMOOTH",
"354 -8 OFFCURVE",
"452 39 OFFCURVE",
"448 155 CURVE",
"448 598 LINE",
"514 598 LINE",
"514 700 LINE",
"342 700 LINE",
"342 172 LINE SMOOTH",
"342 153 OFFCURVE",
"341 131 OFFCURVE",
"319 114 CURVE",
"312 107 OFFCURVE",
"301 101 OFFCURVE",
"291 101 CURVE SMOOTH",
"287 101 LINE SMOOTH",
"243 101 OFFCURVE",
"222 132 OFFCURVE",
"222 166 CURVE SMOOTH",
"222 700 LINE"
);
}
);
width = 568;
},
{
anchors = (
{
name = ogonek;
position = "{318, -1}";
},
{
name = top;
position = "{284, 700}";
}
);
layerId = "C85A4985-4A4B-40F2-9F5D-E307D783C1A5";
name = InsideLight;
paths = (
{
closed = 1;
nodes = (
"448 155 LINE",
"533 78 LINE",
"533 426 LINE",
"448 598 LINE"
);
},
{
closed = 1;
nodes = (
"222 166 LINE SMOOTH",
"222 132 OFFCURVE",
"243 101 OFFCURVE",
"287 101 CURVE SMOOTH",
"291 101 LINE",
"291 496 LINE",
"319 460 LINE",
"319 587 LINE",
"222 700 LINE"
);
},
{
closed = 1;
nodes = (
"514 598 LINE",
"613 493 LINE",
"613 587 LINE",
"514 700 LINE"
);
}
);
width = 568;
},
{
anchors = (
{
name = ogonek;
position = "{318, -1}";
},
{
name = top;
position = "{284, 700}";
}
);
layerId = "2AF69027-8699-4DA7-9B20-F07C10F82EEB";
name = InsideShadow;
paths = (
{
closed = 1;
nodes = (
"452 39 OFFCURVE",
"354 -8 OFFCURVE",
"287 -8 CURVE SMOOTH",
"248 -8 OFFCURVE",
"216 5 OFFCURVE",
"189 25 CURVE",
"216 5 OFFCURVE",
"278 -42 OFFCURVE",
"302 -56 CURVE SMOOTH",
"323 -67 OFFCURVE",
"343 -77 OFFCURVE",
"383 -77 CURVE SMOOTH",
"404 -77 OFFCURVE",
"453 -70 OFFCURVE",
"497 -30 CURVE SMOOTH",
"511 -18 OFFCURVE",
"535 16 OFFCURVE",
"533 78 CURVE",
"448 155 LINE"
);
},
{
closed = 1;
nodes = (
"53 598 LINE",
"119 519 LINE",
"119 598 LINE"
);
},
{
closed = 1;
nodes = (
"448 598 LINE",
"533 426 LINE",
"533 493 LINE",
"613 493 LINE",
"514 598 LINE"
);
},
{
closed = 1;
nodes = (
"291 496 LINE",
"291 101 LINE",
"301 101 OFFCURVE",
"312 107 OFFCURVE",
"319 114 CURVE",
"319 460 LINE"
);
}
);
width = 568;
},
{
anchors = (
{
name = ogonek;
position = "{318, -1}";
},
{
name = top;
position = "{284, 700}";
}
);
layerId = "251EB316-0412-4A3C-A569-0EEB43C6D9CE";
name = Shadow;
paths = (
{
closed = 1;
nodes = (
"25 424 LINE",
"25 322 LINE",
"71 322 LINE",
"71 319 LINE",
"71 -56 LINE SMOOTH",
"71 -147 OFFCURVE",
"131 -220 OFFCURVE",
"234 -220 CURVE SMOOTH",
"278 -220 OFFCURVE",
"316 -204 OFFCURVE",
"349 -173 CURVE SMOOTH",
"497 -30 LINE",
"453 -70 OFFCURVE",
"404 -77 OFFCURVE",
"383 -77 CURVE SMOOTH",
"343 -77 OFFCURVE",
"323 -67 OFFCURVE",
"302 -56 CURVE",
"278 -42 OFFCURVE",
"192 22 OFFCURVE",
"189 25 CURVE",
"150 54 OFFCURVE",
"119 113 OFFCURVE",
"119 163 CURVE SMOOTH",
"119 509 LINE"
);
},
{
closed = 1;
nodes = (
"319 460 LINE",
"319 114 LINE",
"341 131 OFFCURVE",
"342 153 OFFCURVE",
"342 172 CURVE SMOOTH",
"342 500 LINE"
);
},
{
closed = 1;
nodes = (
"533 493 LINE",
"533 426 LINE",
"613 493 LINE"
);
}
);
width = 568;
}
);
unicode = 0055;
},
{
glyphname = V;
lastChange = "2014-09-19 15:51:55 +0100";
layers = (
{
anchors = (
{
name = ogonek;
position = "{523, -1}";
},
{
name = top;
position = "{289, 700}";
}
);
layerId = "8706937B-409E-4048-AB1C-4F6C90F3053E";
name = Front;
paths = (
{
closed = 1;
nodes = (
"362 549 LINE",
"330 343 LINE",
"301 157 LINE",
"300 157 LINE",
"211 700 LINE",
"18 700 LINE",
"18 598 LINE",
"122 598 LINE",
"227 0 LINE",
"372 0 LINE",
"478 598 LINE",
"573 598 LINE",
"573 699 LINE",
"385 700 LINE"
);
}
);
width = 566;
},
{
anchors = (
{
name = ogonek;
position = "{523, -1}";
},
{
name = top;
position = "{289, 700}";
}
);
layerId = "C85A4985-4A4B-40F2-9F5D-E307D783C1A5";
name = InsideLight;
paths = (
{
closed = 1;
nodes = (
"372 0 LINE",
"464 -70 LINE",
"550 393 LINE",
"478 598 LINE"
);
},
{
closed = 1;
nodes = (
"300 157 LINE",
"301 157 LINE",
"330 343 LINE",
"293 544 LINE",
"322 516 LINE",
"311 587 LINE",
"211 700 LINE"
);
},
{
closed = 1;
nodes = (
"573 598 LINE",
"659 493 LINE",
"659 587 LINE",
"573 699 LINE"
);
}
);
width = 566;
},
{
anchors = (
{
name = ogonek;
position = "{523, -1}";
},
{
name = top;
position = "{289, 700}";
}
);
layerId = "2AF69027-8699-4DA7-9B20-F07C10F82EEB";
name = InsideShadow;
paths = (
{
closed = 1;
nodes = (
"478 598 LINE",
"550 393 LINE",
"569 493 LINE",
"659 493 LINE",
"573 598 LINE"
);
},
{
closed = 1;
nodes = (
"227 0 LINE",
"323 -70 LINE",
"464 -70 LINE",
"372 0 LINE"
);
},
{
closed = 1;
nodes = (
"18 598 LINE",
"120 493 LINE",
"140 493 LINE",
"122 598 LINE"
);
},
{
closed = 1;
nodes = (
"330 343 LINE",
"322 516 LINE",
"293 544 LINE"
);
}
);
width = 566;
},
{
anchors = (
{
name = ogonek;
position = "{523, -1}";
},
{
name = top;
position = "{289, 700}";
}
);
layerId = "251EB316-0412-4A3C-A569-0EEB43C6D9CE";
name = Shadow;
paths = (
{
closed = 1;
nodes = (
"-35 489 LINE",
"-35 378 LINE",
"76 378 LINE",
"181 -216 LINE",
"394 -216 LINE",
"464 -70 LINE",
"323 -70 LINE",
"227 0 LINE",
"140 493 LINE",
"120 493 LINE",
"38 579 LINE"
);
},
{
closed = 1;
nodes = (
"322 516 LINE",
"330 343 LINE",
"362 549 LINE"
);
},
{
closed = 1;
nodes = (
"569 493 LINE",
"550 393 LINE",
"659 493 LINE"
);
}
);
width = 566;
}
);
unicode = 0056;
},
{
glyphname = W;
lastChange = "2014-09-19 15:51:55 +0100";
layers = (
{
anchors = (
{
name = ogonek;
position = "{683, -1}";
},
{
name = top;
position = "{449, 700}";
}
);
layerId = "8706937B-409E-4048-AB1C-4F6C90F3053E";
name = Front;
paths = (
{
closed = 1;
nodes = (
"609 157 LINE",
"520 700 LINE",
"375 700 LINE",
"290 157 LINE",
"201 700 LINE",
"8 700 LINE",
"8 598 LINE",
"112 598 LINE",
"217 0 LINE",
"362 0 LINE",
"450 495 LINE",
"503 186 LINE",
"536 0 LINE",
"681 0 LINE",
"787 598 LINE",
"897 598 LINE",
"897 699 LINE",
"694 700 LINE"
);
}
);
width = 885;
},
{
anchors = (
{
name = ogonek;
position = "{683, -1}";
},
{
name = top;
position = "{449, 700}";
}
);
layerId = "C85A4985-4A4B-40F2-9F5D-E307D783C1A5";
name = InsideLight;
paths = (
{
closed = 1;
nodes = (
"681 0 LINE",
"773 -70 LINE",
"859 387 LINE",
"787 598 LINE"
);
},
{
closed = 1;
nodes = (
"362 0 LINE",
"454 -70 LINE",
"461 -35 LINE",
"435 162 LINE",
"412 280 LINE"
);
},
{
closed = 1;
nodes = (
"290 157 LINE",
"320 341 LINE",
"284 542 LINE",
"312 516 LINE",
"301 583 LINE",
"201 700 LINE"
);
},
{
closed = 1;
nodes = (
"609 157 LINE",
"639 341 LINE",
"603 542 LINE",
"631 516 LINE",
"620 583 LINE",
"520 700 LINE"
);
},
{
closed = 1;
nodes = (
"897 598 LINE",
"983 493 LINE",
"983 587 LINE",
"897 699 LINE"
);
}
);
width = 885;
},
{
anchors = (
{
name = ogonek;
position = "{683, -1}";
},
{
name = top;
position = "{449, 700}";
}
);
layerId = "2AF69027-8699-4DA7-9B20-F07C10F82EEB";
name = InsideShadow;
paths = (
{
closed = 1;
nodes = (
"412 280 LINE",
"435 162 LINE",
"461 -35 LINE",
"503 186 LINE",
"450 495 LINE"
);
},
{
closed = 1;
nodes = (
"217 0 LINE",
"313 -70 LINE",
"454 -70 LINE",
"362 0 LINE"
);
},
{
closed = 1;
nodes = (
"8 598 LINE",
"110 493 LINE",
"130 493 LINE",
"112 598 LINE"
);
},
{
closed = 1;
nodes = (
"536 0 LINE",
"632 -70 LINE",
"773 -70 LINE",
"681 0 LINE"
);
},
{
closed = 1;
nodes = (
"320 341 LINE",
"330 409 LINE",
"312 516 LINE",
"284 542 LINE"
);
},
{
closed = 1;
nodes = (
"639 341 LINE",
"649 409 LINE",
"631 516 LINE",
"603 542 LINE"
);
},
{
closed = 1;
nodes = (
"859 387 LINE",
"878 493 LINE",
"787 598 LINE"
);
},
{
closed = 1;
nodes = (
"787 598 LINE",
"878 493 LINE",
"983 493 LINE",
"897 598 LINE"
);
}
);
width = 885;
},
{
anchors = (
{
name = ogonek;
position = "{683, -1}";
},
{
name = top;
position = "{449, 700}";
}
);
layerId = "251EB316-0412-4A3C-A569-0EEB43C6D9CE";
name = Shadow;
paths = (
{
closed = 1;
nodes = (
"-45 492 LINE",
"-45 381 LINE",
"66 381 LINE",
"171 -216 LINE",
"384 -216 LINE",
"454 -70 LINE",
"313 -70 LINE",
"217 0 LINE",
"130 493 LINE",
"110 493 LINE",
"28 579 LINE"
);
},
{
closed = 1;
nodes = (
"461 -35 LINE",
"490 -216 LINE",
"703 -216 LINE",
"773 -70 LINE",
"632 -70 LINE",
"536 0 LINE",
"503 186 LINE"
);
},
{
closed = 1;
nodes = (
"312 516 LINE",
"330 409 LINE",
"352 549 LINE"
);
},
{
closed = 1;
nodes = (
"631 516 LINE",
"649 409 LINE",
"671 549 LINE"
);
},
{
closed = 1;
nodes = (
"878 493 LINE",
"859 387 LINE",
"983 493 LINE"
);
}
);
width = 885;
}
);
unicode = 0057;
},
{
glyphname = X;
lastChange = "2014-09-19 15:51:55 +0100";
layers = (
{
anchors = (
{
name = ogonek;
position = "{513, -1}";
},
{
name = top;
position = "{279, 700}";
}
);
layerId = "8706937B-409E-4048-AB1C-4F6C90F3053E";
name = Front;
paths = (
{
closed = 1;
nodes = (
"338 700 LINE",
"289 414 LINE",
"218 700 LINE",
"49 700 LINE",
"49 598 LINE",
"115 598 LINE",
"135 517 LINE",
"177 370 LINE",
"143 339 OFFCURVE",
"124 293 OFFCURVE",
"124 245 CURVE SMOOTH",
"124 107 LINE",
"62 107 LINE",
"62 0 LINE",
"227 0 LINE",
"227 251 LINE SMOOTH",
"227 286 OFFCURVE",
"249 310 OFFCURVE",
"286 310 CURVE SMOOTH",
"323 310 OFFCURVE",
"347 286 OFFCURVE",
"347 251 CURVE SMOOTH",
"347 0 LINE",
"534 0 LINE",
"534 107 LINE",
"456 107 LINE",
"456 265 LINE",
"456 302 OFFCURVE",
"428 344 OFFCURVE",
"402 370 CURVE",
"447 598 LINE",
"512 598 LINE",
"512 700 LINE"
);
}
);
width = 570;
},
{
anchors = (
{
name = ogonek;
position = "{513, -1}";
},
{
name = top;
position = "{279, 700}";
}
);
layerId = "C85A4985-4A4B-40F2-9F5D-E307D783C1A5";
name = InsideLight;
paths = (
{
closed = 1;
nodes = (
"428 344 OFFCURVE",
"456 302 OFFCURVE",
"456 265 CURVE",
"456 107 LINE",
"534 107 LINE",
"539 102 LINE",
"539 189 LINE",
"539 226 OFFCURVE",
"521 260 OFFCURVE",
"493 286 CURVE",
"402 370 LINE"
);
},
{
closed = 1;
nodes = (
"227 0 LINE",
"285 -43 LINE",
"286 141 LINE",
"227 251 LINE"
);
},
{
closed = 1;
nodes = (
"534 0 LINE",
"618 -70 LINE",
"618 29 LINE",
"534 107 LINE"
);
},
{
closed = 1;
nodes = (
"289 414 LINE",
"298 468 LINE",
"287 533 LINE",
"307 518 LINE",
"320 594 LINE",
"218 700 LINE"
);
},
{
closed = 1;
nodes = (
"402 370 LINE",
"493 286 LINE",
"512 385 LINE",
"447 598 LINE"
);
},
{
closed = 1;
nodes = (
"512 598 LINE",
"597 493 LINE",
"597 588 LINE",
"512 700 LINE"
);
}
);
width = 570;
},
{
anchors = (
{
name = ogonek;
position = "{513, -1}";
},
{
name = top;
position = "{279, 700}";
}
);
layerId = "2AF69027-8699-4DA7-9B20-F07C10F82EEB";
name = InsideShadow;
paths = (
{
closed = 1;
nodes = (
"249 310 OFFCURVE",
"227 286 OFFCURVE",
"227 251 CURVE",
"286 141 LINE",
"285 -43 LINE",
"322 -70 LINE",
"322 180 LINE",
"322 201 OFFCURVE",
"334 223 OFFCURVE",
"347 230 CURVE",
"347 251 LINE",
"347 286 OFFCURVE",
"323 310 OFFCURVE",
"286 310 CURVE"
);
},
{
closed = 1;
nodes = (
"62 0 LINE",
"169 -70 LINE",
"322 -70 LINE",
"285 -43 LINE",
"227 0 LINE"
);
},
{
closed = 1;
nodes = (
"347 0 LINE",
"454 -70 LINE",
"618 -70 LINE",
"534 0 LINE"
);
},
{
closed = 1;
nodes = (
"49 598 LINE",
"135 517 LINE",
"115 598 LINE"
);
},
{
closed = 1;
nodes = (
"298 468 LINE",
"307 518 LINE",
"287 533 LINE"
);
},
{
closed = 1;
nodes = (
"512 385 LINE",
"531 493 LINE",
"447 598 LINE"
);
},
{
closed = 1;
nodes = (
"447 598 LINE",
"531 493 LINE",
"597 493 LINE",
"512 598 LINE"
);
}
);
width = 570;
},
{
anchors = (
{
name = ogonek;
position = "{513, -1}";
},
{
name = top;
position = "{279, 700}";
}
);
layerId = "251EB316-0412-4A3C-A569-0EEB43C6D9CE";
name = Shadow;
paths = (
{
closed = 1;
nodes = (
"334 223 OFFCURVE",
"322 201 OFFCURVE",
"322 180 CURVE",
"322 -70 LINE",
"169 -70 LINE",
"89 -17 LINE",
"89 -82 LINE",
"36 -133 LINE",
"36 -216 LINE",
"276 -216 LINE",
"302 -147 LINE",
"302 -215 LINE",
"469 -214 LINE",
"618 -70 LINE",
"454 -70 LINE",
"347 0 LINE",
"347 230 LINE"
);
},
{
closed = 1;
nodes = (
"103 196 OFFCURVE",
"90 171 OFFCURVE",
"90 155 CURVE",
"90 107 LINE",
"124 107 LINE",
"124 204 LINE"
);
},
{
closed = 1;
nodes = (
"35 423 LINE",
"35 321 LINE",
"88 321 LINE",
"124 245 LINE",
"124 293 OFFCURVE",
"143 339 OFFCURVE",
"177 370 CURVE",
"135 517 LINE"
);
},
{
closed = 1;
nodes = (
"531 493 LINE",
"512 385 LINE",
"597 493 LINE"
);
}
);
width = 570;
}
);
unicode = 0058;
},
{
glyphname = Y;
lastChange = "2014-09-19 15:51:55 +0100";
layers = (
{
anchors = (
{
name = ogonek;
position = "{518, -1}";
},
{
name = top;
position = "{284, 700}";
}
);
layerId = "8706937B-409E-4048-AB1C-4F6C90F3053E";
name = Front;
paths = (
{
closed = 1;
nodes = (
"342 700 LINE",
"342 430 LINE",
"342 406 OFFCURVE",
"342 392 OFFCURVE",
"319 372 CURVE SMOOTH",
"312 365 OFFCURVE",
"301 360 OFFCURVE",
"287 360 CURVE SMOOTH",
"243 360 OFFCURVE",
"222 392 OFFCURVE",
"222 426 CURVE",
"222 700 LINE",
"53 700 LINE",
"53 598 LINE",
"119 598 LINE",
"119 420 LINE",
"119 358 OFFCURVE",
"144 317 OFFCURVE",
"189 283 CURVE SMOOTH",
"201 275 OFFCURVE",
"215 268 OFFCURVE",
"229 262 CURVE",
"229 107 LINE",
"171 107 LINE",
"171 0 LINE",
"393 0 LINE",
"393 107 LINE",
"333 107 LINE",
"333 258 LINE",
"391 275 OFFCURVE",
"451 323 OFFCURVE",
"451 413 CURVE",
"451 598 LINE",
"516 598 LINE",
"516 700 LINE"
);
}
);
width = 570;
},
{
anchors = (
{
name = ogonek;
position = "{518, -1}";
},
{
name = top;
position = "{284, 700}";
}
);
layerId = "C85A4985-4A4B-40F2-9F5D-E307D783C1A5";
name = InsideLight;
paths = (
{
closed = 1;
nodes = (
"222 426 LINE SMOOTH",
"222 392 OFFCURVE",
"243 360 OFFCURVE",
"287 360 CURVE",
"291 360 LINE",
"291 533 LINE",
"319 499 LINE",
"319 588 LINE",
"222 700 LINE"
);
},
{
closed = 1;
nodes = (
"393 0 LINE",
"484 -70 LINE",
"484 29 LINE",
"393 107 LINE"
);
},
{
closed = 1;
nodes = (
"333 107 LINE",
"393 107 LINE",
"418 84 LINE",
"333 258 LINE SMOOTH"
);
},
{
closed = 1;
nodes = (
"451 413 LINE",
"535 337 LINE",
"535 406 LINE",
"451 598 LINE"
);
},
{
closed = 1;
nodes = (
"516 598 LINE",
"601 493 LINE",
"601 588 LINE",
"516 700 LINE"
);
}
);
width = 570;
},
{
anchors = (
{
name = ogonek;
position = "{518, -1}";
},
{
name = top;
position = "{284, 700}";
}
);
layerId = "2AF69027-8699-4DA7-9B20-F07C10F82EEB";
name = InsideShadow;
paths = (
{
closed = 1;
nodes = (
"451 323 OFFCURVE",
"391 275 OFFCURVE",
"333 258 CURVE",
"418 84 LINE",
"418 189 LINE",
"442 193 OFFCURVE",
"466 201 OFFCURVE",
"497 228 CURVE",
"511 242 OFFCURVE",
"535 275 OFFCURVE",
"535 337 CURVE",
"451 413 LINE"
);
},
{
closed = 1;
nodes = (
"171 0 LINE",
"267 -70 LINE",
"484 -70 LINE",
"393 0 LINE"
);
},
{
closed = 1;
nodes = (
"53 598 LINE",
"119 519 LINE",
"119 598 LINE"
);
},
{
closed = 1;
nodes = (
"291 360 LINE",
"302 361 OFFCURVE",
"312 365 OFFCURVE",
"319 372 CURVE",
"319 499 LINE",
"291 533 LINE"
);
},
{
closed = 1;
nodes = (
"535 406 LINE",
"535 493 LINE",
"451 598 LINE SMOOTH"
);
},
{
closed = 1;
nodes = (
"451 598 LINE",
"535 493 LINE",
"601 493 LINE",
"516 598 LINE"
);
}
);
width = 570;
},
{
anchors = (
{
name = ogonek;
position = "{518, -1}";
},
{
name = top;
position = "{284, 700}";
}
);
layerId = "251EB316-0412-4A3C-A569-0EEB43C6D9CE";
name = Shadow;
paths = (
{
closed = 1;
nodes = (
"25 423 LINE",
"25 321 LINE",
"78 321 LINE",
"78 203 LINE SMOOTH",
"78 134 OFFCURVE",
"112 78 OFFCURVE",
"171 52 CURVE",
"171 107 LINE",
"229 107 LINE",
"229 262 LINE",
"215 268 OFFCURVE",
"201 275 OFFCURVE",
"189 283 CURVE SMOOTH",
"144 317 OFFCURVE",
"119 358 OFFCURVE",
"119 420 CURVE",
"119 509 LINE"
);
},
{
closed = 1;
nodes = (
"119 -100 LINE",
"119 -216 LINE",
"339 -216 LINE",
"484 -70 LINE",
"267 -70 LINE",
"191 -14 LINE"
);
},
{
closed = 1;
nodes = (
"319 499 LINE",
"319 372 LINE",
"342 392 OFFCURVE",
"342 406 OFFCURVE",
"342 430 CURVE SMOOTH",
"342 521 LINE"
);
},
{
closed = 1;
nodes = (
"535 493 LINE",
"535 406 LINE",
"601 493 LINE"
);
}
);
width = 570;
}
);
unicode = 0059;
},
{
glyphname = Z;
lastChange = "2014-09-19 15:51:55 +0100";
layers = (
{
anchors = (
{
name = ogonek;
position = "{523, -1}";
},
{
name = top;
position = "{289, 700}";
}
);
layerId = "8706937B-409E-4048-AB1C-4F6C90F3053E";
name = Front;
paths = (
{
closed = 1;
nodes = (
"73 700 LINE",
"73 469 LINE",
"178 469 LINE",
"178 598 LINE",
"328 598 LINE",
"260 390 LINE",
"172 390 LINE",
"172 281 LINE",
"224 281 LINE",
"142 107 LINE",
"74 107 LINE",
"74 0 LINE",
"501 0 LINE",
"501 230 LINE",
"396 230 LINE",
"396 108 LINE",
"246 108 LINE",
"327 281 LINE",
"425 281 LINE",
"425 391 LINE",
"363 391 LINE",
"432 598 LINE",
"500 598 LINE",
"500 700 LINE"
);
}
);
width = 574;
},
{
anchors = (
{
name = ogonek;
position = "{523, -1}";
},
{
name = top;
position = "{289, 700}";
}
);
layerId = "C85A4985-4A4B-40F2-9F5D-E307D783C1A5";
name = InsideLight;
paths = (
{
closed = 1;
nodes = (
"501 0 LINE",
"585 -70 LINE",
"585 152 LINE",
"501 230 LINE"
);
},
{
closed = 1;
nodes = (
"246 108 LINE",
"306 108 LINE",
"327 281 LINE"
);
},
{
closed = 1;
nodes = (
"178 469 LINE",
"247 402 LINE",
"247 436 LINE",
"178 598 LINE"
);
},
{
closed = 1;
nodes = (
"425 281 LINE",
"469 230 LINE",
"501 230 LINE",
"515 217 LINE",
"515 279 LINE",
"469 336 LINE",
"425 391 LINE"
);
},
{
closed = 1;
nodes = (
"363 391 LINE",
"403 391 LINE",
"432 598 LINE"
);
},
{
closed = 1;
nodes = (
"500 598 LINE",
"599 493 LINE",
"599 587 LINE",
"500 700 LINE"
);
}
);
width = 574;
},
{
anchors = (
{
name = ogonek;
position = "{523, -1}";
},
{
name = top;
position = "{289, 700}";
}
);
layerId = "2AF69027-8699-4DA7-9B20-F07C10F82EEB";
name = InsideShadow;
paths = (
{
closed = 1;
nodes = (
"363 391 LINE",
"425 391 LINE",
"469 336 LINE",
"530 493 LINE",
"432 598 LINE"
);
},
{
closed = 1;
nodes = (
"74 0 LINE",
"181 -70 LINE",
"585 -70 LINE",
"501 0 LINE"
);
},
{
closed = 1;
nodes = (
"172 281 LINE",
"204 238 LINE",
"224 281 LINE"
);
},
{
closed = 1;
nodes = (
"246 108 LINE",
"368 108 LINE",
"396 173 LINE",
"396 230 LINE",
"327 281 LINE"
);
},
{
closed = 1;
nodes = (
"247 436 LINE",
"247 402 LINE",
"178 469 LINE",
"73 469 LINE",
"172 369 LINE",
"172 390 LINE",
"260 390 LINE",
"260 493 LINE",
"178 598 LINE"
);
},
{
closed = 1;
nodes = (
"327 281 LINE",
"396 230 LINE",
"469 230 LINE",
"425 281 LINE"
);
},
{
closed = 1;
nodes = (
"178 598 LINE",
"260 493 LINE",
"294 493 LINE",
"328 598 LINE"
);
},
{
closed = 1;
nodes = (
"432 598 LINE",
"530 493 LINE",
"599 493 LINE",
"500 598 LINE"
);
}
);
width = 574;
},
{
anchors = (
{
name = ogonek;
position = "{523, -1}";
},
{
name = top;
position = "{289, 700}";
}
);
layerId = "251EB316-0412-4A3C-A569-0EEB43C6D9CE";
name = Shadow;
paths = (
{
closed = 1;
nodes = (
"16 -100 LINE",
"16 -216 LINE",
"405 -216 LINE",
"585 -70 LINE",
"181 -70 LINE",
"90 -11 LINE"
);
},
{
closed = 1;
nodes = (
"159 238 LINE",
"107 159 LINE",
"107 107 LINE",
"142 107 LINE",
"204 238 LINE"
);
},
{
closed = 1;
nodes = (
"15 472 LINE",
"15 238 LINE",
"204 238 LINE",
"172 281 LINE",
"172 369 LINE",
"73 469 LINE",
"73 526 LINE"
);
},
{
closed = 1;
nodes = (
"368 108 LINE",
"396 108 LINE",
"396 173 LINE"
);
},
{
closed = 1;
nodes = (
"260 493 LINE",
"260 390 LINE",
"294 493 LINE"
);
},
{
closed = 1;
nodes = (
"530 493 LINE",
"469 336 LINE",
"481 321 LINE",
"599 493 LINE"
);
}
);
width = 574;
}
);
unicode = 005A;
},
{
glyphname = L.001;
lastChange = "2014-09-19 15:51:55 +0100";
layers = (
{
anchors = (
{
name = ogonek;
position = "{483, -1}";
},
{
name = top;
position = "{249, 700}";
}
);
layerId = "8706937B-409E-4048-AB1C-4F6C90F3053E";
name = Front;
paths = (
{
closed = 1;
nodes = (
"64 700 LINE",
"64 598 LINE",
"130 598 LINE",
"130 107 LINE",
"62 107 LINE",
"62 0 LINE",
"419 0 LINE",
"419 230 LINE",
"314 230 LINE",
"314 108 LINE",
"234 108 LINE",
"233 598 LINE",
"298 598 LINE",
"298 700 LINE"
);
}
);
width = 505;
},
{
anchors = (
{
name = ogonek;
position = "{483, -1}";
},
{
name = top;
position = "{249, 700}";
}
);
layerId = "C85A4985-4A4B-40F2-9F5D-E307D783C1A5";
name = InsideLight;
paths = (
{
closed = 1;
nodes = (
"234 108 LINE",
"285 108 LINE",
"285 180 LINE",
"314 138 LINE",
"314 230 LINE",
"331 230 LINE",
"331 426 LINE",
"233 598 LINE"
);
},
{
closed = 1;
nodes = (
"419 0 LINE",
"503 -70 LINE",
"503 152 LINE",
"419 230 LINE"
);
},
{
closed = 1;
nodes = (
"298 598 LINE",
"397 493 LINE",
"397 587 LINE",
"298 700 LINE"
);
}
);
width = 505;
},
{
anchors = (
{
name = ogonek;
position = "{483, -1}";
},
{
name = top;
position = "{249, 700}";
}
);
layerId = "2AF69027-8699-4DA7-9B20-F07C10F82EEB";
name = InsideShadow;
paths = (
{
closed = 1;
nodes = (
"62 0 LINE",
"169 -70 LINE",
"503 -70 LINE",
"419 0 LINE"
);
},
{
closed = 1;
nodes = (
"285 108 LINE",
"314 108 LINE",
"314 138 LINE",
"285 180 LINE"
);
},
{
closed = 1;
nodes = (
"64 598 LINE",
"130 519 LINE",
"130 598 LINE"
);
},
{
closed = 1;
nodes = (
"331 426 LINE",
"331 493 LINE",
"233 598 LINE"
);
},
{
closed = 1;
nodes = (
"233 598 LINE",
"331 493 LINE",
"397 493 LINE",
"298 598 LINE"
);
}
);
width = 505;
},
{
anchors = (
{
name = ogonek;
position = "{483, -1}";
},
{
name = top;
position = "{249, 700}";
}
);
layerId = "251EB316-0412-4A3C-A569-0EEB43C6D9CE";
name = Shadow;
paths = (
{
closed = 1;
nodes = (
"89 -52 LINE",
"36 -103 LINE",
"36 -216 LINE",
"351 -216 LINE",
"503 -70 LINE",
"169 -70 LINE",
"89 -17 LINE"
);
},
{
closed = 1;
nodes = (
"36 423 LINE",
"36 321 LINE",
"89 321 LINE",
"89 107 LINE",
"130 107 LINE",
"130 509 LINE"
);
},
{
closed = 1;
nodes = (
"331 493 LINE",
"331 426 LINE",
"397 493 LINE"
);
}
);
width = 505;
}
);
},
{
glyphname = a;
lastChange = "2014-09-19 15:51:55 +0100";
layers = (
{
anchors = (
{
name = ogonek;
position = "{372, -1}";
},
{
name = top;
position = "{256, 700}";
}
);
layerId = "8706937B-409E-4048-AB1C-4F6C90F3053E";
name = Front;
paths = (
{
closed = 1;
nodes = (
"154 710 OFFCURVE",
"89 627 OFFCURVE",
"89 538 CURVE SMOOTH",
"89 436 LINE",
"89 0 LINE",
"194 0 LINE",
"194 267 LINE",
"319 267 LINE",
"319 0 LINE",
"425 0 LINE",
"425 558 LINE SMOOTH",
"425 603 OFFCURVE",
"402 644 OFFCURVE",
"367 672 CURVE SMOOTH",
"337 696 OFFCURVE",
"298 710 OFFCURVE",
"255 710 CURVE SMOOTH"
);
},
{
closed = 1;
nodes = (
"294 604 OFFCURVE",
"319 575 OFFCURVE",
"319 540 CURVE SMOOTH",
"319 372 LINE",
"194 372 LINE",
"194 543 LINE SMOOTH",
"194 575 OFFCURVE",
"216 604 OFFCURVE",
"257 604 CURVE SMOOTH"
);
}
);
width = 494;
},
{
anchors = (
{
name = ogonek;
position = "{372, -1}";
},
{
name = top;
position = "{256, 700}";
}
);
layerId = "C85A4985-4A4B-40F2-9F5D-E307D783C1A5";
name = InsideLight;
paths = (
{
closed = 1;
nodes = (
"402 644 OFFCURVE",
"425 603 OFFCURVE",
"425 558 CURVE",
"425 0 LINE",
"508 -70 LINE",
"509 433 LINE",
"509 469 OFFCURVE",
"498 500 OFFCURVE",
"476 529 CURVE SMOOTH",
"448 568 OFFCURVE",
"402 644 OFFCURVE",
"367 672 CURVE"
);
},
{
closed = 1;
nodes = (
"194 0 LINE",
"259 -50 LINE",
"259 115 LINE",
"194 267 LINE"
);
},
{
closed = 1;
nodes = (
"194 372 LINE",
"259 372 LINE",
"259 411 LINE",
"194 543 LINE"
);
}
);
width = 494;
},
{
anchors = (
{
name = ogonek;
position = "{372, -1}";
},
{
name = top;
position = "{256, 700}";
}
);
layerId = "2AF69027-8699-4DA7-9B20-F07C10F82EEB";
name = InsideShadow;
paths = (
{
closed = 1;
nodes = (
"259 115 LINE",
"259 -50 LINE",
"289 -70 LINE",
"289 176 LINE",
"194 267 LINE"
);
},
{
closed = 1;
nodes = (
"89 0 LINE",
"193 -70 LINE",
"289 -70 LINE",
"194 0 LINE"
);
},
{
closed = 1;
nodes = (
"319 0 LINE",
"410 -70 LINE",
"508 -70 LINE",
"425 0 LINE"
);
},
{
closed = 1;
nodes = (
"194 267 LINE",
"289 176 LINE",
"319 176 LINE",
"319 267 LINE"
);
},
{
closed = 1;
nodes = (
"259 411 LINE",
"259 372 LINE",
"289 372 LINE",
"289 438 LINE",
"194 543 LINE"
);
},
{
closed = 1;
nodes = (
"216 604 OFFCURVE",
"194 575 OFFCURVE",
"194 543 CURVE",
"289 438 LINE",
"289 454 OFFCURVE",
"304 471 OFFCURVE",
"319 481 CURVE",
"319 540 LINE",
"319 575 OFFCURVE",
"294 604 OFFCURVE",
"257 604 CURVE SMOOTH"
);
}
);
width = 494;
},
{
anchors = (
{
name = ogonek;
position = "{372, -1}";
},
{
name = top;
position = "{256, 700}";
}
);
layerId = "251EB316-0412-4A3C-A569-0EEB43C6D9CE";
name = Shadow;
paths = (
{
closed = 1;
nodes = (
"66 416 OFFCURVE",
"35 364 OFFCURVE",
"35 321 CURVE",
"35 -216 LINE",
"137 -216 LINE",
"263 -93 LINE",
"263 -216 LINE",
"361 -216 LINE",
"508 -70 LINE",
"410 -70 LINE",
"319 0 LINE",
"319 176 LINE",
"289 176 LINE",
"289 -70 LINE",
"193 -70 LINE",
"89 0 LINE",
"89 436 LINE"
);
},
{
closed = 1;
nodes = (
"304 471 OFFCURVE",
"289 454 OFFCURVE",
"289 438 CURVE SMOOTH",
"289 372 LINE",
"319 372 LINE",
"319 481 LINE"
);
}
);
width = 494;
}
);
unicode = 0061;
},
{
glyphname = b;
lastChange = "2014-09-19 15:51:55 +0100";
layers = (
{
anchors = (
{
name = ogonek;
position = "{483, -1}";
},
{
name = top;
position = "{249, 700}";
}
);
layerId = "8706937B-409E-4048-AB1C-4F6C90F3053E";
name = Front;
paths = (
{
closed = 1;
nodes = (
"93 700 LINE",
"93 0 LINE",
"263 0 LINE SMOOTH",
"330 0 OFFCURVE",
"428 46 OFFCURVE",
"428 162 CURVE SMOOTH",
"428 267 LINE SMOOTH",
"428 296 OFFCURVE",
"422 318 OFFCURVE",
"398 338 CURVE",
"383 349 OFFCURVE",
"355 368 OFFCURVE",
"341 373 CURVE",
"383 389 OFFCURVE",
"424 423 OFFCURVE",
"426 461 CURVE",
"426 552 LINE",
"425 634 OFFCURVE",
"336 700 OFFCURVE",
"260 700 CURVE SMOOTH"
);
},
{
closed = 1;
nodes = (
"294 307 OFFCURVE",
"318 289 OFFCURVE",
"318 248 CURVE",
"318 173 LINE SMOOTH",
"318 145 OFFCURVE",
"311 126 OFFCURVE",
"295 116 CURVE SMOOTH",
"286 110 OFFCURVE",
"273 107 OFFCURVE",
"257 107 CURVE SMOOTH",
"198 107 LINE",
"198 307 LINE",
"257 307 LINE"
);
},
{
closed = 1;
nodes = (
"293 598 OFFCURVE",
"317 575 OFFCURVE",
"317 541 CURVE SMOOTH",
"317 467 LINE",
"317 448 OFFCURVE",
"314 428 OFFCURVE",
"295 415 CURVE SMOOTH",
"286 409 OFFCURVE",
"272 404 OFFCURVE",
"257 404 CURVE",
"197 404 LINE",
"197 598 LINE",
"256 598 LINE SMOOTH"
);
}
);
width = 496;
},
{
anchors = (
{
name = ogonek;
position = "{483, -1}";
},
{
name = top;
position = "{249, 700}";
}
);
layerId = "C85A4985-4A4B-40F2-9F5D-E307D783C1A5";
name = InsideLight;
paths = (
{
closed = 1;
nodes = (
"414 611 OFFCURVE",
"426 582 OFFCURVE",
"426 551 CURVE",
"426 461 LINE",
"511 382 LINE",
"511 430 LINE SMOOTH",
"511 465 OFFCURVE",
"500 495 OFFCURVE",
"479 523 CURVE SMOOTH",
"450 561 OFFCURVE",
"422 597 OFFCURVE",
"394 634 CURVE"
);
},
{
closed = 1;
nodes = (
"198 107 LINE",
"257 107 LINE",
"257 173 LINE",
"198 307 LINE"
);
},
{
closed = 1;
nodes = (
"422 318 OFFCURVE",
"428 296 OFFCURVE",
"428 267 CURVE",
"428 162 LINE",
"511 85 LINE",
"511 182 LINE",
"510 224 OFFCURVE",
"491 259 OFFCURVE",
"464 283 CURVE",
"398 338 LINE"
);
},
{
closed = 1;
nodes = (
"197 404 LINE",
"257 404 LINE",
"257 460 LINE",
"197 598 LINE"
);
}
);
width = 496;
},
{
anchors = (
{
name = ogonek;
position = "{483, -1}";
},
{
name = top;
position = "{249, 700}";
}
);
layerId = "2AF69027-8699-4DA7-9B20-F07C10F82EEB";
name = InsideShadow;
paths = (
{
closed = 1;
nodes = (
"428 46 OFFCURVE",
"330 0 OFFCURVE",
"263 0 CURVE SMOOTH",
"236 0 LINE",
"327 -70 LINE",
"359 -70 LINE SMOOTH",
"380 -70 OFFCURVE",
"429 -63 OFFCURVE",
"473 -23 CURVE SMOOTH",
"487 -11 OFFCURVE",
"511 23 OFFCURVE",
"511 85 CURVE",
"428 162 LINE"
);
},
{
closed = 1;
nodes = (
"180 -70 LINE",
"327 -70 LINE",
"236 0 LINE",
"93 0 LINE"
);
},
{
closed = 1;
nodes = (
"198 307 LINE",
"257 173 LINE",
"257 107 LINE",
"273 107 OFFCURVE",
"286 110 OFFCURVE",
"295 116 CURVE",
"295 216 LINE",
"318 216 LINE",
"318 248 LINE SMOOTH",
"318 289 OFFCURVE",
"294 307 OFFCURVE",
"257 307 CURVE SMOOTH"
);
},
{
closed = 1;
nodes = (
"424 423 OFFCURVE",
"383 389 OFFCURVE",
"341 373 CURVE",
"355 368 OFFCURVE",
"383 349 OFFCURVE",
"398 338 CURVE",
"439 304 LINE",
"474 313 OFFCURVE",
"511 347 OFFCURVE",
"511 382 CURVE",
"426 461 LINE"
);
},
{
closed = 1;
nodes = (
"197 598 LINE",
"257 460 LINE",
"257 404 LINE",
"272 404 OFFCURVE",
"286 409 OFFCURVE",
"295 415 CURVE",
"295 493 LINE",
"317 493 LINE",
"317 541 LINE SMOOTH",
"317 575 OFFCURVE",
"293 598 OFFCURVE",
"256 598 CURVE SMOOTH"
);
}
);
width = 496;
},
{
anchors = (
{
name = ogonek;
position = "{483, -1}";
},
{
name = top;
position = "{249, 700}";
}
);
layerId = "251EB316-0412-4A3C-A569-0EEB43C6D9CE";
name = Shadow;
paths = (
{
closed = 1;
nodes = (
"35 472 LINE",
"35 -216 LINE",
"210 -216 LINE SMOOTH",
"254 -216 OFFCURVE",
"292 -197 OFFCURVE",
"325 -166 CURVE SMOOTH",
"473 -23 LINE",
"429 -63 OFFCURVE",
"380 -70 OFFCURVE",
"359 -70 CURVE SMOOTH",
"327 -70 LINE",
"180 -70 LINE",
"93 0 LINE",
"93 526 LINE"
);
},
{
closed = 1;
nodes = (
"295 216 LINE",
"295 116 LINE",
"311 126 OFFCURVE",
"318 145 OFFCURVE",
"318 173 CURVE SMOOTH",
"318 216 LINE"
);
},
{
closed = 1;
nodes = (
"295 493 LINE",
"295 415 LINE",
"314 428 OFFCURVE",
"317 448 OFFCURVE",
"317 467 CURVE SMOOTH",
"317 493 LINE"
);
}
);
width = 496;
}
);
unicode = 0062;
},
{
glyphname = c;
lastChange = "2014-09-19 15:51:55 +0100";
layers = (
{
anchors = (
{
name = ogonek;
position = "{483, -1}";
},
{
name = top;
position = "{249, 700}";
}
);
layerId = "8706937B-409E-4048-AB1C-4F6C90F3053E";
name = Front;
paths = (
{
closed = 1;
nodes = (
"148 706 OFFCURVE",
"83 625 OFFCURVE",
"83 537 CURVE SMOOTH",
"83 160 LINE SMOOTH",
"83 114 OFFCURVE",
"108 59 OFFCURVE",
"153 25 CURVE SMOOTH",
"180 5 OFFCURVE",
"212 -8 OFFCURVE",
"251 -8 CURVE SMOOTH",
"318 -8 OFFCURVE",
"416 39 OFFCURVE",
"416 155 CURVE SMOOTH",
"416 245 LINE",
"306 245 LINE",
"306 172 LINE SMOOTH",
"306 153 OFFCURVE",
"298 131 OFFCURVE",
"283 114 CURVE",
"276 107 OFFCURVE",
"265 101 OFFCURVE",
"255 101 CURVE SMOOTH",
"207 101 OFFCURVE",
"186 132 OFFCURVE",
"186 166 CURVE SMOOTH",
"186 543 LINE SMOOTH",
"186 573 OFFCURVE",
"204 602 OFFCURVE",
"245 602 CURVE SMOOTH",
"282 602 OFFCURVE",
"306 574 OFFCURVE",
"306 540 CURVE SMOOTH",
"306 460 LINE",
"414 460 LINE",
"414 557 LINE",
"414 588 OFFCURVE",
"401 615 OFFCURVE",
"382 639 CURVE SMOOTH",
"349 679 OFFCURVE",
"296 706 OFFCURVE",
"248 706 CURVE SMOOTH"
);
}
);
width = 484;
},
{
anchors = (
{
name = ogonek;
position = "{483, -1}";
},
{
name = top;
position = "{249, 700}";
}
);
layerId = "C85A4985-4A4B-40F2-9F5D-E307D783C1A5";
name = InsideLight;
paths = (
{
closed = 1;
nodes = (
"401 615 OFFCURVE",
"414 588 OFFCURVE",
"414 557 CURVE",
"414 460 LINE",
"499 362 LINE",
"499 436 LINE SMOOTH",
"499 471 OFFCURVE",
"487 500 OFFCURVE",
"467 529 CURVE SMOOTH",
"420 598 OFFCURVE",
"411 607 OFFCURVE",
"382 639 CURVE"
);
},
{
closed = 1;
nodes = (
"186 166 LINE SMOOTH",
"186 132 OFFCURVE",
"207 101 OFFCURVE",
"255 101 CURVE",
"255 386 LINE",
"186 543 LINE"
);
},
{
closed = 1;
nodes = (
"416 155 LINE",
"499 78 LINE",
"499 142 LINE",
"416 245 LINE"
);
}
);
width = 484;
},
{
anchors = (
{
name = ogonek;
position = "{483, -1}";
},
{
name = top;
position = "{249, 700}";
}
);
layerId = "2AF69027-8699-4DA7-9B20-F07C10F82EEB";
name = InsideShadow;
paths = (
{
closed = 1;
nodes = (
"416 39 OFFCURVE",
"318 -8 OFFCURVE",
"251 -8 CURVE SMOOTH",
"212 -8 OFFCURVE",
"180 5 OFFCURVE",
"153 25 CURVE",
"266 -56 LINE",
"285 -71 OFFCURVE",
"307 -77 OFFCURVE",
"347 -77 CURVE SMOOTH",
"368 -77 OFFCURVE",
"417 -75 OFFCURVE",
"461 -30 CURVE SMOOTH",
"474 -17 OFFCURVE",
"499 16 OFFCURVE",
"499 78 CURVE",
"416 155 LINE"
);
},
{
closed = 1;
nodes = (
"204 602 OFFCURVE",
"186 573 OFFCURVE",
"186 543 CURVE",
"255 386 LINE",
"255 101 LINE",
"265 101 OFFCURVE",
"276 107 OFFCURVE",
"283 114 CURVE",
"283 437 LINE SMOOTH",
"283 456 OFFCURVE",
"293 471 OFFCURVE",
"306 482 CURVE",
"306 540 LINE SMOOTH",
"306 574 OFFCURVE",
"282 602 OFFCURVE",
"245 602 CURVE SMOOTH"
);
},
{
closed = 1;
nodes = (
"306 460 LINE",
"397 362 LINE",
"499 362 LINE",
"414 460 LINE"
);
}
);
width = 484;
},
{
anchors = (
{
name = ogonek;
position = "{483, -1}";
},
{
name = top;
position = "{249, 700}";
}
);
layerId = "251EB316-0412-4A3C-A569-0EEB43C6D9CE";
name = Shadow;
paths = (
{
closed = 1;
nodes = (
"51 402 OFFCURVE",
"35 364 OFFCURVE",
"35 319 CURVE SMOOTH",
"35 -56 LINE SMOOTH",
"35 -147 OFFCURVE",
"95 -220 OFFCURVE",
"198 -220 CURVE SMOOTH",
"242 -220 OFFCURVE",
"280 -204 OFFCURVE",
"313 -173 CURVE SMOOTH",
"461 -30 LINE",
"417 -75 OFFCURVE",
"368 -77 OFFCURVE",
"347 -77 CURVE SMOOTH",
"307 -77 OFFCURVE",
"285 -71 OFFCURVE",
"266 -56 CURVE",
"153 25 LINE",
"108 59 OFFCURVE",
"83 114 OFFCURVE",
"83 160 CURVE",
"83 434 LINE"
);
},
{
closed = 1;
nodes = (
"293 471 OFFCURVE",
"283 456 OFFCURVE",
"283 437 CURVE SMOOTH",
"283 114 LINE",
"298 131 OFFCURVE",
"306 153 OFFCURVE",
"306 172 CURVE SMOOTH",
"306 245 LINE",
"388 245 LINE",
"499 362 LINE",
"397 362 LINE",
"306 460 LINE",
"306 482 LINE"
);
}
);
width = 484;
}
);
unicode = 0063;
},
{
glyphname = d;
lastChange = "2014-09-19 15:51:55 +0100";
layers = (
{
anchors = (
{
name = ogonek;
position = "{493, -1}";
},
{
name = top;
position = "{259, 700}";
}
);
layerId = "8706937B-409E-4048-AB1C-4F6C90F3053E";
name = Front;
paths = (
{
closed = 1;
nodes = (
"94 700 LINE",
"94 0 LINE",
"264 0 LINE SMOOTH",
"331 0 OFFCURVE",
"429 46 OFFCURVE",
"429 162 CURVE",
"427 551 LINE",
"427 633 OFFCURVE",
"337 700 OFFCURVE",
"261 700 CURVE SMOOTH"
);
},
{
closed = 1;
nodes = (
"295 598 OFFCURVE",
"319 575 OFFCURVE",
"319 541 CURVE SMOOTH",
"319 174 LINE SMOOTH",
"319 155 OFFCURVE",
"318 133 OFFCURVE",
"296 116 CURVE",
"289 111 OFFCURVE",
"278 107 OFFCURVE",
"268 107 CURVE",
"199 107 LINE",
"199 544 LINE",
"199 598 LINE",
"258 598 LINE"
);
}
);
width = 497;
},
{
anchors = (
{
name = ogonek;
position = "{493, -1}";
},
{
name = top;
position = "{259, 700}";
}
);
layerId = "C85A4985-4A4B-40F2-9F5D-E307D783C1A5";
name = InsideLight;
paths = (
{
closed = 1;
nodes = (
"415 611 OFFCURVE",
"427 582 OFFCURVE",
"427 551 CURVE",
"429 162 LINE",
"512 85 LINE",
"512 430 LINE SMOOTH",
"512 465 OFFCURVE",
"501 495 OFFCURVE",
"480 523 CURVE SMOOTH",
"451 561 OFFCURVE",
"423 597 OFFCURVE",
"395 634 CURVE"
);
},
{
closed = 1;
nodes = (
"199 107 LINE",
"268 107 LINE",
"268 387 LINE",
"199 544 LINE"
);
}
);
width = 497;
},
{
anchors = (
{
name = ogonek;
position = "{493, -1}";
},
{
name = top;
position = "{259, 700}";
}
);
layerId = "2AF69027-8699-4DA7-9B20-F07C10F82EEB";
name = InsideShadow;
paths = (
{
closed = 1;
nodes = (
"429 46 OFFCURVE",
"331 0 OFFCURVE",
"264 0 CURVE SMOOTH",
"237 0 LINE",
"328 -70 LINE",
"360 -70 LINE SMOOTH",
"381 -70 OFFCURVE",
"430 -63 OFFCURVE",
"474 -23 CURVE SMOOTH",
"488 -11 OFFCURVE",
"512 23 OFFCURVE",
"512 85 CURVE",
"429 162 LINE"
);
},
{
closed = 1;
nodes = (
"191 -70 LINE",
"328 -70 LINE",
"237 0 LINE",
"94 0 LINE"
);
},
{
closed = 1;
nodes = (
"199 598 LINE",
"199 544 LINE",
"268 387 LINE",
"268 107 LINE",
"278 107 OFFCURVE",
"289 111 OFFCURVE",
"296 116 CURVE",
"296 493 LINE",
"319 493 LINE",
"319 541 LINE SMOOTH",
"319 575 OFFCURVE",
"295 598 OFFCURVE",
"258 598 CURVE"
);
}
);
width = 497;
},
{
anchors = (
{
name = ogonek;
position = "{493, -1}";
},
{
name = top;
position = "{259, 700}";
}
);
layerId = "251EB316-0412-4A3C-A569-0EEB43C6D9CE";
name = Shadow;
paths = (
{
closed = 1;
nodes = (
"35 471 LINE",
"35 -216 LINE",
"211 -216 LINE SMOOTH",
"255 -216 OFFCURVE",
"293 -197 OFFCURVE",
"326 -166 CURVE SMOOTH",
"474 -23 LINE",
"430 -63 OFFCURVE",
"381 -70 OFFCURVE",
"360 -70 CURVE SMOOTH",
"328 -70 LINE",
"191 -70 LINE",
"94 0 LINE",
"94 526 LINE"
);
},
{
closed = 1;
nodes = (
"296 493 LINE",
"296 116 LINE",
"318 133 OFFCURVE",
"319 155 OFFCURVE",
"319 174 CURVE SMOOTH",
"319 493 LINE"
);
}
);
width = 497;
}
);
unicode = 0064;
},
{
glyphname = e;
lastChange = "2014-09-19 15:51:55 +0100";
layers = (
{
anchors = (
{
name = ogonek;
position = "{273, -1}";
},
{
name = top;
position = "{239, 700}";
}
);
layerId = "8706937B-409E-4048-AB1C-4F6C90F3053E";
name = Front;
paths = (
{
closed = 1;
nodes = (
"87 700 LINE",
"87 0 LINE",
"389 0 LINE",
"389 107 LINE",
"192 107 LINE",
"192 301 LINE",
"334 301 LINE",
"334 405 LINE",
"192 405 LINE",
"192 598 LINE",
"387 598 LINE",
"387 700 LINE"
);
}
);
width = 446;
},
{
anchors = (
{
name = ogonek;
position = "{273, -1}";
},
{
name = top;
position = "{239, 700}";
}
);
layerId = "C85A4985-4A4B-40F2-9F5D-E307D783C1A5";
name = InsideLight;
paths = (
{
closed = 1;
nodes = (
"387 598 LINE",
"470 493 LINE",
"470 587 LINE",
"387 700 LINE"
);
},
{
closed = 1;
nodes = (
"192 107 LINE",
"282 107 LINE",
"192 301 LINE"
);
},
{
closed = 1;
nodes = (
"389 0 LINE",
"481 -70 LINE",
"481 27 LINE",
"389 107 LINE"
);
},
{
closed = 1;
nodes = (
"334 301 LINE",
"423 210 LINE",
"423 310 LINE",
"334 405 LINE"
);
},
{
closed = 1;
nodes = (
"192 405 LINE",
"282 405 LINE",
"192 598 LINE"
);
}
);
width = 446;
},
{
anchors = (
{
name = ogonek;
position = "{273, -1}";
},
{
name = top;
position = "{239, 700}";
}
);
layerId = "2AF69027-8699-4DA7-9B20-F07C10F82EEB";
name = InsideShadow;
paths = (
{
closed = 1;
nodes = (
"192 598 LINE",
"290 493 LINE",
"470 493 LINE",
"387 598 LINE"
);
},
{
closed = 1;
nodes = (
"87 0 LINE",
"192 -70 LINE",
"481 -70 LINE",
"389 0 LINE"
);
},
{
closed = 1;
nodes = (
"282 107 LINE",
"290 107 LINE",
"290 210 LINE",
"192 301 LINE"
);
},
{
closed = 1;
nodes = (
"192 301 LINE",
"290 210 LINE",
"423 210 LINE",
"334 301 LINE"
);
},
{
closed = 1;
nodes = (
"282 405 LINE",
"290 405 LINE",
"290 493 LINE",
"192 598 LINE"
);
}
);
width = 446;
},
{
anchors = (
{
name = ogonek;
position = "{273, -1}";
},
{
name = top;
position = "{239, 700}";
}
);
layerId = "251EB316-0412-4A3C-A569-0EEB43C6D9CE";
name = Shadow;
paths = (
{
closed = 1;
nodes = (
"35 474 LINE",
"35 -216 LINE",
"331 -216 LINE",
"481 -70 LINE",
"192 -70 LINE",
"87 0 LINE",
"87 526 LINE"
);
},
{
closed = 1;
nodes = (
"290 210 LINE",
"290 107 LINE",
"309 107 LINE",
"423 210 LINE"
);
},
{
closed = 1;
nodes = (
"290 493 LINE",
"290 405 LINE",
"334 405 LINE",
"348 390 LINE",
"470 493 LINE"
);
}
);
width = 446;
}
);
unicode = 0065;
},
{
glyphname = f;
lastChange = "2014-09-19 15:51:55 +0100";
layers = (
{
anchors = (
{
name = ogonek;
position = "{473, -1}";
},
{
name = top;
position = "{239, 700}";
}
);
layerId = "8706937B-409E-4048-AB1C-4F6C90F3053E";
name = Front;
paths = (
{
closed = 1;
nodes = (
"87 700 LINE",
"87 0 LINE",
"192 0 LINE",
"192 301 LINE",
"334 301 LINE",
"334 405 LINE",
"192 405 LINE",
"192 598 LINE",
"387 598 LINE",
"387 700 LINE"
);
}
);
width = 435;
},
{
anchors = (
{
name = ogonek;
position = "{473, -1}";
},
{
name = top;
position = "{239, 700}";
}
);
layerId = "C85A4985-4A4B-40F2-9F5D-E307D783C1A5";
name = InsideLight;
paths = (
{
closed = 1;
nodes = (
"192 0 LINE",
"290 -70 LINE",
"290 90 LINE",
"192 301 LINE"
);
},
{
closed = 1;
nodes = (
"334 301 LINE",
"423 210 LINE",
"423 310 LINE",
"334 405 LINE"
);
},
{
closed = 1;
nodes = (
"192 405 LINE",
"282 405 LINE",
"192 598 LINE"
);
},
{
closed = 1;
nodes = (
"387 598 LINE",
"470 493 LINE",
"470 587 LINE",
"387 700 LINE"
);
}
);
width = 435;
},
{
anchors = (
{
name = ogonek;
position = "{473, -1}";
},
{
name = top;
position = "{239, 700}";
}
);
layerId = "2AF69027-8699-4DA7-9B20-F07C10F82EEB";
name = InsideShadow;
paths = (
{
closed = 1;
nodes = (
"192 598 LINE",
"290 493 LINE",
"470 493 LINE",
"387 598 LINE"
);
},
{
closed = 1;
nodes = (
"87 0 LINE",
"192 -70 LINE",
"290 -70 LINE",
"192 0 LINE"
);
},
{
closed = 1;
nodes = (
"290 89 LINE",
"290 210 LINE",
"192 301 LINE"
);
},
{
closed = 1;
nodes = (
"192 301 LINE",
"290 210 LINE",
"423 210 LINE",
"334 301 LINE"
);
},
{
closed = 1;
nodes = (
"282 405 LINE",
"290 405 LINE",
"290 493 LINE",
"192 598 LINE"
);
}
);
width = 435;
},
{
anchors = (
{
name = ogonek;
position = "{473, -1}";
},
{
name = top;
position = "{239, 700}";
}
);
layerId = "251EB316-0412-4A3C-A569-0EEB43C6D9CE";
name = Shadow;
paths = (
{
closed = 1;
nodes = (
"35 474 LINE",
"35 -216 LINE",
"140 -216 LINE",
"290 -70 LINE",
"192 -70 LINE",
"87 0 LINE",
"87 526 LINE"
);
},
{
closed = 1;
nodes = (
"290 210 LINE",
"290 89 LINE",
"423 210 LINE"
);
},
{
closed = 1;
nodes = (
"290 493 LINE",
"290 405 LINE",
"334 405 LINE",
"349 389 LINE",
"470 493 LINE"
);
}
);
width = 435;
}
);
unicode = 0066;
},
{
glyphname = g;
lastChange = "2014-09-19 15:51:55 +0100";
layers = (
{
anchors = (
{
name = bottom;
position = "{253, 0}";
},
{
name = ogonek;
position = "{483, -1}";
},
{
name = top;
position = "{249, 700}";
}
);
layerId = "8706937B-409E-4048-AB1C-4F6C90F3053E";
name = Front;
paths = (
{
closed = 1;
nodes = (
"148 706 OFFCURVE",
"83 625 OFFCURVE",
"83 537 CURVE SMOOTH",
"83 160 LINE SMOOTH",
"83 114 OFFCURVE",
"98 55 OFFCURVE",
"144 21 CURVE SMOOTH",
"171 1 OFFCURVE",
"212 -8 OFFCURVE",
"251 -8 CURVE SMOOTH",
"318 -8 OFFCURVE",
"416 39 OFFCURVE",
"416 155 CURVE",
"416 348 LINE",
"248 348 LINE",
"248 242 LINE",
"306 242 LINE",
"306 172 LINE SMOOTH",
"306 153 OFFCURVE",
"303 134 OFFCURVE",
"283 114 CURVE SMOOTH",
"276 107 OFFCURVE",
"265 101 OFFCURVE",
"255 101 CURVE",
"251 101 LINE",
"207 101 OFFCURVE",
"186 132 OFFCURVE",
"186 166 CURVE SMOOTH",
"186 543 LINE SMOOTH",
"186 573 OFFCURVE",
"204 602 OFFCURVE",
"245 602 CURVE SMOOTH",
"282 602 OFFCURVE",
"306 574 OFFCURVE",
"306 540 CURVE SMOOTH",
"306 460 LINE",
"416 460 LINE",
"414 557 LINE",
"414 639 OFFCURVE",
"324 706 OFFCURVE",
"248 706 CURVE SMOOTH"
);
}
);
width = 484;
},
{
anchors = (
{
name = bottom;
position = "{253, 0}";
},
{
name = ogonek;
position = "{483, -1}";
},
{
name = top;
position = "{249, 700}";
}
);
layerId = "C85A4985-4A4B-40F2-9F5D-E307D783C1A5";
name = InsideLight;
paths = (
{
closed = 1;
nodes = (
"402 617 OFFCURVE",
"414 588 OFFCURVE",
"414 557 CURVE",
"416 460 LINE",
"499 362 LINE",
"499 436 LINE SMOOTH",
"499 471 OFFCURVE",
"488 501 OFFCURVE",
"467 529 CURVE SMOOTH",
"438 567 OFFCURVE",
"410 604 OFFCURVE",
"382 639 CURVE"
);
},
{
closed = 1;
nodes = (
"186 166 LINE SMOOTH",
"186 132 OFFCURVE",
"207 101 OFFCURVE",
"251 101 CURVE SMOOTH",
"255 101 LINE",
"255 235 LINE",
"248 242 LINE",
"248 348 LINE",
"255 348 LINE",
"255 386 LINE",
"186 543 LINE"
);
},
{
closed = 1;
nodes = (
"416 155 LINE",
"499 78 LINE",
"498 238 LINE",
"416 348 LINE"
);
}
);
width = 484;
},
{
anchors = (
{
name = bottom;
position = "{253, 0}";
},
{
name = ogonek;
position = "{483, -1}";
},
{
name = top;
position = "{249, 700}";
}
);
layerId = "2AF69027-8699-4DA7-9B20-F07C10F82EEB";
name = InsideShadow;
paths = (
{
closed = 1;
nodes = (
"416 39 OFFCURVE",
"318 -8 OFFCURVE",
"251 -8 CURVE SMOOTH",
"212 -8 OFFCURVE",
"171 1 OFFCURVE",
"144 21 CURVE",
"171 1 OFFCURVE",
"235 -46 OFFCURVE",
"264 -60 CURVE SMOOTH",
"285 -70 OFFCURVE",
"307 -77 OFFCURVE",
"347 -77 CURVE SMOOTH",
"368 -77 OFFCURVE",
"417 -70 OFFCURVE",
"461 -30 CURVE SMOOTH",
"475 -18 OFFCURVE",
"499 16 OFFCURVE",
"499 78 CURVE",
"416 155 LINE"
);
},
{
closed = 1;
nodes = (
"255 101 LINE",
"265 101 OFFCURVE",
"276 107 OFFCURVE",
"283 114 CURVE",
"283 207 LINE",
"255 235 LINE"
);
},
{
closed = 1;
nodes = (
"248 242 LINE",
"306 184 LINE",
"306 242 LINE"
);
},
{
closed = 1;
nodes = (
"204 602 OFFCURVE",
"186 573 OFFCURVE",
"186 543 CURVE",
"255 386 LINE",
"255 348 LINE",
"283 348 LINE",
"283 437 LINE SMOOTH",
"283 456 OFFCURVE",
"293 471 OFFCURVE",
"306 482 CURVE",
"306 540 LINE SMOOTH",
"306 574 OFFCURVE",
"282 602 OFFCURVE",
"245 602 CURVE SMOOTH"
);
},
{
closed = 1;
nodes = (
"306 460 LINE",
"397 362 LINE",
"499 362 LINE",
"416 460 LINE"
);
}
);
width = 484;
},
{
anchors = (
{
name = bottom;
position = "{253, 0}";
},
{
name = ogonek;
position = "{483, -1}";
},
{
name = top;
position = "{249, 700}";
}
);
layerId = "251EB316-0412-4A3C-A569-0EEB43C6D9CE";
name = Shadow;
paths = (
{
closed = 1;
nodes = (
"51 402 OFFCURVE",
"35 364 OFFCURVE",
"35 319 CURVE SMOOTH",
"35 -56 LINE SMOOTH",
"35 -147 OFFCURVE",
"95 -220 OFFCURVE",
"198 -220 CURVE SMOOTH",
"242 -220 OFFCURVE",
"278 -202 OFFCURVE",
"313 -173 CURVE SMOOTH",
"367 -129 OFFCURVE",
"416 -84 OFFCURVE",
"461 -30 CURVE",
"417 -70 OFFCURVE",
"368 -77 OFFCURVE",
"347 -77 CURVE SMOOTH",
"307 -77 OFFCURVE",
"285 -70 OFFCURVE",
"264 -60 CURVE SMOOTH",
"235 -46 OFFCURVE",
"171 1 OFFCURVE",
"144 21 CURVE SMOOTH",
"98 55 OFFCURVE",
"83 114 OFFCURVE",
"83 160 CURVE",
"83 434 LINE"
);
},
{
closed = 1;
nodes = (
"283 114 LINE",
"303 134 OFFCURVE",
"306 153 OFFCURVE",
"306 172 CURVE",
"306 184 LINE",
"283 207 LINE"
);
},
{
closed = 1;
nodes = (
"293 471 OFFCURVE",
"283 456 OFFCURVE",
"283 437 CURVE",
"283 348 LINE",
"416 348 LINE",
"455 297 LINE",
"499 362 LINE",
"397 362 LINE",
"306 460 LINE",
"306 482 LINE"
);
}
);
width = 484;
}
);
unicode = 0067;
},
{
glyphname = h;
lastChange = "2014-09-19 15:51:55 +0100";
layers = (
{
anchors = (
{
name = ogonek;
position = "{483, -1}";
},
{
name = top;
position = "{249, 700}";
}
);
layerId = "8706937B-409E-4048-AB1C-4F6C90F3053E";
name = Front;
paths = (
{
closed = 1;
nodes = (
"314 700 LINE",
"314 405 LINE",
"185 405 LINE",
"185 700 LINE",
"80 700 LINE",
"80 0 LINE",
"185 0 LINE",
"185 300 LINE",
"314 300 LINE",
"314 0 LINE",
"420 0 LINE",
"421 700 LINE"
);
}
);
width = 500;
},
{
anchors = (
{
name = ogonek;
position = "{483, -1}";
},
{
name = top;
position = "{249, 700}";
}
);
layerId = "C85A4985-4A4B-40F2-9F5D-E307D783C1A5";
name = InsideLight;
paths = (
{
closed = 1;
nodes = (
"420 0 LINE",
"505 -70 LINE",
"505 581 LINE",
"421 700 LINE"
);
},
{
closed = 1;
nodes = (
"185 0 LINE",
"263 -58 LINE",
"263 127 LINE",
"185 300 LINE"
);
},
{
closed = 1;
nodes = (
"185 405 LINE",
"263 405 LINE",
"263 530 LINE",
"282 503 LINE",
"282 586 LINE",
"185 700 LINE"
);
}
);
width = 500;
},
{
anchors = (
{
name = ogonek;
position = "{483, -1}";
},
{
name = top;
position = "{249, 700}";
}
);
layerId = "2AF69027-8699-4DA7-9B20-F07C10F82EEB";
name = InsideShadow;
paths = (
{
closed = 1;
nodes = (
"263 127 LINE",
"263 -58 LINE",
"282 -70 LINE",
"282 210 LINE",
"185 300 LINE"
);
},
{
closed = 1;
nodes = (
"80 0 LINE",
"186 -70 LINE",
"282 -70 LINE",
"185 0 LINE"
);
},
{
closed = 1;
nodes = (
"314 0 LINE",
"407 -70 LINE",
"505 -70 LINE",
"420 0 LINE"
);
},
{
closed = 1;
nodes = (
"185 300 LINE",
"282 210 LINE",
"314 210 LINE",
"314 300 LINE"
);
},
{
closed = 1;
nodes = (
"263 405 LINE",
"282 405 LINE",
"282 503 LINE",
"263 530 LINE"
);
}
);
width = 500;
},
{
anchors = (
{
name = ogonek;
position = "{483, -1}";
},
{
name = top;
position = "{249, 700}";
}
);
layerId = "251EB316-0412-4A3C-A569-0EEB43C6D9CE";
name = Shadow;
paths = (
{
closed = 1;
nodes = (
"25 462 LINE",
"25 -216 LINE",
"128 -216 LINE",
"253 -109 LINE",
"253 -216 LINE",
"370 -216 LINE",
"505 -70 LINE",
"407 -70 LINE",
"314 0 LINE",
"314 210 LINE",
"282 210 LINE",
"282 -70 LINE",
"186 -70 LINE",
"80 0 LINE",
"80 528 LINE"
);
},
{
closed = 1;
nodes = (
"282 503 LINE",
"282 405 LINE",
"314 405 LINE",
"314 530 LINE"
);
}
);
width = 500;
}
);
unicode = 0068;
},
{
glyphname = i;
lastChange = "2014-09-19 15:51:55 +0100";
layers = (
{
anchors = (
{
name = ogonek;
position = "{184, 0}";
},
{
name = top;
position = "{129, 700}";
}
);
layerId = "8706937B-409E-4048-AB1C-4F6C90F3053E";
name = Front;
paths = (
{
closed = 1;
nodes = (
"80 700 LINE",
"80 0 LINE",
"184 0 LINE",
"184 700 LINE"
);
}
);
width = 277;
},
{
anchors = (
{
name = ogonek;
position = "{184, 0}";
},
{
name = top;
position = "{129, 700}";
}
);
layerId = "C85A4985-4A4B-40F2-9F5D-E307D783C1A5";
name = InsideLight;
paths = (
{
closed = 1;
nodes = (
"184 0 LINE",
"282 -70 LINE",
"282 587 LINE",
"184 700 LINE"
);
}
);
width = 277;
},
{
anchors = (
{
name = ogonek;
position = "{184, 0}";
},
{
name = top;
position = "{129, 700}";
}
);
layerId = "2AF69027-8699-4DA7-9B20-F07C10F82EEB";
name = InsideShadow;
paths = (
{
closed = 1;
nodes = (
"80 0 LINE",
"187 -70 LINE",
"282 -70 LINE",
"184 0 LINE"
);
}
);
width = 277;
},
{
anchors = (
{
name = ogonek;
position = "{184, 0}";
},
{
name = top;
position = "{129, 700}";
}
);
layerId = "251EB316-0412-4A3C-A569-0EEB43C6D9CE";
name = Shadow;
paths = (
{
closed = 1;
nodes = (
"35 468 LINE",
"35 -216 LINE",
"129 -216 LINE",
"282 -70 LINE",
"187 -70 LINE",
"80 0 LINE",
"80 509 LINE"
);
}
);
width = 277;
}
);
unicode = 0069;
},
{
glyphname = j;
lastChange = "2014-09-19 15:51:55 +0100";
layers = (
{
anchors = (
{
name = ogonek;
position = "{583, -1}";
},
{
name = top;
position = "{349, 700}";
}
);
layerId = "8706937B-409E-4048-AB1C-4F6C90F3053E";
name = Front;
paths = (
{
closed = 1;
nodes = (
"309 700 LINE",
"309 192 LINE",
"309 153 OFFCURVE",
"286 121 OFFCURVE",
"257 121 CURVE SMOOTH",
"213 121 OFFCURVE",
"189 152 OFFCURVE",
"189 186 CURVE",
"189 294 LINE",
"83 294 LINE",
"83 166 LINE",
"83 126 OFFCURVE",
"93 69 OFFCURVE",
"153 25 CURVE SMOOTH",
"180 5 OFFCURVE",
"212 -8 OFFCURVE",
"251 -8 CURVE SMOOTH",
"318 -8 OFFCURVE",
"415 39 OFFCURVE",
"415 155 CURVE",
"415 700 LINE"
);
}
);
width = 491;
},
{
anchors = (
{
name = ogonek;
position = "{583, -1}";
},
{
name = top;
position = "{349, 700}";
}
);
layerId = "C85A4985-4A4B-40F2-9F5D-E307D783C1A5";
name = InsideLight;
paths = (
{
closed = 1;
nodes = (
"415 155 LINE",
"500 78 LINE",
"500 588 LINE",
"415 700 LINE"
);
}
);
width = 491;
},
{
anchors = (
{
name = ogonek;
position = "{583, -1}";
},
{
name = top;
position = "{349, 700}";
}
);
layerId = "2AF69027-8699-4DA7-9B20-F07C10F82EEB";
name = InsideShadow;
paths = (
{
closed = 1;
nodes = (
"415 39 OFFCURVE",
"318 -8 OFFCURVE",
"251 -8 CURVE SMOOTH",
"212 -8 OFFCURVE",
"180 5 OFFCURVE",
"153 25 CURVE",
"180 5 OFFCURVE",
"242 -42 OFFCURVE",
"266 -56 CURVE SMOOTH",
"287 -67 OFFCURVE",
"307 -77 OFFCURVE",
"347 -77 CURVE SMOOTH",
"368 -77 OFFCURVE",
"417 -70 OFFCURVE",
"461 -30 CURVE SMOOTH",
"475 -18 OFFCURVE",
"500 16 OFFCURVE",
"500 78 CURVE",
"415 155 LINE"
);
},
{
closed = 1;
nodes = (
"189 186 LINE",
"189 152 OFFCURVE",
"213 121 OFFCURVE",
"257 121 CURVE",
"257 165 LINE",
"189 294 LINE"
);
}
);
width = 491;
},
{
anchors = (
{
name = ogonek;
position = "{583, -1}";
},
{
name = top;
position = "{349, 700}";
}
);
layerId = "251EB316-0412-4A3C-A569-0EEB43C6D9CE";
name = Shadow;
paths = (
{
closed = 1;
nodes = (
"35 166 LINE",
"35 -56 LINE",
"35 -147 OFFCURVE",
"95 -220 OFFCURVE",
"198 -220 CURVE SMOOTH",
"242 -220 OFFCURVE",
"280 -204 OFFCURVE",
"313 -173 CURVE SMOOTH",
"461 -30 LINE",
"417 -70 OFFCURVE",
"368 -77 OFFCURVE",
"347 -77 CURVE SMOOTH",
"307 -77 OFFCURVE",
"287 -67 OFFCURVE",
"266 -56 CURVE SMOOTH",
"242 -42 OFFCURVE",
"180 5 OFFCURVE",
"153 25 CURVE SMOOTH",
"93 69 OFFCURVE",
"83 126 OFFCURVE",
"83 166 CURVE"
);
},
{
closed = 1;
nodes = (
"257 489 LINE",
"257 121 LINE",
"286 121 OFFCURVE",
"309 153 OFFCURVE",
"309 192 CURVE",
"309 530 LINE"
);
}
);
width = 491;
}
);
unicode = 006A;
},
{
glyphname = k;
lastChange = "2014-09-19 15:51:55 +0100";
layers = (
{
anchors = (
{
name = bottom;
position = "{252, 0}";
},
{
name = ogonek;
position = "{483, -1}";
},
{
name = top;
position = "{249, 700}";
}
);
layerId = "8706937B-409E-4048-AB1C-4F6C90F3053E";
name = Front;
paths = (
{
closed = 1;
nodes = (
"320 700 LINE",
"214 414 LINE",
"180 414 LINE",
"180 700 LINE",
"77 700 LINE",
"77 0 LINE",
"180 0 LINE",
"180 300 LINE",
"244 300 LINE SMOOTH",
"258 300 OFFCURVE",
"269 295 OFFCURVE",
"276 288 CURVE",
"299 268 OFFCURVE",
"299 254 OFFCURVE",
"299 230 CURVE SMOOTH",
"299 0 LINE",
"408 0 LINE",
"408 247 LINE SMOOTH",
"408 295 OFFCURVE",
"401 331 OFFCURVE",
"385 357 CURVE SMOOTH",
"371 379 OFFCURVE",
"351 394 OFFCURVE",
"324 402 CURVE",
"453 700 LINE"
);
}
);
width = 503;
},
{
anchors = (
{
name = bottom;
position = "{252, 0}";
},
{
name = ogonek;
position = "{483, -1}";
},
{
name = top;
position = "{249, 700}";
}
);
layerId = "C85A4985-4A4B-40F2-9F5D-E307D783C1A5";
name = InsideLight;
paths = (
{
closed = 1;
nodes = (
"180 0 LINE",
"252 -51 LINE",
"252 179 LINE",
"180 300 LINE"
);
},
{
closed = 1;
nodes = (
"401 329 OFFCURVE",
"408 291 OFFCURVE",
"408 247 CURVE SMOOTH",
"408 0 LINE",
"499 -70 LINE",
"499 153 LINE SMOOTH",
"499 234 OFFCURVE",
"435 292 OFFCURVE",
"416 317 CURVE SMOOTH",
"385 357 LINE"
);
},
{
closed = 1;
nodes = (
"180 414 LINE",
"214 414 LINE",
"277 584 LINE",
"277 598 LINE",
"180 700 LINE"
);
}
);
width = 503;
},
{
anchors = (
{
name = bottom;
position = "{252, 0}";
},
{
name = ogonek;
position = "{483, -1}";
},
{
name = top;
position = "{249, 700}";
}
);
layerId = "2AF69027-8699-4DA7-9B20-F07C10F82EEB";
name = InsideShadow;
paths = (
{
closed = 1;
nodes = (
"180 300 LINE",
"252 179 LINE",
"252 -51 LINE",
"280 -70 LINE",
"280 229 LINE",
"299 229 LINE",
"299 253 OFFCURVE",
"299 268 OFFCURVE",
"276 288 CURVE",
"269 295 OFFCURVE",
"258 300 OFFCURVE",
"244 300 CURVE SMOOTH"
);
},
{
closed = 1;
nodes = (
"77 0 LINE",
"173 -70 LINE",
"280 -70 LINE",
"252 -51 LINE",
"180 0 LINE"
);
},
{
closed = 1;
nodes = (
"299 0 LINE",
"395 -70 LINE",
"499 -70 LINE",
"408 0 LINE"
);
},
{
closed = 1;
nodes = (
"324 402 LINE",
"350 395 OFFCURVE",
"368 379 OFFCURVE",
"383 360 CURVE SMOOTH",
"416 317 LINE",
"538 588 LINE",
"453 700 LINE"
);
}
);
width = 503;
},
{
anchors = (
{
name = bottom;
position = "{252, 0}";
},
{
name = ogonek;
position = "{483, -1}";
},
{
name = top;
position = "{249, 700}";
}
);
layerId = "251EB316-0412-4A3C-A569-0EEB43C6D9CE";
name = Shadow;
paths = (
{
closed = 1;
nodes = (
"35 472 LINE",
"35 -216 LINE",
"170 -216 LINE",
"246 -116 LINE",
"246 -216 LINE",
"345 -216 LINE",
"499 -70 LINE",
"395 -70 LINE",
"299 0 LINE",
"299 229 LINE",
"280 229 LINE",
"280 -70 LINE",
"173 -70 LINE",
"77 0 LINE",
"77 509 LINE"
);
}
);
width = 503;
}
);
unicode = 006B;
},
{
glyphname = l;
lastChange = "2014-09-19 15:51:55 +0100";
layers = (
{
anchors = (
{
name = bottom;
position = "{215, 0}";
},
{
name = ogonek;
position = "{463, -1}";
},
{
name = top;
position = "{229, 700}";
},
{
name = topright;
position = "{410, 500}";
}
);
layerId = "8706937B-409E-4048-AB1C-4F6C90F3053E";
name = Front;
paths = (
{
closed = 1;
nodes = (
"88 700 LINE",
"88 0 LINE",
"379 0 LINE",
"379 107 LINE",
"193 107 LINE",
"193 700 LINE"
);
}
);
width = 430;
},
{
anchors = (
{
name = bottom;
position = "{215, 0}";
},
{
name = ogonek;
position = "{463, -1}";
},
{
name = top;
position = "{229, 700}";
},
{
name = topright;
position = "{410, 500}";
}
);
layerId = "C85A4985-4A4B-40F2-9F5D-E307D783C1A5";
name = InsideLight;
paths = (
{
closed = 1;
nodes = (
"193 107 LINE",
"292 107 LINE",
"292 584 LINE",
"193 700 LINE"
);
},
{
closed = 1;
nodes = (
"379 0 LINE",
"465 -70 LINE",
"465 30 LINE",
"379 107 LINE"
);
}
);
width = 430;
},
{
anchors = (
{
name = bottom;
position = "{215, 0}";
},
{
name = ogonek;
position = "{463, -1}";
},
{
name = top;
position = "{229, 700}";
},
{
name = topright;
position = "{410, 500}";
}
);
layerId = "2AF69027-8699-4DA7-9B20-F07C10F82EEB";
name = InsideShadow;
paths = (
{
closed = 1;
nodes = (
"88 0 LINE",
"193 -70 LINE",
"465 -70 LINE",
"379 0 LINE"
);
}
);
width = 430;
},
{
anchors = (
{
name = bottom;
position = "{215, 0}";
},
{
name = ogonek;
position = "{463, -1}";
},
{
name = top;
position = "{229, 700}";
},
{
name = topright;
position = "{410, 500}";
}
);
layerId = "251EB316-0412-4A3C-A569-0EEB43C6D9CE";
name = Shadow;
paths = (
{
closed = 1;
nodes = (
"35 476 LINE",
"35 -216 LINE",
"315 -216 LINE",
"465 -70 LINE",
"193 -70 LINE",
"88 0 LINE",
"88 526 LINE"
);
}
);
width = 430;
}
);
unicode = 006C;
},
{
glyphname = m;
lastChange = "2014-09-19 15:51:55 +0100";
layers = (
{
anchors = (
{
name = ogonek;
position = "{613, -1}";
},
{
name = top;
position = "{379, 700}";
}
);
layerId = "8706937B-409E-4048-AB1C-4F6C90F3053E";
name = Front;
paths = (
{
closed = 1;
nodes = (
"538 700 LINE",
"377 293 LINE",
"223 700 LINE",
"90 700 LINE",
"90 0 LINE",
"193 0 LINE",
"193 415 LINE",
"339 -1 LINE",
"408 -1 LINE",
"568 415 LINE",
"568 0 LINE",
"675 0 LINE",
"671 700 LINE"
);
}
);
width = 763;
},
{
anchors = (
{
name = ogonek;
position = "{613, -1}";
},
{
name = top;
position = "{379, 700}";
}
);
layerId = "C85A4985-4A4B-40F2-9F5D-E307D783C1A5";
name = InsideLight;
paths = (
{
closed = 1;
nodes = (
"377 293 LINE",
"408 364 LINE",
"317 598 LINE SMOOTH",
"223 700 LINE"
);
},
{
closed = 1;
nodes = (
"193 0 LINE",
"220 -23 LINE",
"220 58 LINE",
"193 415 LINE"
);
},
{
closed = 1;
nodes = (
"408 -1 LINE",
"438 -26 LINE",
"472 53 LINE",
"568 415 LINE"
);
},
{
closed = 1;
nodes = (
"675 0 LINE",
"759 -70 LINE",
"759 598 LINE",
"671 700 LINE"
);
}
);
width = 763;
},
{
anchors = (
{
name = ogonek;
position = "{613, -1}";
},
{
name = top;
position = "{379, 700}";
}
);
layerId = "2AF69027-8699-4DA7-9B20-F07C10F82EEB";
name = InsideShadow;
paths = (
{
closed = 1;
nodes = (
"472 53 LINE",
"438 -26 LINE",
"408 -1 LINE",
"492 -70 LINE",
"568 113 LINE",
"568 415 LINE"
);
},
{
closed = 1;
nodes = (
"90 0 LINE",
"180 -70 LINE",
"277 -70 LINE",
"193 0 LINE"
);
},
{
closed = 1;
nodes = (
"339 -1 LINE",
"432 -70 LINE",
"492 -70 LINE",
"408 -1 LINE"
);
},
{
closed = 1;
nodes = (
"220 58 LINE",
"220 -23 LINE",
"277 -70 LINE",
"277 176 LINE",
"193 415 LINE"
);
},
{
closed = 1;
nodes = (
"568 0 LINE",
"658 -70 LINE",
"759 -70 LINE",
"675 0 LINE"
);
}
);
width = 763;
},
{
anchors = (
{
name = ogonek;
position = "{613, -1}";
},
{
name = top;
position = "{379, 700}";
}
);
layerId = "251EB316-0412-4A3C-A569-0EEB43C6D9CE";
name = Shadow;
paths = (
{
closed = 1;
nodes = (
"35 462 LINE",
"35 -216 LINE",
"216 -216 LINE",
"278 -135 LINE",
"278 -216 LINE",
"426 -216 LINE",
"486 -137 LINE",
"486 -216 LINE",
"649 -216 LINE",
"759 -70 LINE",
"658 -70 LINE",
"568 0 LINE",
"568 113 LINE",
"492 -70 LINE",
"432 -70 LINE",
"339 -1 LINE",
"277 176 LINE",
"277 -70 LINE",
"180 -70 LINE",
"90 0 LINE",
"90 528 LINE"
);
}
);
width = 763;
}
);
unicode = 006D;
},
{
glyphname = n;
lastChange = "2014-09-19 15:51:55 +0100";
layers = (
{
anchors = (
{
name = bottom;
position = "{240, 0}";
},
{
name = top;
position = "{258, 700}";
}
);
layerId = "8706937B-409E-4048-AB1C-4F6C90F3053E";
name = Front;
paths = (
{
closed = 1;
nodes = (
"324 700 LINE",
"324 384 LINE",
"195 536 LINE",
"195 700 LINE",
"90 700 LINE",
"90 0 LINE",
"195 0 LINE",
"195 360 LINE",
"324 180 LINE",
"324 0 LINE",
"430 0 LINE",
"431 700 LINE"
);
}
);
width = 480;
},
{
anchors = (
{
name = bottom;
position = "{240, 0}";
},
{
name = top;
position = "{258, 700}";
}
);
layerId = "C85A4985-4A4B-40F2-9F5D-E307D783C1A5";
name = InsideLight;
paths = (
{
closed = 1;
nodes = (
"430 0 LINE",
"515 -70 LINE",
"515 581 LINE",
"431 700 LINE"
);
},
{
closed = 1;
nodes = (
"195 0 LINE",
"262 -50 LINE",
"262 159 LINE",
"195 360 LINE"
);
},
{
closed = 1;
nodes = (
"195 536 LINE",
"292 474 LINE",
"292 586 LINE",
"195 700 LINE"
);
}
);
width = 480;
},
{
anchors = (
{
name = bottom;
position = "{240, 0}";
},
{
name = top;
position = "{258, 700}";
}
);
layerId = "2AF69027-8699-4DA7-9B20-F07C10F82EEB";
name = InsideShadow;
paths = (
{
closed = 1;
nodes = (
"262 159 LINE",
"262 -50 LINE",
"292 -70 LINE",
"292 224 LINE",
"195 360 LINE"
);
},
{
closed = 1;
nodes = (
"90 0 LINE",
"196 -70 LINE",
"292 -70 LINE",
"195 0 LINE"
);
},
{
closed = 1;
nodes = (
"324 0 LINE",
"417 -70 LINE",
"515 -70 LINE",
"430 0 LINE"
);
},
{
closed = 1;
nodes = (
"324 384 LINE",
"324 444 LINE",
"292 474 LINE",
"195 536 LINE"
);
}
);
width = 480;
},
{
anchors = (
{
name = bottom;
position = "{240, 0}";
},
{
name = top;
position = "{258, 700}";
}
);
layerId = "251EB316-0412-4A3C-A569-0EEB43C6D9CE";
name = Shadow;
paths = (
{
closed = 1;
nodes = (
"35 462 LINE",
"35 -216 LINE",
"138 -216 LINE",
"263 -109 LINE",
"263 -216 LINE",
"380 -216 LINE",
"515 -70 LINE",
"417 -70 LINE",
"324 0 LINE",
"324 180 LINE",
"292 224 LINE",
"292 -70 LINE",
"196 -70 LINE",
"90 0 LINE",
"90 528 LINE"
);
},
{
closed = 1;
nodes = (
"292 474 LINE",
"324 444 LINE",
"324 501 LINE"
);
}
);
width = 480;
}
);
unicode = 006E;
},
{
glyphname = o;
lastChange = "2014-09-19 15:51:55 +0100";
layers = (
{
anchors = (
{
name = ogonek;
position = "{483, -1}";
},
{
name = top;
position = "{249, 700}";
}
);
layerId = "8706937B-409E-4048-AB1C-4F6C90F3053E";
name = Front;
paths = (
{
closed = 1;
nodes = (
"148 706 OFFCURVE",
"83 625 OFFCURVE",
"83 537 CURVE SMOOTH",
"83 160 LINE SMOOTH",
"83 114 OFFCURVE",
"114 54 OFFCURVE",
"153 25 CURVE SMOOTH",
"179 5 OFFCURVE",
"212 -8 OFFCURVE",
"251 -8 CURVE SMOOTH",
"318 -8 OFFCURVE",
"414 39 OFFCURVE",
"414 155 CURVE",
"414 557 LINE",
"414 587 OFFCURVE",
"402 616 OFFCURVE",
"382 639 CURVE SMOOTH",
"349 680 OFFCURVE",
"296 706 OFFCURVE",
"248 706 CURVE SMOOTH"
);
},
{
closed = 1;
nodes = (
"282 602 OFFCURVE",
"306 574 OFFCURVE",
"306 540 CURVE SMOOTH",
"306 172 LINE SMOOTH",
"306 153 OFFCURVE",
"303 134 OFFCURVE",
"283 114 CURVE SMOOTH",
"276 107 OFFCURVE",
"265 101 OFFCURVE",
"255 101 CURVE SMOOTH",
"205 101 OFFCURVE",
"186 130 OFFCURVE",
"186 166 CURVE SMOOTH",
"186 543 LINE SMOOTH",
"186 573 OFFCURVE",
"204 602 OFFCURVE",
"245 602 CURVE SMOOTH"
);
}
);
width = 497;
},
{
anchors = (
{
name = ogonek;
position = "{483, -1}";
},
{
name = top;
position = "{249, 700}";
}
);
layerId = "C85A4985-4A4B-40F2-9F5D-E307D783C1A5";
name = InsideLight;
paths = (
{
closed = 1;
nodes = (
"402 616 OFFCURVE",
"414 587 OFFCURVE",
"414 557 CURVE",
"414 155 LINE",
"499 78 LINE",
"499 436 LINE SMOOTH",
"499 471 OFFCURVE",
"486 500 OFFCURVE",
"467 529 CURVE SMOOTH",
"442 567 OFFCURVE",
"417 600 OFFCURVE",
"382 639 CURVE"
);
},
{
closed = 1;
nodes = (
"186 166 LINE SMOOTH",
"186 130 OFFCURVE",
"205 101 OFFCURVE",
"255 101 CURVE",
"255 386 LINE",
"186 543 LINE"
);
}
);
width = 497;
},
{
anchors = (
{
name = ogonek;
position = "{483, -1}";
},
{
name = top;
position = "{249, 700}";
}
);
layerId = "2AF69027-8699-4DA7-9B20-F07C10F82EEB";
name = InsideShadow;
paths = (
{
closed = 1;
nodes = (
"414 39 OFFCURVE",
"318 -8 OFFCURVE",
"251 -8 CURVE SMOOTH",
"212 -8 OFFCURVE",
"179 5 OFFCURVE",
"153 25 CURVE",
"156 22 OFFCURVE",
"242 -42 OFFCURVE",
"266 -56 CURVE SMOOTH",
"287 -67 OFFCURVE",
"307 -77 OFFCURVE",
"347 -77 CURVE SMOOTH",
"368 -77 OFFCURVE",
"417 -70 OFFCURVE",
"461 -30 CURVE SMOOTH",
"475 -18 OFFCURVE",
"499 16 OFFCURVE",
"499 78 CURVE",
"414 155 LINE"
);
},
{
closed = 1;
nodes = (
"204 602 OFFCURVE",
"186 573 OFFCURVE",
"186 543 CURVE",
"255 386 LINE",
"255 101 LINE",
"265 101 OFFCURVE",
"276 107 OFFCURVE",
"283 114 CURVE",
"283 437 LINE SMOOTH",
"283 456 OFFCURVE",
"293 471 OFFCURVE",
"306 482 CURVE",
"306 540 LINE SMOOTH",
"306 574 OFFCURVE",
"282 602 OFFCURVE",
"245 602 CURVE SMOOTH"
);
}
);
width = 497;
},
{
anchors = (
{
name = ogonek;
position = "{483, -1}";
},
{
name = top;
position = "{249, 700}";
}
);
layerId = "251EB316-0412-4A3C-A569-0EEB43C6D9CE";
name = Shadow;
paths = (
{
closed = 1;
nodes = (
"51 402 OFFCURVE",
"35 364 OFFCURVE",
"35 319 CURVE SMOOTH",
"35 -56 LINE SMOOTH",
"35 -147 OFFCURVE",
"95 -220 OFFCURVE",
"198 -220 CURVE SMOOTH",
"242 -220 OFFCURVE",
"280 -204 OFFCURVE",
"313 -173 CURVE SMOOTH",
"461 -30 LINE",
"417 -70 OFFCURVE",
"368 -77 OFFCURVE",
"347 -77 CURVE SMOOTH",
"307 -77 OFFCURVE",
"287 -67 OFFCURVE",
"266 -56 CURVE SMOOTH",
"242 -42 OFFCURVE",
"156 22 OFFCURVE",
"153 25 CURVE SMOOTH",
"114 54 OFFCURVE",
"83 114 OFFCURVE",
"83 160 CURVE",
"83 434 LINE"
);
},
{
closed = 1;
nodes = (
"293 471 OFFCURVE",
"283 456 OFFCURVE",
"283 437 CURVE SMOOTH",
"283 114 LINE",
"303 134 OFFCURVE",
"306 153 OFFCURVE",
"306 172 CURVE SMOOTH",
"306 482 LINE"
);
}
);
width = 497;
}
);
unicode = 006F;
},
{
glyphname = p;
lastChange = "2014-09-19 15:51:55 +0100";
layers = (
{
anchors = (
{
name = ogonek;
position = "{463, -1}";
},
{
name = top;
position = "{229, 700}";
}
);
layerId = "8706937B-409E-4048-AB1C-4F6C90F3053E";
name = Front;
paths = (
{
closed = 1;
nodes = (
"88 700 LINE",
"88 0 LINE",
"182 0 LINE",
"182 307 LINE",
"240 307 LINE SMOOTH",
"290 307 OFFCURVE",
"345 337 OFFCURVE",
"373 393 CURVE SMOOTH",
"381 410 OFFCURVE",
"388 433 OFFCURVE",
"388 458 CURVE SMOOTH",
"388 552 LINE SMOOTH",
"388 592 OFFCURVE",
"377 621 OFFCURVE",
"353 647 CURVE SMOOTH",
"325 677 OFFCURVE",
"281 700 OFFCURVE",
"237 700 CURVE SMOOTH"
);
},
{
closed = 1;
nodes = (
"275 598 OFFCURVE",
"295 575 OFFCURVE",
"295 542 CURVE SMOOTH",
"295 455 LINE SMOOTH",
"295 440 OFFCURVE",
"285 424 OFFCURVE",
"272 413 CURVE SMOOTH",
"263 405 OFFCURVE",
"255 400 OFFCURVE",
"240 400 CURVE SMOOTH",
"182 400 LINE",
"182 598 LINE",
"240 598 LINE SMOOTH"
);
}
);
width = 428;
},
{
anchors = (
{
name = ogonek;
position = "{463, -1}";
},
{
name = top;
position = "{229, 700}";
}
);
layerId = "C85A4985-4A4B-40F2-9F5D-E307D783C1A5";
name = InsideLight;
paths = (
{
closed = 1;
nodes = (
"377 621 OFFCURVE",
"388 592 OFFCURVE",
"388 552 CURVE SMOOTH",
"388 458 LINE SMOOTH",
"388 433 OFFCURVE",
"381 410 OFFCURVE",
"373 393 CURVE",
"373 393 OFFCURVE",
"451 307 OFFCURVE",
"451 307 CURVE",
"461 325 OFFCURVE",
"463 345 OFFCURVE",
"463 370 CURVE SMOOTH",
"463 455 LINE SMOOTH",
"463 486 OFFCURVE",
"453 522 OFFCURVE",
"436 547 CURVE SMOOTH",
"410 584 OFFCURVE",
"353 647 OFFCURVE",
"353 647 CURVE"
);
},
{
closed = 1;
nodes = (
"182 0 LINE",
"272 -70 LINE",
"272 131 LINE",
"182 307 LINE"
);
},
{
closed = 1;
nodes = (
"182 400 LINE",
"240 400 LINE SMOOTH",
"255 400 OFFCURVE",
"263 405 OFFCURVE",
"272 413 CURVE",
"272 428 LINE",
"182 598 LINE"
);
}
);
width = 428;
},
{
anchors = (
{
name = ogonek;
position = "{463, -1}";
},
{
name = top;
position = "{229, 700}";
}
);
layerId = "2AF69027-8699-4DA7-9B20-F07C10F82EEB";
name = InsideShadow;
paths = (
{
closed = 1;
nodes = (
"345 337 OFFCURVE",
"290 307 OFFCURVE",
"240 307 CURVE SMOOTH",
"182 307 LINE",
"272 227 LINE",
"325 227 LINE SMOOTH",
"345 227 OFFCURVE",
"379 235 OFFCURVE",
"398 247 CURVE SMOOTH",
"420 261 OFFCURVE",
"438 285 OFFCURVE",
"451 307 CURVE",
"451 307 OFFCURVE",
"373 393 OFFCURVE",
"373 393 CURVE"
);
},
{
closed = 1;
nodes = (
"88 0 LINE",
"184 -70 LINE",
"272 -70 LINE",
"182 0 LINE"
);
},
{
closed = 1;
nodes = (
"272 131 LINE",
"272 227 LINE",
"182 307 LINE"
);
},
{
closed = 1;
nodes = (
"272 428 LINE",
"272 493 LINE",
"182 598 LINE"
);
},
{
closed = 1;
nodes = (
"182 598 LINE",
"272 493 LINE",
"295 493 LINE",
"295 542 LINE SMOOTH",
"295 575 OFFCURVE",
"275 598 OFFCURVE",
"240 598 CURVE SMOOTH"
);
}
);
width = 428;
},
{
anchors = (
{
name = ogonek;
position = "{463, -1}";
},
{
name = top;
position = "{229, 700}";
}
);
layerId = "251EB316-0412-4A3C-A569-0EEB43C6D9CE";
name = Shadow;
paths = (
{
closed = 1;
nodes = (
"35 474 LINE",
"35 -216 LINE",
"138 -216 LINE",
"272 -70 LINE",
"184 -70 LINE",
"88 0 LINE",
"88 526 LINE"
);
},
{
closed = 1;
nodes = (
"379 235 OFFCURVE",
"345 227 OFFCURVE",
"325 227 CURVE SMOOTH",
"272 227 LINE",
"272 131 LINE",
"280 136 OFFCURVE",
"287 141 OFFCURVE",
"295 148 CURVE SMOOTH",
"398 247 LINE"
);
},
{
closed = 1;
nodes = (
"272 493 LINE",
"272 413 LINE",
"285 424 OFFCURVE",
"295 440 OFFCURVE",
"295 455 CURVE SMOOTH",
"295 493 LINE"
);
}
);
width = 428;
}
);
unicode = 0070;
},
{
glyphname = q;
lastChange = "2014-09-19 15:51:55 +0100";
layers = (
{
anchors = (
{
name = ogonek;
position = "{483, -1}";
},
{
name = top;
position = "{249, 700}";
}
);
layerId = "8706937B-409E-4048-AB1C-4F6C90F3053E";
name = Front;
paths = (
{
closed = 1;
nodes = (
"148 706 OFFCURVE",
"83 625 OFFCURVE",
"83 537 CURVE SMOOTH",
"83 160 LINE SMOOTH",
"83 114 OFFCURVE",
"108 59 OFFCURVE",
"153 25 CURVE SMOOTH",
"166 15 OFFCURVE",
"180 6 OFFCURVE",
"196 0 CURVE",
"196 -202 LINE",
"300 -202 LINE",
"299 -1 LINE",
"357 16 OFFCURVE",
"416 65 OFFCURVE",
"416 155 CURVE",
"414 557 LINE",
"414 639 OFFCURVE",
"324 706 OFFCURVE",
"248 706 CURVE SMOOTH"
);
},
{
closed = 1;
nodes = (
"282 602 OFFCURVE",
"306 574 OFFCURVE",
"306 540 CURVE SMOOTH",
"306 172 LINE SMOOTH",
"306 153 OFFCURVE",
"305 131 OFFCURVE",
"283 114 CURVE",
"276 107 OFFCURVE",
"265 101 OFFCURVE",
"255 101 CURVE SMOOTH",
"251 101 LINE SMOOTH",
"207 101 OFFCURVE",
"186 132 OFFCURVE",
"186 166 CURVE SMOOTH",
"186 543 LINE SMOOTH",
"186 573 OFFCURVE",
"204 602 OFFCURVE",
"245 602 CURVE SMOOTH"
);
}
);
width = 464;
},
{
anchors = (
{
name = ogonek;
position = "{483, -1}";
},
{
name = top;
position = "{249, 700}";
}
);
layerId = "C85A4985-4A4B-40F2-9F5D-E307D783C1A5";
name = InsideLight;
paths = (
{
closed = 1;
nodes = (
"402 617 OFFCURVE",
"414 588 OFFCURVE",
"414 557 CURVE",
"416 155 LINE",
"499 78 LINE",
"499 436 LINE SMOOTH",
"499 471 OFFCURVE",
"488 501 OFFCURVE",
"467 529 CURVE SMOOTH",
"438 567 OFFCURVE",
"411 603 OFFCURVE",
"382 640 CURVE"
);
},
{
closed = 1;
nodes = (
"300 -202 LINE",
"397 -273 LINE",
"397 -70 LINE",
"299 -1 LINE"
);
},
{
closed = 1;
nodes = (
"186 166 LINE SMOOTH",
"186 132 OFFCURVE",
"207 101 OFFCURVE",
"251 101 CURVE SMOOTH",
"255 101 LINE",
"255 386 LINE",
"186 543 LINE"
);
}
);
width = 464;
},
{
anchors = (
{
name = ogonek;
position = "{483, -1}";
},
{
name = top;
position = "{249, 700}";
}
);
layerId = "2AF69027-8699-4DA7-9B20-F07C10F82EEB";
name = InsideShadow;
paths = (
{
closed = 1;
nodes = (
"204 602 OFFCURVE",
"186 573 OFFCURVE",
"186 543 CURVE",
"255 386 LINE",
"255 101 LINE",
"265 101 OFFCURVE",
"276 107 OFFCURVE",
"283 114 CURVE",
"283 437 LINE SMOOTH",
"283 456 OFFCURVE",
"293 471 OFFCURVE",
"306 482 CURVE",
"306 540 LINE SMOOTH",
"306 574 OFFCURVE",
"282 602 OFFCURVE",
"245 602 CURVE SMOOTH"
);
},
{
closed = 1;
nodes = (
"196 -202 LINE",
"303 -273 LINE",
"397 -273 LINE",
"300 -202 LINE"
);
},
{
closed = 1;
nodes = (
"416 65 OFFCURVE",
"357 16 OFFCURVE",
"299 -1 CURVE",
"397 -70 LINE",
"454 -48 OFFCURVE",
"499 -6 OFFCURVE",
"499 78 CURVE",
"416 155 LINE"
);
}
);
width = 464;
},
{
anchors = (
{
name = ogonek;
position = "{483, -1}";
},
{
name = top;
position = "{249, 700}";
}
);
layerId = "251EB316-0412-4A3C-A569-0EEB43C6D9CE";
name = Shadow;
paths = (
{
closed = 1;
nodes = (
"51 402 OFFCURVE",
"35 364 OFFCURVE",
"35 319 CURVE SMOOTH",
"35 -56 LINE SMOOTH",
"35 -133 OFFCURVE",
"78 -197 OFFCURVE",
"155 -215 CURVE",
"155 -419 LINE",
"287 -419 LINE",
"397 -273 LINE",
"303 -273 LINE",
"196 -202 LINE",
"196 0 LINE",
"180 6 OFFCURVE",
"166 15 OFFCURVE",
"153 25 CURVE",
"114 54 OFFCURVE",
"88 102 OFFCURVE",
"84 145 CURVE",
"83 150 OFFCURVE",
"83 162 OFFCURVE",
"83 163 CURVE SMOOTH",
"83 434 LINE"
);
},
{
closed = 1;
nodes = (
"293 471 OFFCURVE",
"283 456 OFFCURVE",
"283 437 CURVE SMOOTH",
"283 114 LINE",
"305 131 OFFCURVE",
"306 153 OFFCURVE",
"306 172 CURVE SMOOTH",
"306 482 LINE"
);
}
);
width = 464;
}
);
unicode = 0071;
},
{
glyphname = r;
lastChange = "2014-09-19 15:51:55 +0100";
layers = (
{
anchors = (
{
name = bottom;
position = "{266, 0}";
},
{
name = ogonek;
position = "{483, -1}";
},
{
name = top;
position = "{249, 700}";
}
);
layerId = "8706937B-409E-4048-AB1C-4F6C90F3053E";
name = Front;
paths = (
{
closed = 1;
nodes = (
"88 700 LINE",
"86 0 LINE",
"192 0 LINE",
"192 264 LINE",
"266 264 LINE",
"371 0 LINE",
"474 0 LINE",
"357 299 LINE",
"375 315 OFFCURVE",
"391 336 OFFCURVE",
"402 360 CURVE SMOOTH",
"411 379 OFFCURVE",
"417 402 OFFCURVE",
"417 430 CURVE SMOOTH",
"418 533 LINE SMOOTH",
"418 576 OFFCURVE",
"404 612 OFFCURVE",
"380 639 CURVE SMOOTH",
"350 675 OFFCURVE",
"304 700 OFFCURVE",
"256 700 CURVE SMOOTH"
);
},
{
closed = 1;
nodes = (
"293 598 OFFCURVE",
"316 574 OFFCURVE",
"316 539 CURVE SMOOTH",
"316 430 LINE SMOOTH",
"316 412 OFFCURVE",
"305 395 OFFCURVE",
"291 383 CURVE SMOOTH",
"281 374 OFFCURVE",
"270 369 OFFCURVE",
"261 369 CURVE SMOOTH",
"191 369 LINE",
"191 598 LINE",
"255 598 LINE SMOOTH"
);
}
);
width = 531;
},
{
anchors = (
{
name = bottom;
position = "{266, 0}";
},
{
name = ogonek;
position = "{483, -1}";
},
{
name = top;
position = "{249, 700}";
}
);
layerId = "C85A4985-4A4B-40F2-9F5D-E307D783C1A5";
name = InsideLight;
paths = (
{
closed = 1;
nodes = (
"474 0 LINE",
"566 -70 LINE",
"444 204 LINE SMOOTH",
"357 299 LINE"
);
},
{
closed = 1;
nodes = (
"192 0 LINE",
"261 -51 LINE",
"261 134 LINE",
"192 264 LINE"
);
},
{
closed = 1;
nodes = (
"191 369 LINE",
"261 369 LINE",
"261 455 LINE",
"191 598 LINE"
);
},
{
closed = 1;
nodes = (
"404 612 OFFCURVE",
"418 576 OFFCURVE",
"418 533 CURVE SMOOTH",
"417 430 LINE SMOOTH",
"417 402 OFFCURVE",
"411 379 OFFCURVE",
"402 360 CURVE",
"489 265 LINE",
"499 283 OFFCURVE",
"503 306 OFFCURVE",
"503 333 CURVE SMOOTH",
"503 428 LINE SMOOTH",
"503 464 OFFCURVE",
"491 502 OFFCURVE",
"471 529 CURVE SMOOTH",
"444 566 OFFCURVE",
"404 612 OFFCURVE",
"380 639 CURVE"
);
}
);
width = 531;
},
{
anchors = (
{
name = bottom;
position = "{266, 0}";
},
{
name = ogonek;
position = "{483, -1}";
},
{
name = top;
position = "{249, 700}";
}
);
layerId = "2AF69027-8699-4DA7-9B20-F07C10F82EEB";
name = InsideShadow;
paths = (
{
closed = 1;
nodes = (
"261 134 LINE",
"261 -51 LINE",
"291 -70 LINE",
"291 178 LINE",
"192 264 LINE"
);
},
{
closed = 1;
nodes = (
"86 0 LINE",
"188 -70 LINE",
"291 -70 LINE",
"192 0 LINE"
);
},
{
closed = 1;
nodes = (
"371 0 LINE",
"467 -70 LINE",
"566 -70 LINE",
"474 0 LINE"
);
},
{
closed = 1;
nodes = (
"192 264 LINE",
"291 178 LINE",
"300 178 LINE",
"266 264 LINE"
);
},
{
closed = 1;
nodes = (
"391 336 OFFCURVE",
"375 315 OFFCURVE",
"357 299 CURVE",
"444 204 LINE",
"462 220 OFFCURVE",
"478 241 OFFCURVE",
"489 265 CURVE",
"402 360 LINE"
);
},
{
closed = 1;
nodes = (
"261 455 LINE",
"261 369 LINE",
"269 369 OFFCURVE",
"281 374 OFFCURVE",
"291 383 CURVE",
"291 493 LINE",
"191 598 LINE"
);
},
{
closed = 1;
nodes = (
"191 598 LINE",
"291 493 LINE",
"316 493 LINE",
"316 539 LINE SMOOTH",
"316 574 OFFCURVE",
"293 598 OFFCURVE",
"255 598 CURVE SMOOTH"
);
}
);
width = 531;
},
{
anchors = (
{
name = bottom;
position = "{266, 0}";
},
{
name = ogonek;
position = "{483, -1}";
},
{
name = top;
position = "{249, 700}";
}
);
layerId = "251EB316-0412-4A3C-A569-0EEB43C6D9CE";
name = Shadow;
paths = (
{
closed = 1;
nodes = (
"35 423 LINE",
"35 -216 LINE",
"234 -216 LINE",
"270 -170 LINE",
"270 -216 LINE",
"421 -216 LINE",
"566 -70 LINE",
"467 -70 LINE",
"371 0 LINE",
"300 178 LINE",
"291 178 LINE",
"291 -70 LINE",
"188 -70 LINE",
"86 0 LINE",
"88 509 LINE"
);
},
{
closed = 1;
nodes = (
"291 493 LINE",
"291 383 LINE",
"305 395 OFFCURVE",
"316 412 OFFCURVE",
"316 430 CURVE SMOOTH",
"316 493 LINE"
);
}
);
width = 531;
}
);
unicode = 0072;
},
{
glyphname = s;
lastChange = "2014-09-19 15:51:55 +0100";
layers = (
{
anchors = (
{
name = bottom;
position = "{256, 0}";
},
{
name = ogonek;
position = "{493, -1}";
},
{
name = top;
position = "{259, 700}";
}
);
layerId = "8706937B-409E-4048-AB1C-4F6C90F3053E";
name = Front;
paths = (
{
closed = 1;
nodes = (
"158 706 OFFCURVE",
"93 625 OFFCURVE",
"93 537 CURVE",
"93 478 LINE",
"115 452 LINE",
"316 219 LINE",
"316 172 LINE SMOOTH",
"316 150 OFFCURVE",
"308 124 OFFCURVE",
"293 111 CURVE SMOOTH",
"284 104 OFFCURVE",
"277 101 OFFCURVE",
"265 101 CURVE",
"217 101 OFFCURVE",
"196 132 OFFCURVE",
"196 166 CURVE SMOOTH",
"196 266 LINE",
"93 266 LINE",
"93 160 LINE SMOOTH",
"93 114 OFFCURVE",
"118 58 OFFCURVE",
"164 25 CURVE SMOOTH",
"192 5 OFFCURVE",
"222 -8 OFFCURVE",
"261 -8 CURVE SMOOTH",
"328 -8 OFFCURVE",
"426 39 OFFCURVE",
"426 155 CURVE SMOOTH",
"426 242 LINE",
"203 507 LINE",
"203 540 LINE",
"204 574 OFFCURVE",
"224 602 OFFCURVE",
"260 602 CURVE SMOOTH",
"301 602 OFFCURVE",
"323 581 OFFCURVE",
"323 543 CURVE SMOOTH",
"323 463 LINE",
"426 463 LINE",
"424 557 LINE",
"424 588 OFFCURVE",
"411 615 OFFCURVE",
"392 639 CURVE SMOOTH",
"359 679 OFFCURVE",
"306 706 OFFCURVE",
"258 706 CURVE SMOOTH"
);
}
);
width = 512;
},
{
anchors = (
{
name = bottom;
position = "{256, 0}";
},
{
name = ogonek;
position = "{493, -1}";
},
{
name = top;
position = "{259, 700}";
}
);
layerId = "C85A4985-4A4B-40F2-9F5D-E307D783C1A5";
name = InsideLight;
paths = (
{
closed = 1;
nodes = (
"203 507 LINE",
"426 242 LINE",
"511 172 LINE",
"404 301 LINE",
"343 353 LINE",
"228 490 LINE",
"203 540 LINE"
);
},
{
closed = 1;
nodes = (
"196 166 LINE",
"196 132 OFFCURVE",
"217 101 OFFCURVE",
"265 101 CURVE",
"265 224 LINE",
"196 266 LINE"
);
},
{
closed = 1;
nodes = (
"426 155 LINE",
"509 78 LINE",
"511 172 LINE",
"426 242 LINE"
);
},
{
closed = 1;
nodes = (
"411 615 OFFCURVE",
"424 588 OFFCURVE",
"424 557 CURVE",
"426 463 LINE",
"512 394 LINE",
"512 425 LINE SMOOTH",
"512 460 OFFCURVE",
"497 500 OFFCURVE",
"477 529 CURVE SMOOTH",
"430 598 OFFCURVE",
"421 607 OFFCURVE",
"392 639 CURVE"
);
}
);
width = 512;
},
{
anchors = (
{
name = bottom;
position = "{256, 0}";
},
{
name = ogonek;
position = "{493, -1}";
},
{
name = top;
position = "{259, 700}";
}
);
layerId = "2AF69027-8699-4DA7-9B20-F07C10F82EEB";
name = InsideShadow;
paths = (
{
closed = 1;
nodes = (
"426 39 OFFCURVE",
"328 -8 OFFCURVE",
"261 -8 CURVE SMOOTH",
"222 -8 OFFCURVE",
"192 5 OFFCURVE",
"164 25 CURVE",
"276 -56 LINE",
"295 -71 OFFCURVE",
"317 -77 OFFCURVE",
"357 -77 CURVE SMOOTH",
"378 -77 OFFCURVE",
"427 -75 OFFCURVE",
"471 -30 CURVE SMOOTH",
"484 -17 OFFCURVE",
"509 16 OFFCURVE",
"509 78 CURVE",
"426 155 LINE"
);
},
{
closed = 1;
nodes = (
"265 101 LINE",
"277 101 OFFCURVE",
"284 104 OFFCURVE",
"293 111 CURVE",
"293 207 LINE",
"265 224 LINE"
);
},
{
closed = 1;
nodes = (
"224 602 OFFCURVE",
"204 574 OFFCURVE",
"203 540 CURVE",
"228 490 LINE",
"343 353 LINE",
"404 301 LINE",
"288 447 LINE",
"288 470 LINE",
"289 496 OFFCURVE",
"301 518 OFFCURVE",
"323 527 CURVE",
"323 543 LINE",
"323 581 OFFCURVE",
"301 602 OFFCURVE",
"260 602 CURVE SMOOTH"
);
},
{
closed = 1;
nodes = (
"323 463 LINE",
"416 394 LINE",
"512 394 LINE",
"426 463 LINE"
);
}
);
width = 512;
},
{
anchors = (
{
name = bottom;
position = "{256, 0}";
},
{
name = ogonek;
position = "{493, -1}";
},
{
name = top;
position = "{259, 700}";
}
);
layerId = "251EB316-0412-4A3C-A569-0EEB43C6D9CE";
name = Shadow;
paths = (
{
closed = 1;
nodes = (
"69 420 OFFCURVE",
"34 364 OFFCURVE",
"35 319 CURVE SMOOTH",
"36 262 LINE",
"93 160 LINE",
"35 48 LINE",
"35 -56 LINE SMOOTH",
"35 -147 OFFCURVE",
"98 -220 OFFCURVE",
"201 -220 CURVE SMOOTH",
"245 -220 OFFCURVE",
"290 -204 OFFCURVE",
"323 -173 CURVE SMOOTH",
"464 -37 LINE",
"422 -75 OFFCURVE",
"377 -77 OFFCURVE",
"357 -77 CURVE SMOOTH",
"317 -77 OFFCURVE",
"295 -71 OFFCURVE",
"276 -56 CURVE",
"164 25 LINE SMOOTH",
"118 58 OFFCURVE",
"93 114 OFFCURVE",
"93 160 CURVE SMOOTH",
"93 266 LINE",
"196 266 LINE",
"293 207 LINE",
"293 111 LINE",
"308 124 OFFCURVE",
"316 150 OFFCURVE",
"316 172 CURVE SMOOTH",
"316 219 LINE",
"115 452 LINE"
);
},
{
closed = 1;
nodes = (
"464 -37 LINE",
"471 -30 LINE"
);
},
{
closed = 1;
nodes = (
"301 518 OFFCURVE",
"289 496 OFFCURVE",
"288 470 CURVE",
"288 447 LINE",
"404 301 LINE",
"512 394 LINE",
"416 394 LINE",
"323 463 LINE",
"323 527 LINE"
);
}
);
width = 512;
}
);
unicode = 0073;
},
{
glyphname = germandbls;
lastChange = "2014-09-19 15:51:55 +0100";
layers = (
{
anchors = (
{
name = ogonek;
position = "{483, -1}";
},
{
name = top;
position = "{249, 700}";
}
);
layerId = "8706937B-409E-4048-AB1C-4F6C90F3053E";
name = Front;
paths = (
{
closed = 1;
nodes = (
"148 706 OFFCURVE",
"83 625 OFFCURVE",
"83 537 CURVE SMOOTH",
"83 -120 LINE",
"186 -120 LINE",
"186 543 LINE SMOOTH",
"186 573 OFFCURVE",
"204 602 OFFCURVE",
"245 602 CURVE SMOOTH",
"282 602 OFFCURVE",
"306 574 OFFCURVE",
"306 540 CURVE SMOOTH",
"306 501 LINE SMOOTH",
"306 479 OFFCURVE",
"294 453 OFFCURVE",
"278 435 CURVE SMOOTH",
"212 358 LINE",
"286 256 LINE SMOOTH",
"303 233 OFFCURVE",
"310 217 OFFCURVE",
"310 195 CURVE SMOOTH",
"310 163 LINE",
"310 149 OFFCURVE",
"299 137 OFFCURVE",
"281 137 CURVE",
"213 137 LINE",
"213 29 LINE",
"300 29 LINE",
"357 29 OFFCURVE",
"416 79 OFFCURVE",
"416 139 CURVE",
"416 179 LINE SMOOTH",
"416 226 OFFCURVE",
"406 256 OFFCURVE",
"378 298 CURVE SMOOTH",
"341 354 LINE",
"378 396 LINE SMOOTH",
"397 418 OFFCURVE",
"414 459 OFFCURVE",
"414 500 CURVE SMOOTH",
"414 557 LINE",
"414 583 OFFCURVE",
"405 607 OFFCURVE",
"391 628 CURVE SMOOTH",
"359 674 OFFCURVE",
"300 706 OFFCURVE",
"248 706 CURVE SMOOTH"
);
}
);
width = 484;
},
{
anchors = (
{
name = ogonek;
position = "{483, -1}";
},
{
name = top;
position = "{249, 700}";
}
);
layerId = "C85A4985-4A4B-40F2-9F5D-E307D783C1A5";
name = InsideLight;
paths = (
{
closed = 1;
nodes = (
"186 -120 LINE",
"269 -189 LINE",
"240 -124 LINE",
"240 4 LINE",
"213 29 LINE",
"213 137 LINE",
"240 137 LINE",
"240 319 LINE",
"212 358 LINE",
"249 399 LINE",
"186 543 LINE"
);
},
{
closed = 1;
nodes = (
"378 298 LINE SMOOTH",
"406 256 OFFCURVE",
"416 226 OFFCURVE",
"416 179 CURVE SMOOTH",
"416 139 LINE",
"499 70 LINE",
"499 112 LINE SMOOTH",
"499 144 OFFCURVE",
"486 180 OFFCURVE",
"469 206 CURVE SMOOTH",
"423 277 LINE",
"341 354 LINE"
);
},
{
closed = 1;
nodes = (
"405 607 OFFCURVE",
"413 584 OFFCURVE",
"414 557 CURVE",
"414 500 LINE SMOOTH",
"414 459 OFFCURVE",
"397 418 OFFCURVE",
"378 396 CURVE",
"462 319 LINE",
"485 346 OFFCURVE",
"499 397 OFFCURVE",
"499 436 CURVE SMOOTH",
"499 473 OFFCURVE",
"488 501 OFFCURVE",
"467 529 CURVE SMOOTH",
"438 567 OFFCURVE",
"420 591 OFFCURVE",
"391 628 CURVE"
);
}
);
width = 484;
},
{
anchors = (
{
name = ogonek;
position = "{483, -1}";
},
{
name = top;
position = "{249, 700}";
}
);
layerId = "2AF69027-8699-4DA7-9B20-F07C10F82EEB";
name = InsideShadow;
paths = (
{
closed = 1;
nodes = (
"416 79 OFFCURVE",
"357 29 OFFCURVE",
"300 29 CURVE",
"383 -40 LINE",
"410 -40 OFFCURVE",
"439 -28 OFFCURVE",
"461 -9 CURVE SMOOTH",
"484 11 OFFCURVE",
"499 39 OFFCURVE",
"499 70 CURVE",
"416 139 LINE"
);
},
{
closed = 1;
nodes = (
"83 -120 LINE",
"170 -189 LINE",
"269 -189 LINE",
"186 -120 LINE"
);
},
{
closed = 1;
nodes = (
"240 -124 LINE",
"269 -189 LINE",
"269 -23 LINE",
"240 4 LINE"
);
},
{
closed = 1;
nodes = (
"213 29 LINE",
"287 -40 LINE",
"383 -40 LINE",
"300 29 LINE"
);
},
{
closed = 1;
nodes = (
"240 137 LINE",
"269 137 LINE",
"269 280 LINE",
"240 320 LINE"
);
},
{
closed = 1;
nodes = (
"204 602 OFFCURVE",
"186 573 OFFCURVE",
"186 543 CURVE",
"249 399 LINE",
"283 440 LINE",
"283 443 LINE SMOOTH",
"283 465 OFFCURVE",
"293 478 OFFCURVE",
"306 489 CURVE",
"306 540 LINE SMOOTH",
"306 574 OFFCURVE",
"282 602 OFFCURVE",
"245 602 CURVE SMOOTH"
);
},
{
closed = 1;
nodes = (
"341 354 LINE",
"423 277 LINE",
"462 319 LINE",
"378 396 LINE"
);
}
);
width = 484;
},
{
anchors = (
{
name = ogonek;
position = "{483, -1}";
},
{
name = top;
position = "{249, 700}";
}
);
layerId = "251EB316-0412-4A3C-A569-0EEB43C6D9CE";
name = Shadow;
paths = (
{
closed = 1;
nodes = (
"51 412 OFFCURVE",
"35 364 OFFCURVE",
"35 319 CURVE SMOOTH",
"35 -320 LINE",
"139 -320 LINE",
"269 -189 LINE",
"170 -189 LINE",
"83 -120 LINE",
"83 444 LINE"
);
},
{
closed = 1;
nodes = (
"439 -28 OFFCURVE",
"410 -40 OFFCURVE",
"383 -40 CURVE",
"287 -40 LINE",
"269 -23 LINE",
"269 -189 LINE",
"461 -9 LINE"
);
},
{
closed = 1;
nodes = (
"269 137 LINE",
"281 137 LINE",
"296 137 OFFCURVE",
"310 146 OFFCURVE",
"310 163 CURVE",
"310 223 LINE",
"269 280 LINE"
);
},
{
closed = 1;
nodes = (
"293 478 OFFCURVE",
"283 464 OFFCURVE",
"283 444 CURVE SMOOTH",
"283 440 LINE",
"306 467 LINE",
"306 489 LINE"
);
}
);
width = 484;
}
);
unicode = 00DF;
},
{
glyphname = t;
lastChange = "2014-09-19 15:51:55 +0100";
layers = (
{
anchors = (
{
name = ogonek;
position = "{513, -1}";
},
{
name = top;
position = "{279, 700}";
}
);
layerId = "8706937B-409E-4048-AB1C-4F6C90F3053E";
name = Front;
paths = (
{
closed = 1;
nodes = (
"89 699 LINE",
"88 598 LINE",
"233 598 LINE",
"233 0 LINE",
"338 0 LINE",
"338 598 LINE",
"483 598 LINE",
"483 699 LINE"
);
}
);
width = 534;
},
{
anchors = (
{
name = ogonek;
position = "{513, -1}";
},
{
name = top;
position = "{279, 700}";
}
);
layerId = "C85A4985-4A4B-40F2-9F5D-E307D783C1A5";
name = InsideLight;
paths = (
{
closed = 1;
nodes = (
"338 0 LINE",
"438 -70 LINE",
"438 338 LINE",
"338 598 LINE"
);
},
{
closed = 1;
nodes = (
"483 598 LINE",
"569 493 LINE",
"569 587 LINE",
"483 699 LINE"
);
}
);
width = 534;
},
{
anchors = (
{
name = ogonek;
position = "{513, -1}";
},
{
name = top;
position = "{279, 700}";
}
);
layerId = "2AF69027-8699-4DA7-9B20-F07C10F82EEB";
name = InsideShadow;
paths = (
{
closed = 1;
nodes = (
"438 338 LINE",
"438 493 LINE",
"338 598 LINE"
);
},
{
closed = 1;
nodes = (
"335 -70 LINE",
"438 -70 LINE",
"338 0 LINE",
"233 0 LINE"
);
},
{
closed = 1;
nodes = (
"88 598 LINE",
"184 493 LINE",
"233 493 LINE",
"233 598 LINE"
);
},
{
closed = 1;
nodes = (
"338 598 LINE",
"438 493 LINE",
"569 493 LINE",
"483 598 LINE"
);
}
);
width = 534;
},
{
anchors = (
{
name = ogonek;
position = "{513, -1}";
},
{
name = top;
position = "{279, 700}";
}
);
layerId = "251EB316-0412-4A3C-A569-0EEB43C6D9CE";
name = Shadow;
paths = (
{
closed = 1;
nodes = (
"35 500 LINE",
"35 376 LINE",
"175 376 LINE",
"175 -216 LINE",
"288 -216 LINE",
"438 -70 LINE",
"335 -70 LINE",
"233 0 LINE",
"233 493 LINE",
"184 493 LINE",
"118 566 LINE"
);
},
{
closed = 1;
nodes = (
"438 493 LINE",
"438 338 LINE",
"569 493 LINE"
);
}
);
width = 534;
}
);
unicode = 0074;
},
{
glyphname = u;
lastChange = "2014-09-19 15:51:55 +0100";
layers = (
{
anchors = (
{
name = ogonek;
position = "{243, -8}";
},
{
name = top;
position = "{229, 700}";
}
);
layerId = "8706937B-409E-4048-AB1C-4F6C90F3053E";
name = Front;
paths = (
{
closed = 1;
nodes = (
"296 700 LINE",
"296 172 LINE SMOOTH",
"296 153 OFFCURVE",
"295 131 OFFCURVE",
"273 114 CURVE",
"266 107 OFFCURVE",
"255 101 OFFCURVE",
"245 101 CURVE SMOOTH",
"241 101 LINE SMOOTH",
"197 101 OFFCURVE",
"176 132 OFFCURVE",
"176 166 CURVE SMOOTH",
"176 700 LINE",
"73 700 LINE",
"73 163 LINE SMOOTH",
"73 113 OFFCURVE",
"104 54 OFFCURVE",
"143 25 CURVE SMOOTH",
"170 5 OFFCURVE",
"202 -8 OFFCURVE",
"241 -8 CURVE SMOOTH",
"308 -8 OFFCURVE",
"402 39 OFFCURVE",
"402 155 CURVE SMOOTH",
"401 700 LINE"
);
}
);
width = 474;
},
{
anchors = (
{
name = ogonek;
position = "{243, -8}";
},
{
name = top;
position = "{229, 700}";
}
);
layerId = "C85A4985-4A4B-40F2-9F5D-E307D783C1A5";
name = InsideLight;
paths = (
{
closed = 1;
nodes = (
"402 155 LINE",
"487 78 LINE",
"487 585 LINE",
"401 700 LINE"
);
},
{
closed = 1;
nodes = (
"176 166 LINE SMOOTH",
"176 132 OFFCURVE",
"197 101 OFFCURVE",
"241 101 CURVE SMOOTH",
"245 101 LINE",
"245 496 LINE",
"273 460 LINE",
"273 587 LINE",
"176 700 LINE"
);
}
);
width = 474;
},
{
anchors = (
{
name = ogonek;
position = "{243, -8}";
},
{
name = top;
position = "{229, 700}";
}
);
layerId = "2AF69027-8699-4DA7-9B20-F07C10F82EEB";
name = InsideShadow;
paths = (
{
closed = 1;
nodes = (
"402 39 OFFCURVE",
"308 -8 OFFCURVE",
"241 -8 CURVE SMOOTH",
"202 -8 OFFCURVE",
"170 5 OFFCURVE",
"143 25 CURVE",
"170 5 OFFCURVE",
"232 -42 OFFCURVE",
"256 -56 CURVE SMOOTH",
"277 -67 OFFCURVE",
"297 -77 OFFCURVE",
"337 -77 CURVE SMOOTH",
"358 -77 OFFCURVE",
"407 -70 OFFCURVE",
"451 -30 CURVE SMOOTH",
"465 -18 OFFCURVE",
"489 16 OFFCURVE",
"487 78 CURVE",
"402 155 LINE"
);
},
{
closed = 1;
nodes = (
"245 496 LINE",
"245 101 LINE",
"255 101 OFFCURVE",
"266 107 OFFCURVE",
"273 114 CURVE",
"273 460 LINE"
);
}
);
width = 474;
},
{
anchors = (
{
name = ogonek;
position = "{243, -8}";
},
{
name = top;
position = "{229, 700}";
}
);
layerId = "251EB316-0412-4A3C-A569-0EEB43C6D9CE";
name = Shadow;
paths = (
{
closed = 1;
nodes = (
"25 463 LINE",
"25 -56 LINE SMOOTH",
"25 -147 OFFCURVE",
"85 -220 OFFCURVE",
"188 -220 CURVE SMOOTH",
"232 -220 OFFCURVE",
"270 -204 OFFCURVE",
"303 -173 CURVE SMOOTH",
"451 -30 LINE",
"407 -70 OFFCURVE",
"358 -77 OFFCURVE",
"337 -77 CURVE SMOOTH",
"297 -77 OFFCURVE",
"277 -67 OFFCURVE",
"256 -56 CURVE",
"232 -42 OFFCURVE",
"170 5 OFFCURVE",
"143 25 CURVE",
"104 54 OFFCURVE",
"73 113 OFFCURVE",
"73 163 CURVE SMOOTH",
"73 510 LINE"
);
},
{
closed = 1;
nodes = (
"273 460 LINE",
"273 114 LINE",
"295 131 OFFCURVE",
"296 153 OFFCURVE",
"296 172 CURVE SMOOTH",
"296 500 LINE"
);
}
);
width = 474;
}
);
unicode = 0075;
},
{
glyphname = v;
lastChange = "2014-09-19 15:51:55 +0100";
layers = (
{
anchors = (
{
name = ogonek;
position = "{463, -1}";
},
{
name = top;
position = "{229, 700}";
}
);
layerId = "8706937B-409E-4048-AB1C-4F6C90F3053E";
name = Front;
paths = (
{
closed = 1;
nodes = (
"316 700 LINE",
"231 157 LINE",
"142 700 LINE",
"34 700 LINE",
"139 107 LINE",
"87 107 LINE",
"87 0 LINE",
"378 0 LINE",
"378 107 LINE",
"322 107 LINE",
"426 700 LINE"
);
}
);
width = 473;
},
{
anchors = (
{
name = ogonek;
position = "{463, -1}";
},
{
name = top;
position = "{229, 700}";
}
);
layerId = "C85A4985-4A4B-40F2-9F5D-E307D783C1A5";
name = InsideLight;
paths = (
{
closed = 1;
nodes = (
"322 107 LINE",
"378 107 LINE",
"419 72 LINE",
"508 585 LINE",
"426 700 LINE"
);
},
{
closed = 1;
nodes = (
"378 0 LINE",
"470 -70 LINE",
"470 29 LINE",
"378 107 LINE"
);
},
{
closed = 1;
nodes = (
"231 157 LINE",
"271 409 LINE",
"242 583 LINE",
"142 700 LINE"
);
}
);
width = 473;
},
{
anchors = (
{
name = ogonek;
position = "{463, -1}";
},
{
name = top;
position = "{229, 700}";
}
);
layerId = "2AF69027-8699-4DA7-9B20-F07C10F82EEB";
name = InsideShadow;
paths = (
{
closed = 1;
nodes = (
"87 0 LINE",
"183 -70 LINE",
"470 -70 LINE",
"378 0 LINE"
);
}
);
width = 473;
},
{
anchors = (
{
name = ogonek;
position = "{463, -1}";
},
{
name = top;
position = "{229, 700}";
}
);
layerId = "251EB316-0412-4A3C-A569-0EEB43C6D9CE";
name = Shadow;
paths = (
{
closed = 1;
nodes = (
"-10 476 LINE",
"82 -45 LINE",
"34 -101 LINE",
"34 -216 LINE",
"325 -216 LINE",
"470 -70 LINE",
"183 -70 LINE",
"87 0 LINE",
"87 107 LINE",
"139 107 LINE",
"61 544 LINE"
);
},
{
closed = 1;
nodes = (
"253 516 LINE",
"271 409 LINE",
"293 549 LINE"
);
}
);
width = 473;
}
);
unicode = 0076;
},
{
glyphname = w;
lastChange = "2014-09-19 15:51:55 +0100";
layers = (
{
anchors = (
{
name = ogonek;
position = "{623, -1}";
},
{
name = top;
position = "{389, 700}";
}
);
layerId = "8706937B-409E-4048-AB1C-4F6C90F3053E";
name = Front;
paths = (
{
closed = 1;
nodes = (
"636 700 LINE",
"551 157 LINE",
"462 700 LINE",
"317 700 LINE",
"232 157 LINE",
"143 700 LINE",
"35 700 LINE",
"159 0 LINE",
"304 0 LINE",
"392 495 LINE",
"445 186 LINE",
"478 0 LINE",
"623 0 LINE",
"747 700 LINE"
);
}
);
width = 802;
},
{
anchors = (
{
name = ogonek;
position = "{623, -1}";
},
{
name = top;
position = "{389, 700}";
}
);
layerId = "C85A4985-4A4B-40F2-9F5D-E307D783C1A5";
name = InsideLight;
paths = (
{
closed = 1;
nodes = (
"623 0 LINE",
"715 -70 LINE",
"837 581 LINE",
"747 700 LINE"
);
},
{
closed = 1;
nodes = (
"304 0 LINE",
"396 -70 LINE",
"403 -35 LINE",
"377 162 LINE",
"354 280 LINE"
);
},
{
closed = 1;
nodes = (
"232 157 LINE",
"262 341 LINE",
"226 542 LINE",
"254 516 LINE",
"243 583 LINE",
"143 700 LINE"
);
},
{
closed = 1;
nodes = (
"551 157 LINE",
"581 341 LINE",
"545 542 LINE",
"573 516 LINE",
"562 583 LINE",
"462 700 LINE"
);
}
);
width = 802;
},
{
anchors = (
{
name = ogonek;
position = "{623, -1}";
},
{
name = top;
position = "{389, 700}";
}
);
layerId = "2AF69027-8699-4DA7-9B20-F07C10F82EEB";
name = InsideShadow;
paths = (
{
closed = 1;
nodes = (
"354 280 LINE",
"377 162 LINE",
"403 -35 LINE",
"445 186 LINE",
"392 495 LINE"
);
},
{
closed = 1;
nodes = (
"159 0 LINE",
"255 -70 LINE",
"396 -70 LINE",
"304 0 LINE"
);
},
{
closed = 1;
nodes = (
"478 0 LINE",
"574 -70 LINE",
"715 -70 LINE",
"623 0 LINE"
);
},
{
closed = 1;
nodes = (
"262 341 LINE",
"272 409 LINE",
"254 516 LINE",
"226 542 LINE"
);
},
{
closed = 1;
nodes = (
"581 341 LINE",
"591 409 LINE",
"573 516 LINE",
"545 542 LINE"
);
}
);
width = 802;
},
{
anchors = (
{
name = ogonek;
position = "{623, -1}";
},
{
name = top;
position = "{389, 700}";
}
);
layerId = "251EB316-0412-4A3C-A569-0EEB43C6D9CE";
name = Shadow;
paths = (
{
closed = 1;
nodes = (
"-15 522 LINE",
"113 -216 LINE",
"326 -216 LINE",
"396 -70 LINE",
"255 -70 LINE",
"159 0 LINE",
"66 522 LINE"
);
},
{
closed = 1;
nodes = (
"403 -35 LINE",
"432 -216 LINE",
"645 -216 LINE",
"715 -70 LINE",
"574 -70 LINE",
"478 0 LINE",
"445 186 LINE"
);
},
{
closed = 1;
nodes = (
"254 516 LINE",
"272 409 LINE",
"294 549 LINE"
);
},
{
closed = 1;
nodes = (
"573 516 LINE",
"591 409 LINE",
"613 549 LINE"
);
}
);
width = 802;
}
);
unicode = 0077;
},
{
glyphname = x;
lastChange = "2014-09-19 15:51:55 +0100";
layers = (
{
anchors = (
{
name = ogonek;
position = "{513, -1}";
},
{
name = top;
position = "{279, 700}";
}
);
layerId = "8706937B-409E-4048-AB1C-4F6C90F3053E";
name = Front;
paths = (
{
closed = 1;
nodes = (
"337 700 LINE",
"288 414 LINE",
"217 700 LINE",
"89 700 LINE",
"184 341 LINE",
"97 0 LINE",
"233 0 LINE",
"292 299 LINE",
"353 38 LINE",
"363 0 LINE",
"498 0 LINE",
"462 109 LINE",
"405 341 LINE",
"440 576 LINE",
"464 700 LINE"
);
}
);
width = 600;
},
{
anchors = (
{
name = ogonek;
position = "{513, -1}";
},
{
name = top;
position = "{279, 700}";
}
);
layerId = "C85A4985-4A4B-40F2-9F5D-E307D783C1A5";
name = InsideLight;
paths = (
{
closed = 1;
nodes = (
"462 109 LINE",
"498 0 LINE",
"586 -70 LINE",
"547 50 LINE",
"493 261 LINE",
"405 341 LINE"
);
},
{
closed = 1;
nodes = (
"233 0 LINE",
"282 -36 LINE",
"313 88 LINE",
"292 299 LINE"
);
},
{
closed = 1;
nodes = (
"288 414 LINE",
"297 468 LINE",
"286 533 LINE",
"306 518 LINE",
"319 594 LINE",
"217 700 LINE"
);
}
);
width = 600;
},
{
anchors = (
{
name = ogonek;
position = "{513, -1}";
},
{
name = top;
position = "{279, 700}";
}
);
layerId = "2AF69027-8699-4DA7-9B20-F07C10F82EEB";
name = InsideShadow;
paths = (
{
closed = 1;
nodes = (
"440 576 LINE",
"405 341 LINE",
"493 261 LINE",
"530 494 LINE",
"549 588 LINE",
"464 700 LINE"
);
},
{
closed = 1;
nodes = (
"97 0 LINE",
"204 -70 LINE",
"330 -70 LINE",
"233 0 LINE"
);
},
{
closed = 1;
nodes = (
"313 88 LINE",
"282 -36 LINE",
"330 -70 LINE",
"353 38 LINE",
"292 299 LINE"
);
},
{
closed = 1;
nodes = (
"453 -70 LINE",
"586 -70 LINE",
"498 0 LINE",
"363 0 LINE"
);
},
{
closed = 1;
nodes = (
"297 468 LINE",
"306 518 LINE",
"286 533 LINE"
);
}
);
width = 600;
},
{
anchors = (
{
name = ogonek;
position = "{513, -1}";
},
{
name = top;
position = "{279, 700}";
}
);
layerId = "251EB316-0412-4A3C-A569-0EEB43C6D9CE";
name = Shadow;
paths = (
{
closed = 1;
nodes = (
"23 487 LINE",
"117 131 LINE",
"31 -216 LINE",
"275 -216 LINE",
"288 -169 LINE",
"301 -216 LINE",
"432 -216 LINE",
"585 -70 LINE",
"453 -70 LINE",
"363 0 LINE",
"353 38 LINE",
"330 -70 LINE",
"204 -70 LINE",
"97 0 LINE",
"184 341 LINE",
"122 580 LINE"
);
}
);
width = 600;
}
);
unicode = 0078;
},
{
glyphname = y;
lastChange = "2014-09-19 15:51:55 +0100";
layers = (
{
anchors = (
{
name = ogonek;
position = "{483, -1}";
},
{
name = top;
position = "{249, 700}";
}
);
layerId = "8706937B-409E-4048-AB1C-4F6C90F3053E";
name = Front;
paths = (
{
closed = 1;
nodes = (
"305 700 LINE",
"305 446 LINE SMOOTH",
"305 427 OFFCURVE",
"304 405 OFFCURVE",
"282 388 CURVE",
"275 381 OFFCURVE",
"264 375 OFFCURVE",
"254 375 CURVE SMOOTH",
"250 375 LINE SMOOTH",
"206 375 OFFCURVE",
"185 406 OFFCURVE",
"185 440 CURVE SMOOTH",
"185 700 LINE",
"82 700 LINE",
"82 437 LINE SMOOTH",
"82 356 OFFCURVE",
"128 299 OFFCURVE",
"197 274 CURVE",
"197 0 LINE",
"302 0 LINE",
"302 274 LINE",
"355 291 OFFCURVE",
"411 345 OFFCURVE",
"411 429 CURVE",
"410 700 LINE"
);
}
);
width = 470;
},
{
anchors = (
{
name = ogonek;
position = "{483, -1}";
},
{
name = top;
position = "{249, 700}";
}
);
layerId = "C85A4985-4A4B-40F2-9F5D-E307D783C1A5";
name = InsideLight;
paths = (
{
closed = 1;
nodes = (
"302 0 LINE",
"400 -70 LINE",
"400 186 LINE",
"302 253 LINE"
);
},
{
closed = 1;
nodes = (
"185 440 LINE SMOOTH",
"185 406 OFFCURVE",
"206 375 OFFCURVE",
"250 375 CURVE SMOOTH",
"254 375 LINE",
"254 500 LINE",
"282 460 LINE",
"282 586 LINE",
"185 700 LINE"
);
},
{
closed = 1;
nodes = (
"411 429 LINE",
"496 352 LINE",
"496 585 LINE",
"410 700 LINE"
);
}
);
width = 470;
},
{
anchors = (
{
name = ogonek;
position = "{483, -1}";
},
{
name = top;
position = "{249, 700}";
}
);
layerId = "2AF69027-8699-4DA7-9B20-F07C10F82EEB";
name = InsideShadow;
paths = (
{
closed = 1;
nodes = (
"411 346 OFFCURVE",
"356 291 OFFCURVE",
"302 274 CURVE",
"400 206 LINE",
"415 210 OFFCURVE",
"433 220 OFFCURVE",
"460 244 CURVE SMOOTH",
"474 257 OFFCURVE",
"498 290 OFFCURVE",
"496 352 CURVE",
"411 429 LINE"
);
},
{
closed = 1;
nodes = (
"197 0 LINE",
"305 -70 LINE",
"400 -70 LINE",
"302 0 LINE"
);
},
{
closed = 1;
nodes = (
"302 253 LINE",
"400 186 LINE",
"400 206 LINE",
"302 274 LINE"
);
},
{
closed = 1;
nodes = (
"254 375 LINE",
"265 375 OFFCURVE",
"276 382 OFFCURVE",
"282 388 CURVE",
"282 460 LINE",
"254 500 LINE"
);
}
);
width = 470;
},
{
anchors = (
{
name = ogonek;
position = "{483, -1}";
},
{
name = top;
position = "{249, 700}";
}
);
layerId = "251EB316-0412-4A3C-A569-0EEB43C6D9CE";
name = Shadow;
paths = (
{
closed = 1;
nodes = (
"34 463 LINE",
"34 218 LINE SMOOTH",
"34 127 OFFCURVE",
"94 54 OFFCURVE",
"197 54 CURVE",
"197 274 LINE",
"128 299 OFFCURVE",
"82 356 OFFCURVE",
"82 437 CURVE SMOOTH",
"82 510 LINE"
);
},
{
closed = 1;
nodes = (
"153 24 LINE",
"153 -216 LINE",
"287 -216 LINE",
"400 -70 LINE",
"305 -70 LINE",
"197 0 LINE",
"197 65 LINE"
);
},
{
closed = 1;
nodes = (
"433 220 OFFCURVE",
"415 210 OFFCURVE",
"400 206 CURVE",
"400 186 LINE",
"460 244 LINE"
);
},
{
closed = 1;
nodes = (
"282 460 LINE",
"282 388 LINE",
"304 405 OFFCURVE",
"305 427 OFFCURVE",
"305 446 CURVE SMOOTH",
"305 500 LINE"
);
}
);
width = 470;
}
);
unicode = 0079;
},
{
glyphname = z;
lastChange = "2014-09-19 15:51:55 +0100";
layers = (
{
anchors = (
{
name = ogonek;
position = "{463, -1}";
},
{
name = top;
position = "{229, 700}";
}
);
layerId = "8706937B-409E-4048-AB1C-4F6C90F3053E";
name = Front;
paths = (
{
closed = 1;
nodes = (
"59 700 LINE",
"59 598 LINE",
"277 598 LINE",
"60 106 LINE",
"60 0 LINE",
"397 0 LINE",
"397 107 LINE",
"182 107 LINE",
"396 593 LINE",
"396 700 LINE"
);
}
);
width = 496;
},
{
anchors = (
{
name = ogonek;
position = "{463, -1}";
},
{
name = top;
position = "{229, 700}";
}
);
layerId = "C85A4985-4A4B-40F2-9F5D-E307D783C1A5";
name = InsideLight;
paths = (
{
closed = 1;
nodes = (
"396 593 LINE",
"495 493 LINE",
"495 587 LINE",
"396 700 LINE"
);
},
{
closed = 1;
nodes = (
"397 0 LINE",
"481 -70 LINE",
"481 29 LINE",
"397 107 LINE"
);
}
);
width = 496;
},
{
anchors = (
{
name = ogonek;
position = "{463, -1}";
},
{
name = top;
position = "{229, 700}";
}
);
layerId = "2AF69027-8699-4DA7-9B20-F07C10F82EEB";
name = InsideShadow;
paths = (
{
closed = 1;
nodes = (
"182 107 LINE",
"317 107 LINE",
"495 493 LINE",
"396 593 LINE"
);
},
{
closed = 1;
nodes = (
"60 0 LINE",
"167 -70 LINE",
"481 -70 LINE",
"397 0 LINE"
);
},
{
closed = 1;
nodes = (
"59 598 LINE",
"158 493 LINE",
"231 493 LINE",
"277 598 LINE"
);
}
);
width = 496;
},
{
anchors = (
{
name = ogonek;
position = "{463, -1}";
},
{
name = top;
position = "{229, 700}";
}
);
layerId = "251EB316-0412-4A3C-A569-0EEB43C6D9CE";
name = Shadow;
paths = (
{
closed = 1;
nodes = (
"34 -110 LINE",
"34 -216 LINE",
"313 -216 LINE",
"481 -70 LINE",
"167 -70 LINE",
"87 -17 LINE"
);
},
{
closed = 1;
nodes = (
"32 479 LINE",
"32 372 LINE",
"177 372 LINE",
"231 493 LINE",
"158 493 LINE",
"109 545 LINE"
);
}
);
width = 496;
}
);
unicode = 007A;
},
{
glyphname = a.sups;
lastChange = "2014-09-19 15:51:55 +0100";
layers = (
{
anchors = (
{
name = ogonek;
position = "{463, -1}";
},
{
name = top;
position = "{229, 700}";
}
);
layerId = "8706937B-409E-4048-AB1C-4F6C90F3053E";
name = Front;
paths = (
{
closed = 1;
nodes = (
"168 712 OFFCURVE",
"78 670 OFFCURVE",
"68 569 CURVE",
"177 554 LINE",
"180 568 OFFCURVE",
"188 589 OFFCURVE",
"197 597 CURVE SMOOTH",
"207 606 OFFCURVE",
"222 610 OFFCURVE",
"235 610 CURVE SMOOTH",
"272 610 OFFCURVE",
"296 581 OFFCURVE",
"296 545 CURVE SMOOTH",
"296 506 LINE",
"227 506 LINE",
"187 506 OFFCURVE",
"163 500 OFFCURVE",
"150 495 CURVE SMOOTH",
"106 478 OFFCURVE",
"68 437 OFFCURVE",
"68 391 CURVE SMOOTH",
"68 311 OFFCURVE",
"100 279 OFFCURVE",
"143 245 CURVE SMOOTH",
"161 231 OFFCURVE",
"197 223 OFFCURVE",
"251 223 CURVE SMOOTH",
"292 223 OFFCURVE",
"343 227 OFFCURVE",
"405 237 CURVE",
"405 544 LINE SMOOTH",
"405 573 OFFCURVE",
"392 605 OFFCURVE",
"373 633 CURVE SMOOTH",
"343 676 OFFCURVE",
"295 712 OFFCURVE",
"231 712 CURVE SMOOTH"
);
},
{
closed = 1;
nodes = (
"296 324 LINE",
"271 320 OFFCURVE",
"247 319 OFFCURVE",
"223 322 CURVE SMOOTH",
"200 325 OFFCURVE",
"172 342 OFFCURVE",
"172 368 CURVE",
"172 377 LINE",
"172 402 OFFCURVE",
"200 416 OFFCURVE",
"222 416 CURVE SMOOTH",
"296 416 LINE"
);
}
);
width = 480;
},
{
anchors = (
{
name = ogonek;
position = "{463, -1}";
},
{
name = top;
position = "{229, 700}";
}
);
layerId = "C85A4985-4A4B-40F2-9F5D-E307D783C1A5";
name = InsideLight;
paths = (
{
closed = 1;
nodes = (
"392 605 OFFCURVE",
"405 573 OFFCURVE",
"405 544 CURVE",
"405 237 LINE",
"489 165 LINE",
"489 436 LINE SMOOTH",
"489 471 OFFCURVE",
"478 501 OFFCURVE",
"457 529 CURVE SMOOTH",
"428 566 OFFCURVE",
"402 596 OFFCURVE",
"373 633 CURVE"
);
},
{
closed = 1;
nodes = (
"172 368 LINE",
"172 342 OFFCURVE",
"200 325 OFFCURVE",
"223 322 CURVE",
"172 377 LINE"
);
},
{
closed = 1;
nodes = (
"188 589 OFFCURVE",
"180 568 OFFCURVE",
"177 554 CURVE",
"227 506 LINE",
"244 506 LINE",
"197 597 LINE"
);
}
);
width = 480;
},
{
anchors = (
{
name = ogonek;
position = "{463, -1}";
},
{
name = top;
position = "{229, 700}";
}
);
layerId = "2AF69027-8699-4DA7-9B20-F07C10F82EEB";
name = InsideShadow;
paths = (
{
closed = 1;
nodes = (
"175 220 OFFCURVE",
"218 188 OFFCURVE",
"256 164 CURVE SMOOTH",
"303 134 OFFCURVE",
"392 133 OFFCURVE",
"489 165 CURVE",
"405 237 LINE",
"343 227 OFFCURVE",
"292 223 OFFCURVE",
"251 223 CURVE SMOOTH",
"197 223 OFFCURVE",
"161 231 OFFCURVE",
"143 245 CURVE"
);
},
{
closed = 1;
nodes = (
"222 416 LINE SMOOTH",
"200 416 OFFCURVE",
"172 402 OFFCURVE",
"172 377 CURVE",
"223 322 LINE",
"247 319 OFFCURVE",
"271 320 OFFCURVE",
"296 324 CURVE",
"296 416 LINE"
);
},
{
closed = 1;
nodes = (
"150 495 LINE",
"163 500 OFFCURVE",
"187 506 OFFCURVE",
"227 506 CURVE",
"177 554 LINE",
"68 569 LINE"
);
},
{
closed = 1;
nodes = (
"222 610 OFFCURVE",
"207 606 OFFCURVE",
"197 597 CURVE",
"244 506 LINE",
"296 506 LINE",
"296 546 LINE SMOOTH",
"296 581 OFFCURVE",
"272 610 OFFCURVE",
"235 610 CURVE SMOOTH"
);
}
);
width = 480;
},
{
anchors = (
{
name = ogonek;
position = "{463, -1}";
},
{
name = top;
position = "{229, 700}";
}
);
layerId = "251EB316-0412-4A3C-A569-0EEB43C6D9CE";
name = Shadow;
paths = (
{
closed = 1;
nodes = (
"36 359 OFFCURVE",
"25 324 OFFCURVE",
"25 279 CURVE",
"60 240 LINE",
"41 226 OFFCURVE",
"25 201 OFFCURVE",
"25 154 CURVE SMOOTH",
"25 41 OFFCURVE",
"113 -6 OFFCURVE",
"233 -6 CURVE SMOOTH",
"273 -6 OFFCURVE",
"317 -1 OFFCURVE",
"363 9 CURVE",
"489 165 LINE",
"392 133 OFFCURVE",
"303 134 OFFCURVE",
"256 164 CURVE SMOOTH",
"218 188 OFFCURVE",
"175 220 OFFCURVE",
"143 245 CURVE",
"100 279 OFFCURVE",
"68 311 OFFCURVE",
"68 391 CURVE"
);
}
);
width = 480;
}
);
},
{
glyphname = b.sups;
lastChange = "2014-09-19 15:51:55 +0100";
layers = (
{
anchors = (
{
name = ogonek;
position = "{463, -1}";
},
{
name = top;
position = "{229, 700}";
}
);
layerId = "8706937B-409E-4048-AB1C-4F6C90F3053E";
name = Front;
paths = (
{
closed = 1;
nodes = (
"83 700 LINE",
"83 218 LINE",
"253 217 LINE SMOOTH",
"350 216 OFFCURVE",
"418 254 OFFCURVE",
"418 350 CURVE SMOOTH",
"418 384 OFFCURVE",
"406 421 OFFCURVE",
"379 444 CURVE",
"364 455 OFFCURVE",
"349 462 OFFCURVE",
"331 467 CURVE",
"386 479 OFFCURVE",
"405 513 OFFCURVE",
"405 572 CURVE SMOOTH",
"405 604 OFFCURVE",
"392 638 OFFCURVE",
"371 657 CURVE SMOOTH",
"338 686 OFFCURVE",
"297 700 OFFCURVE",
"250 700 CURVE SMOOTH"
);
},
{
closed = 1;
nodes = (
"243 604 LINE SMOOTH",
"271 604 OFFCURVE",
"300 593 OFFCURVE",
"300 564 CURVE SMOOTH",
"300 534 OFFCURVE",
"281 518 OFFCURVE",
"246 518 CURVE SMOOTH",
"187 518 LINE",
"187 604 LINE"
);
},
{
closed = 1;
nodes = (
"247 415 LINE SMOOTH",
"284 415 OFFCURVE",
"308 400 OFFCURVE",
"308 367 CURVE SMOOTH",
"308 338 OFFCURVE",
"292 318 OFFCURVE",
"247 318 CURVE SMOOTH",
"188 318 LINE",
"188 415 LINE"
);
}
);
width = 476;
},
{
anchors = (
{
name = ogonek;
position = "{463, -1}";
},
{
name = top;
position = "{229, 700}";
}
);
layerId = "C85A4985-4A4B-40F2-9F5D-E307D783C1A5";
name = InsideLight;
paths = (
{
closed = 1;
nodes = (
"437 599 OFFCURVE",
"416 621 OFFCURVE",
"371 657 CURVE",
"392 638 OFFCURVE",
"405 604 OFFCURVE",
"405 572 CURVE",
"492 475 LINE",
"492 508 OFFCURVE",
"484 540 OFFCURVE",
"468 560 CURVE SMOOTH"
);
},
{
closed = 1;
nodes = (
"187 604 LINE",
"187 518 LINE",
"246 518 LINE"
);
},
{
closed = 1;
nodes = (
"379 444 LINE",
"406 421 OFFCURVE",
"418 384 OFFCURVE",
"418 350 CURVE",
"501 283 LINE",
"500 348 OFFCURVE",
"456 387 OFFCURVE",
"433 404 CURVE SMOOTH"
);
},
{
closed = 1;
nodes = (
"188 318 LINE",
"247 318 LINE",
"188 415 LINE"
);
}
);
width = 476;
},
{
anchors = (
{
name = ogonek;
position = "{463, -1}";
},
{
name = top;
position = "{229, 700}";
}
);
layerId = "2AF69027-8699-4DA7-9B20-F07C10F82EEB";
name = InsideShadow;
paths = (
{
closed = 1;
nodes = (
"281 518 OFFCURVE",
"300 534 OFFCURVE",
"300 564 CURVE",
"300 593 OFFCURVE",
"271 604 OFFCURVE",
"243 604 CURVE SMOOTH",
"187 604 LINE",
"246 518 LINE"
);
},
{
closed = 1;
nodes = (
"433 404 LINE",
"464 415 OFFCURVE",
"492 445 OFFCURVE",
"492 475 CURVE",
"405 572 LINE",
"405 513 OFFCURVE",
"386 479 OFFCURVE",
"331 467 CURVE",
"349 462 OFFCURVE",
"364 455 OFFCURVE",
"379 444 CURVE"
);
},
{
closed = 1;
nodes = (
"292 318 OFFCURVE",
"308 338 OFFCURVE",
"308 367 CURVE SMOOTH",
"308 400 OFFCURVE",
"284 415 OFFCURVE",
"247 415 CURVE SMOOTH",
"188 415 LINE",
"247 318 LINE"
);
},
{
closed = 1;
nodes = (
"83 218 LINE",
"190 147 LINE",
"349 147 LINE SMOOTH",
"370 147 OFFCURVE",
"419 155 OFFCURVE",
"463 195 CURVE SMOOTH",
"477 207 OFFCURVE",
"501 241 OFFCURVE",
"501 283 CURVE",
"418 350 LINE",
"418 254 OFFCURVE",
"350 216 OFFCURVE",
"253 217 CURVE SMOOTH"
);
}
);
width = 476;
},
{
anchors = (
{
name = ogonek;
position = "{463, -1}";
},
{
name = top;
position = "{229, 700}";
}
);
layerId = "251EB316-0412-4A3C-A569-0EEB43C6D9CE";
name = Shadow;
paths = (
{
closed = 1;
nodes = (
"83 526 LINE",
"25 472 LINE",
"25 0 LINE",
"200 0 LINE SMOOTH",
"244 0 OFFCURVE",
"280 23 OFFCURVE",
"315 52 CURVE SMOOTH",
"367 95 OFFCURVE",
"414 137 OFFCURVE",
"463 195 CURVE",
"419 155 OFFCURVE",
"370 147 OFFCURVE",
"349 147 CURVE SMOOTH",
"190 147 LINE",
"83 218 LINE"
);
}
);
width = 476;
}
);
},
{
glyphname = d.sups;
lastChange = "2014-09-19 15:51:55 +0100";
layers = (
{
anchors = (
{
name = ogonek;
position = "{473, -1}";
},
{
name = top;
position = "{239, 700}";
}
);
layerId = "8706937B-409E-4048-AB1C-4F6C90F3053E";
name = Front;
paths = (
{
closed = 1;
nodes = (
"80 700 LINE",
"80 216 LINE",
"250 215 LINE SMOOTH",
"317 215 OFFCURVE",
"415 262 OFFCURVE",
"415 378 CURVE",
"413 551 LINE",
"413 582 OFFCURVE",
"400 610 OFFCURVE",
"381 634 CURVE SMOOTH",
"348 674 OFFCURVE",
"295 700 OFFCURVE",
"247 700 CURVE SMOOTH"
);
},
{
closed = 1;
nodes = (
"281 603 OFFCURVE",
"305 575 OFFCURVE",
"305 541 CURVE SMOOTH",
"305 389 LINE SMOOTH",
"305 370 OFFCURVE",
"304 348 OFFCURVE",
"282 331 CURVE",
"275 326 OFFCURVE",
"264 322 OFFCURVE",
"254 322 CURVE SMOOTH",
"185 322 LINE",
"185 603 LINE",
"244 603 LINE SMOOTH"
);
}
);
width = 481;
},
{
anchors = (
{
name = ogonek;
position = "{473, -1}";
},
{
name = top;
position = "{239, 700}";
}
);
layerId = "C85A4985-4A4B-40F2-9F5D-E307D783C1A5";
name = InsideLight;
paths = (
{
closed = 1;
nodes = (
"400 610 OFFCURVE",
"413 582 OFFCURVE",
"413 551 CURVE",
"415 378 LINE",
"498 301 LINE",
"498 430 LINE SMOOTH",
"498 465 OFFCURVE",
"484 494 OFFCURVE",
"466 523 CURVE SMOOTH",
"437 569 OFFCURVE",
"416 598 OFFCURVE",
"381 634 CURVE"
);
},
{
closed = 1;
nodes = (
"185 322 LINE",
"254 322 LINE",
"254 446 LINE",
"185 603 LINE"
);
}
);
width = 481;
},
{
anchors = (
{
name = ogonek;
position = "{473, -1}";
},
{
name = top;
position = "{239, 700}";
}
);
layerId = "2AF69027-8699-4DA7-9B20-F07C10F82EEB";
name = InsideShadow;
paths = (
{
closed = 1;
nodes = (
"415 262 OFFCURVE",
"317 215 OFFCURVE",
"250 215 CURVE SMOOTH",
"223 215 LINE",
"314 146 LINE",
"346 146 LINE SMOOTH",
"367 146 OFFCURVE",
"416 153 OFFCURVE",
"460 193 CURVE SMOOTH",
"474 205 OFFCURVE",
"498 239 OFFCURVE",
"498 301 CURVE",
"415 378 LINE"
);
},
{
closed = 1;
nodes = (
"187 144 LINE",
"314 146 LINE",
"223 215 LINE",
"80 216 LINE"
);
},
{
closed = 1;
nodes = (
"185 603 LINE",
"254 446 LINE",
"254 322 LINE",
"264 322 OFFCURVE",
"275 326 OFFCURVE",
"282 331 CURVE",
"282 500 LINE",
"305 500 LINE",
"305 541 LINE SMOOTH",
"305 575 OFFCURVE",
"281 603 OFFCURVE",
"244 603 CURVE SMOOTH"
);
}
);
width = 481;
},
{
anchors = (
{
name = ogonek;
position = "{473, -1}";
},
{
name = top;
position = "{239, 700}";
}
);
layerId = "251EB316-0412-4A3C-A569-0EEB43C6D9CE";
name = Shadow;
paths = (
{
closed = 1;
nodes = (
"21 471 LINE",
"21 0 LINE",
"197 0 LINE SMOOTH",
"241 0 OFFCURVE",
"279 19 OFFCURVE",
"312 50 CURVE SMOOTH",
"460 193 LINE",
"416 153 OFFCURVE",
"367 146 OFFCURVE",
"346 146 CURVE SMOOTH",
"314 146 LINE",
"187 144 LINE",
"80 216 LINE",
"80 526 LINE"
);
},
{
closed = 1;
nodes = (
"282 500 LINE",
"282 331 LINE",
"304 348 OFFCURVE",
"305 370 OFFCURVE",
"305 389 CURVE SMOOTH",
"305 500 LINE"
);
}
);
width = 481;
}
);
},
{
glyphname = e.sups;
lastChange = "2014-09-19 15:51:55 +0100";
layers = (
{
anchors = (
{
name = ogonek;
position = "{463, -1}";
},
{
name = top;
position = "{229, 700}";
}
);
layerId = "8706937B-409E-4048-AB1C-4F6C90F3053E";
name = Front;
paths = (
{
closed = 1;
nodes = (
"129 706 OFFCURVE",
"64 625 OFFCURVE",
"64 537 CURVE SMOOTH",
"64 381 LINE SMOOTH",
"64 335 OFFCURVE",
"91 283 OFFCURVE",
"134 246 CURVE SMOOTH",
"160 224 OFFCURVE",
"193 212 OFFCURVE",
"232 212 CURVE SMOOTH",
"295 212 OFFCURVE",
"385 255 OFFCURVE",
"395 356 CURVE",
"286 371 LINE",
"280 347 OFFCURVE",
"266 332 OFFCURVE",
"251 326 CURVE SMOOTH",
"245 324 OFFCURVE",
"238 322 OFFCURVE",
"232 322 CURVE SMOOTH",
"187 322 OFFCURVE",
"167 353 OFFCURVE",
"167 387 CURVE SMOOTH",
"167 427 LINE",
"396 427 LINE",
"396 557 LINE",
"396 588 OFFCURVE",
"383 617 OFFCURVE",
"363 640 CURVE SMOOTH",
"329 679 OFFCURVE",
"277 706 OFFCURVE",
"229 706 CURVE SMOOTH"
);
},
{
closed = 1;
nodes = (
"263 602 OFFCURVE",
"287 574 OFFCURVE",
"287 540 CURVE SMOOTH",
"287 507 LINE",
"167 507 LINE",
"167 543 LINE SMOOTH",
"167 573 OFFCURVE",
"185 602 OFFCURVE",
"226 602 CURVE SMOOTH"
);
}
);
width = 462;
},
{
anchors = (
{
name = ogonek;
position = "{463, -1}";
},
{
name = top;
position = "{229, 700}";
}
);
layerId = "C85A4985-4A4B-40F2-9F5D-E307D783C1A5";
name = InsideLight;
paths = (
{
closed = 1;
nodes = (
"383 617 OFFCURVE",
"396 588 OFFCURVE",
"396 557 CURVE",
"396 427 LINE",
"480 336 LINE",
"480 421 LINE SMOOTH",
"480 456 OFFCURVE",
"467 498 OFFCURVE",
"448 529 CURVE SMOOTH",
"419 577 OFFCURVE",
"398 605 OFFCURVE",
"363 640 CURVE"
);
},
{
closed = 1;
nodes = (
"167 387 LINE SMOOTH",
"167 353 OFFCURVE",
"187 322 OFFCURVE",
"232 322 CURVE SMOOTH",
"238 322 OFFCURVE",
"245 324 OFFCURVE",
"251 326 CURVE",
"167 427 LINE"
);
},
{
closed = 1;
nodes = (
"391 313 OFFCURVE",
"371 280 OFFCURVE",
"344 256 CURVE",
"442 190 LINE",
"454 201 OFFCURVE",
"474 237 OFFCURVE",
"478 267 CURVE",
"445 301 LINE",
"413 336 LINE",
"395 356 LINE"
);
},
{
closed = 1;
nodes = (
"167 507 LINE",
"196 507 LINE",
"167 543 LINE"
);
}
);
width = 462;
},
{
anchors = (
{
name = ogonek;
position = "{463, -1}";
},
{
name = top;
position = "{229, 700}";
}
);
layerId = "2AF69027-8699-4DA7-9B20-F07C10F82EEB";
name = InsideShadow;
paths = (
{
closed = 1;
nodes = (
"312 227 OFFCURVE",
"269 212 OFFCURVE",
"232 212 CURVE SMOOTH",
"193 212 OFFCURVE",
"160 224 OFFCURVE",
"134 246 CURVE",
"160 224 OFFCURVE",
"223 178 OFFCURVE",
"247 164 CURVE SMOOTH",
"268 153 OFFCURVE",
"288 143 OFFCURVE",
"328 143 CURVE SMOOTH",
"349 143 OFFCURVE",
"398 150 OFFCURVE",
"442 190 CURVE",
"344 256 LINE"
);
},
{
closed = 1;
nodes = (
"167 427 LINE",
"251 326 LINE",
"266 332 OFFCURVE",
"280 347 OFFCURVE",
"286 371 CURVE",
"395 356 LINE",
"413 336 LINE",
"480 336 LINE",
"396 427 LINE"
);
},
{
closed = 1;
nodes = (
"185 602 OFFCURVE",
"167 573 OFFCURVE",
"167 543 CURVE",
"196 507 LINE",
"287 507 LINE",
"287 540 LINE SMOOTH",
"287 574 OFFCURVE",
"263 602 OFFCURVE",
"226 602 CURVE SMOOTH"
);
}
);
width = 462;
},
{
anchors = (
{
name = ogonek;
position = "{463, -1}";
},
{
name = top;
position = "{229, 700}";
}
);
layerId = "251EB316-0412-4A3C-A569-0EEB43C6D9CE";
name = Shadow;
paths = (
{
closed = 1;
nodes = (
"32 362 OFFCURVE",
"16 324 OFFCURVE",
"16 279 CURVE SMOOTH",
"16 164 LINE SMOOTH",
"16 73 OFFCURVE",
"76 0 OFFCURVE",
"179 0 CURVE SMOOTH",
"223 0 OFFCURVE",
"261 16 OFFCURVE",
"294 47 CURVE SMOOTH",
"442 190 LINE",
"398 150 OFFCURVE",
"349 143 OFFCURVE",
"328 143 CURVE SMOOTH",
"288 143 OFFCURVE",
"268 153 OFFCURVE",
"247 164 CURVE SMOOTH",
"223 178 OFFCURVE",
"160 224 OFFCURVE",
"134 246 CURVE SMOOTH",
"91 283 OFFCURVE",
"64 335 OFFCURVE",
"64 381 CURVE SMOOTH",
"64 394 LINE"
);
},
{
closed = 1;
nodes = (
"445 301 LINE",
"480 336 LINE",
"413 336 LINE"
);
}
);
width = 462;
}
);
},
{
glyphname = g.sups;
lastChange = "2014-09-19 15:51:55 +0100";
layers = (
{
anchors = (
{
name = ogonek;
position = "{483, -1}";
},
{
name = top;
position = "{249, 700}";
}
);
layerId = "8706937B-409E-4048-AB1C-4F6C90F3053E";
name = Front;
paths = (
{
closed = 1;
nodes = (
"148 706 OFFCURVE",
"83 625 OFFCURVE",
"83 537 CURVE SMOOTH",
"83 375 LINE SMOOTH",
"83 329 OFFCURVE",
"107 283 OFFCURVE",
"139 253 CURVE SMOOTH",
"174 220 OFFCURVE",
"212 207 OFFCURVE",
"251 207 CURVE SMOOTH",
"318 207 OFFCURVE",
"416 254 OFFCURVE",
"416 370 CURVE",
"416 488 LINE",
"248 488 LINE",
"248 382 LINE",
"306 382 LINE",
"306 381 LINE SMOOTH",
"306 362 OFFCURVE",
"303 343 OFFCURVE",
"283 323 CURVE SMOOTH",
"276 316 OFFCURVE",
"265 310 OFFCURVE",
"255 310 CURVE SMOOTH",
"205 310 OFFCURVE",
"186 339 OFFCURVE",
"186 375 CURVE SMOOTH",
"186 543 LINE SMOOTH",
"186 573 OFFCURVE",
"204 609 OFFCURVE",
"245 609 CURVE SMOOTH",
"282 609 OFFCURVE",
"306 589 OFFCURVE",
"306 552 CURVE SMOOTH",
"306 530 LINE",
"416 530 LINE",
"416 557 LINE SMOOTH",
"416 600 OFFCURVE",
"389 639 OFFCURVE",
"355 666 CURVE SMOOTH",
"323 691 OFFCURVE",
"284 706 OFFCURVE",
"248 706 CURVE SMOOTH"
);
}
);
width = 500;
},
{
anchors = (
{
name = ogonek;
position = "{483, -1}";
},
{
name = top;
position = "{249, 700}";
}
);
layerId = "C85A4985-4A4B-40F2-9F5D-E307D783C1A5";
name = InsideLight;
paths = (
{
closed = 1;
nodes = (
"389 639 OFFCURVE",
"416 600 OFFCURVE",
"416 557 CURVE",
"416 530 LINE",
"499 432 LINE",
"499 461 LINE SMOOTH",
"499 496 OFFCURVE",
"476 537 OFFCURVE",
"452 568 CURVE SMOOTH",
"415 616 OFFCURVE",
"399 632 OFFCURVE",
"355 666 CURVE"
);
},
{
closed = 1;
nodes = (
"416 370 LINE",
"499 293 LINE",
"498 388 LINE",
"416 488 LINE"
);
},
{
closed = 1;
nodes = (
"186 543 LINE",
"186 375 LINE SMOOTH",
"186 339 OFFCURVE",
"205 310 OFFCURVE",
"255 310 CURVE",
"255 376 LINE",
"248 382 LINE",
"248 438 LINE"
);
}
);
width = 500;
},
{
anchors = (
{
name = ogonek;
position = "{483, -1}";
},
{
name = top;
position = "{249, 700}";
}
);
layerId = "2AF69027-8699-4DA7-9B20-F07C10F82EEB";
name = InsideShadow;
paths = (
{
closed = 1;
nodes = (
"416 254 OFFCURVE",
"318 207 OFFCURVE",
"251 207 CURVE SMOOTH",
"212 207 OFFCURVE",
"173 220 OFFCURVE",
"139 253 CURVE",
"173 220 OFFCURVE",
"235 169 OFFCURVE",
"264 155 CURVE SMOOTH",
"285 145 OFFCURVE",
"307 138 OFFCURVE",
"347 138 CURVE SMOOTH",
"368 138 OFFCURVE",
"416 147 OFFCURVE",
"452 178 CURVE SMOOTH",
"485 207 OFFCURVE",
"499 250 OFFCURVE",
"499 293 CURVE",
"416 370 LINE"
);
},
{
closed = 1;
nodes = (
"255 310 LINE",
"265 310 OFFCURVE",
"276 316 OFFCURVE",
"283 323 CURVE",
"283 348 LINE",
"255 376 LINE"
);
},
{
closed = 1;
nodes = (
"248 382 LINE",
"306 325 LINE",
"306 382 LINE"
);
},
{
closed = 1;
nodes = (
"306 530 LINE",
"345 488 LINE",
"416 488 LINE",
"462 432 LINE",
"499 432 LINE",
"416 530 LINE"
);
},
{
closed = 1;
nodes = (
"204 609 OFFCURVE",
"186 573 OFFCURVE",
"186 543 CURVE",
"248 438 LINE",
"248 488 LINE",
"283 488 LINE",
"283 507 LINE SMOOTH",
"283 526 OFFCURVE",
"293 541 OFFCURVE",
"306 552 CURVE",
"306 589 OFFCURVE",
"282 609 OFFCURVE",
"245 609 CURVE SMOOTH"
);
}
);
width = 500;
},
{
anchors = (
{
name = ogonek;
position = "{483, -1}";
},
{
name = top;
position = "{249, 700}";
}
);
layerId = "251EB316-0412-4A3C-A569-0EEB43C6D9CE";
name = Shadow;
paths = (
{
closed = 1;
nodes = (
"51 402 OFFCURVE",
"35 364 OFFCURVE",
"35 319 CURVE SMOOTH",
"35 159 LINE SMOOTH",
"35 68 OFFCURVE",
"95 -5 OFFCURVE",
"198 -5 CURVE SMOOTH",
"242 -5 OFFCURVE",
"282 11 OFFCURVE",
"313 42 CURVE SMOOTH",
"452 178 LINE",
"416 147 OFFCURVE",
"368 138 OFFCURVE",
"347 138 CURVE SMOOTH",
"307 138 OFFCURVE",
"285 145 OFFCURVE",
"264 155 CURVE SMOOTH",
"235 169 OFFCURVE",
"174 220 OFFCURVE",
"139 253 CURVE SMOOTH",
"107 283 OFFCURVE",
"83 329 OFFCURVE",
"83 375 CURVE",
"83 434 LINE"
);
},
{
closed = 1;
nodes = (
"499 432 LINE",
"462 432 LINE",
"481 408 LINE"
);
},
{
closed = 1;
nodes = (
"306 552 LINE",
"293 541 OFFCURVE",
"283 526 OFFCURVE",
"283 507 CURVE SMOOTH",
"283 488 LINE",
"345 488 LINE",
"306 530 LINE"
);
},
{
closed = 1;
nodes = (
"283 347 LINE",
"283 323 LINE",
"303 343 OFFCURVE",
"306 362 OFFCURVE",
"306 381 CURVE"
);
}
);
width = 500;
}
);
},
{
glyphname = h.sups;
lastChange = "2014-09-19 15:51:55 +0100";
layers = (
{
anchors = (
{
name = ogonek;
position = "{493, -1}";
},
{
name = top;
position = "{259, 700}";
}
);
layerId = "8706937B-409E-4048-AB1C-4F6C90F3053E";
name = Front;
paths = (
{
closed = 1;
nodes = (
"324 700 LINE",
"324 464 LINE",
"195 464 LINE",
"195 700 LINE",
"90 700 LINE",
"90 217 LINE",
"195 217 LINE",
"195 367 LINE",
"324 367 LINE",
"324 217 LINE",
"430 217 LINE",
"431 700 LINE"
);
}
);
width = 500;
},
{
anchors = (
{
name = ogonek;
position = "{493, -1}";
},
{
name = top;
position = "{259, 700}";
}
);
layerId = "C85A4985-4A4B-40F2-9F5D-E307D783C1A5";
name = InsideLight;
paths = (
{
closed = 1;
nodes = (
"430 217 LINE",
"515 145 LINE",
"515 581 LINE",
"431 700 LINE"
);
},
{
closed = 1;
nodes = (
"195 217 LINE",
"273 159 LINE",
"273 194 LINE",
"195 367 LINE"
);
},
{
closed = 1;
nodes = (
"195 464 LINE",
"273 464 LINE",
"292 503 LINE",
"292 586 LINE",
"195 700 LINE"
);
}
);
width = 500;
},
{
anchors = (
{
name = ogonek;
position = "{493, -1}";
},
{
name = top;
position = "{259, 700}";
}
);
layerId = "2AF69027-8699-4DA7-9B20-F07C10F82EEB";
name = InsideShadow;
paths = (
{
closed = 1;
nodes = (
"273 194 LINE",
"273 159 LINE",
"292 145 LINE",
"292 277 LINE",
"195 367 LINE"
);
},
{
closed = 1;
nodes = (
"90 217 LINE",
"196 145 LINE",
"292 145 LINE",
"195 217 LINE"
);
},
{
closed = 1;
nodes = (
"195 367 LINE",
"292 277 LINE",
"324 277 LINE",
"324 367 LINE"
);
},
{
closed = 1;
nodes = (
"324 217 LINE",
"417 145 LINE",
"515 145 LINE",
"430 217 LINE"
);
},
{
closed = 1;
nodes = (
"273 464 LINE",
"292 464 LINE",
"292 503 LINE"
);
}
);
width = 500;
},
{
anchors = (
{
name = ogonek;
position = "{493, -1}";
},
{
name = top;
position = "{259, 700}";
}
);
layerId = "251EB316-0412-4A3C-A569-0EEB43C6D9CE";
name = Shadow;
paths = (
{
closed = 1;
nodes = (
"35 462 LINE",
"35 0 LINE",
"138 0 LINE",
"263 108 LINE",
"263 0 LINE",
"349 0 LINE",
"515 145 LINE",
"417 145 LINE",
"324 217 LINE",
"324 277 LINE",
"292 277 LINE",
"292 145 LINE",
"196 145 LINE",
"90 217 LINE",
"90 528 LINE"
);
},
{
closed = 1;
nodes = (
"292 503 LINE",
"292 464 LINE",
"324 464 LINE",
"324 530 LINE"
);
}
);
width = 500;
}
);
},
{
glyphname = i.sups;
lastChange = "2014-09-19 15:51:55 +0100";
layers = (
{
anchors = (
{
name = ogonek;
position = "{433, -1}";
},
{
name = top;
position = "{199, 700}";
}
);
layerId = "8706937B-409E-4048-AB1C-4F6C90F3053E";
name = Front;
paths = (
{
closed = 1;
nodes = (
"321 598 LINE",
"321 699 LINE",
"80 699 LINE",
"79 598 LINE",
"153 598 LINE",
"153 317 LINE",
"78 317 LINE",
"78 217 LINE",
"323 216 LINE",
"323 317 LINE",
"258 317 LINE",
"258 598 LINE"
);
}
);
width = 411;
},
{
anchors = (
{
name = ogonek;
position = "{433, -1}";
},
{
name = top;
position = "{199, 700}";
}
);
layerId = "C85A4985-4A4B-40F2-9F5D-E307D783C1A5";
name = InsideLight;
paths = (
{
closed = 1;
nodes = (
"258 317 LINE",
"323 317 LINE",
"358 285 LINE",
"356 430 LINE",
"258 598 LINE"
);
},
{
closed = 1;
nodes = (
"321 598 LINE",
"407 493 LINE",
"407 587 LINE",
"321 699 LINE"
);
},
{
closed = 1;
nodes = (
"323 216 LINE",
"409 145 LINE",
"409 239 LINE",
"323 317 LINE"
);
}
);
width = 411;
},
{
anchors = (
{
name = ogonek;
position = "{433, -1}";
},
{
name = top;
position = "{199, 700}";
}
);
layerId = "2AF69027-8699-4DA7-9B20-F07C10F82EEB";
name = InsideShadow;
paths = (
{
closed = 1;
nodes = (
"356 430 LINE",
"356 493 LINE",
"258 598 LINE"
);
},
{
closed = 1;
nodes = (
"171 145 LINE",
"409 145 LINE",
"323 216 LINE",
"78 217 LINE"
);
},
{
closed = 1;
nodes = (
"79 598 LINE",
"153 516 LINE",
"153 598 LINE"
);
},
{
closed = 1;
nodes = (
"258 598 LINE",
"356 493 LINE",
"407 493 LINE",
"321 598 LINE"
);
}
);
width = 411;
},
{
anchors = (
{
name = ogonek;
position = "{433, -1}";
},
{
name = top;
position = "{199, 700}";
}
);
layerId = "251EB316-0412-4A3C-A569-0EEB43C6D9CE";
name = Shadow;
paths = (
{
closed = 1;
nodes = (
"95 317 LINE",
"153 317 LINE",
"153 516 LINE",
"108 566 LINE",
"25 500 LINE",
"25 376 LINE",
"95 376 LINE"
);
},
{
closed = 1;
nodes = (
"356 493 LINE",
"356 430 LINE",
"407 493 LINE"
);
},
{
closed = 1;
nodes = (
"95 204 LINE",
"95 183 LINE",
"25 117 LINE",
"25 0 LINE",
"259 0 LINE",
"409 145 LINE",
"171 145 LINE"
);
}
);
width = 411;
}
);
},
{
glyphname = l.sups;
lastChange = "2014-09-19 15:51:55 +0100";
layers = (
{
anchors = (
{
name = ogonek;
position = "{453, -1}";
},
{
name = top;
position = "{219, 700}";
}
);
layerId = "8706937B-409E-4048-AB1C-4F6C90F3053E";
name = Front;
paths = (
{
closed = 1;
nodes = (
"88 700 LINE",
"88 217 LINE",
"379 217 LINE",
"379 325 LINE",
"193 325 LINE",
"193 700 LINE"
);
}
);
width = 430;
},
{
anchors = (
{
name = ogonek;
position = "{453, -1}";
},
{
name = top;
position = "{219, 700}";
}
);
layerId = "C85A4985-4A4B-40F2-9F5D-E307D783C1A5";
name = InsideLight;
paths = (
{
closed = 1;
nodes = (
"193 325 LINE",
"292 325 LINE",
"292 584 LINE",
"193 700 LINE"
);
},
{
closed = 1;
nodes = (
"379 217 LINE",
"465 148 LINE",
"465 247 LINE",
"379 325 LINE"
);
}
);
width = 430;
},
{
anchors = (
{
name = ogonek;
position = "{453, -1}";
},
{
name = top;
position = "{219, 700}";
}
);
layerId = "2AF69027-8699-4DA7-9B20-F07C10F82EEB";
name = InsideShadow;
paths = (
{
closed = 1;
nodes = (
"88 217 LINE",
"193 148 LINE",
"465 148 LINE",
"379 217 LINE"
);
}
);
width = 430;
},
{
anchors = (
{
name = ogonek;
position = "{453, -1}";
},
{
name = top;
position = "{219, 700}";
}
);
layerId = "251EB316-0412-4A3C-A569-0EEB43C6D9CE";
name = Shadow;
paths = (
{
closed = 1;
nodes = (
"35 476 LINE",
"35 0 LINE",
"315 0 LINE",
"465 148 LINE",
"193 148 LINE",
"88 217 LINE",
"88 526 LINE"
);
}
);
width = 430;
}
);
},
{
glyphname = m.sups;
lastChange = "2014-09-19 15:51:55 +0100";
layers = (
{
anchors = (
{
name = ogonek;
position = "{583, -1}";
},
{
name = top;
position = "{349, 700}";
}
);
layerId = "8706937B-409E-4048-AB1C-4F6C90F3053E";
name = Front;
paths = (
{
closed = 1;
nodes = (
"587 685 OFFCURVE",
"546 712 OFFCURVE",
"482 712 CURVE SMOOTH",
"430 712 OFFCURVE",
"380 704 OFFCURVE",
"340 691 CURVE",
"317 705 OFFCURVE",
"290 712 OFFCURVE",
"256 712 CURVE SMOOTH",
"193 712 OFFCURVE",
"134 700 OFFCURVE",
"90 683 CURVE",
"90 214 LINE",
"195 214 LINE",
"195 605 LINE",
"214 611 OFFCURVE",
"233 614 OFFCURVE",
"257 614 CURVE SMOOTH",
"294 614 OFFCURVE",
"316 573 OFFCURVE",
"316 537 CURVE SMOOTH",
"316 214 LINE",
"421 214 LINE",
"421 605 LINE",
"440 611 OFFCURVE",
"459 614 OFFCURVE",
"483 614 CURVE SMOOTH",
"520 614 OFFCURVE",
"542 573 OFFCURVE",
"542 537 CURVE SMOOTH",
"542 214 LINE",
"647 214 LINE",
"647 528 LINE SMOOTH",
"647 578 OFFCURVE",
"636 614 OFFCURVE",
"617 642 CURVE SMOOTH"
);
}
);
width = 708;
},
{
anchors = (
{
name = ogonek;
position = "{583, -1}";
},
{
name = top;
position = "{349, 700}";
}
);
layerId = "C85A4985-4A4B-40F2-9F5D-E307D783C1A5";
name = InsideLight;
paths = (
{
closed = 1;
nodes = (
"636 614 OFFCURVE",
"647 578 OFFCURVE",
"647 528 CURVE",
"647 214 LINE",
"733 142 LINE",
"733 436 LINE SMOOTH",
"733 471 OFFCURVE",
"722 509 OFFCURVE",
"701 539 CURVE SMOOTH",
"670 583 OFFCURVE",
"648 610 OFFCURVE",
"617 642 CURVE"
);
},
{
closed = 1;
nodes = (
"421 214 LINE",
"489 163 LINE",
"489 453 LINE",
"421 605 LINE"
);
},
{
closed = 1;
nodes = (
"195 214 LINE",
"263 163 LINE",
"263 453 LINE",
"195 605 LINE"
);
}
);
width = 708;
},
{
anchors = (
{
name = ogonek;
position = "{583, -1}";
},
{
name = top;
position = "{349, 700}";
}
);
layerId = "2AF69027-8699-4DA7-9B20-F07C10F82EEB";
name = InsideShadow;
paths = (
{
closed = 1;
nodes = (
"316 537 LINE SMOOTH",
"316 573 OFFCURVE",
"294 614 OFFCURVE",
"257 614 CURVE SMOOTH",
"233 614 OFFCURVE",
"214 611 OFFCURVE",
"195 605 CURVE",
"263 453 LINE",
"263 163 LINE",
"195 214 LINE",
"90 214 LINE",
"195 142 LINE",
"291 142 LINE",
"291 500 LINE",
"316 505 LINE"
);
},
{
closed = 1;
nodes = (
"542 537 LINE SMOOTH",
"542 573 OFFCURVE",
"520 614 OFFCURVE",
"483 614 CURVE SMOOTH",
"459 614 OFFCURVE",
"440 611 OFFCURVE",
"421 605 CURVE",
"489 453 LINE",
"489 163 LINE",
"421 214 LINE",
"316 214 LINE",
"421 142 LINE",
"517 142 LINE",
"517 500 LINE",
"542 505 LINE"
);
},
{
closed = 1;
nodes = (
"647 214 LINE",
"542 214 LINE",
"635 142 LINE",
"733 142 LINE"
);
}
);
width = 708;
},
{
anchors = (
{
name = ogonek;
position = "{583, -1}";
},
{
name = top;
position = "{349, 700}";
}
);
layerId = "251EB316-0412-4A3C-A569-0EEB43C6D9CE";
name = Shadow;
paths = (
{
closed = 1;
nodes = (
"635 142 LINE",
"542 214 LINE",
"542 505 LINE",
"517 500 LINE",
"517 142 LINE",
"421 142 LINE",
"316 214 LINE",
"316 505 LINE",
"291 500 LINE",
"291 279 LINE",
"261 243 LINE",
"261 142 LINE",
"195 142 LINE",
"90 214 LINE",
"90 528 LINE",
"35 462 LINE",
"35 0 LINE",
"137 0 LINE",
"261 104 LINE",
"261 0 LINE",
"363 0 LINE",
"488 105 LINE",
"488 0 LINE",
"598 0 LINE",
"733 142 LINE"
);
}
);
width = 708;
}
);
},
{
glyphname = n.sups;
lastChange = "2014-09-19 15:51:55 +0100";
layers = (
{
anchors = (
{
name = ogonek;
position = "{473, -1}";
},
{
name = top;
position = "{239, 700}";
}
);
layerId = "8706937B-409E-4048-AB1C-4F6C90F3053E";
name = Front;
paths = (
{
closed = 1;
nodes = (
"183 712 OFFCURVE",
"124 700 OFFCURVE",
"80 683 CURVE",
"80 214 LINE",
"185 214 LINE",
"185 605 LINE",
"204 611 OFFCURVE",
"223 614 OFFCURVE",
"247 614 CURVE SMOOTH",
"284 614 OFFCURVE",
"306 573 OFFCURVE",
"306 537 CURVE SMOOTH",
"306 214 LINE",
"411 214 LINE",
"411 528 LINE SMOOTH",
"411 578 OFFCURVE",
"400 614 OFFCURVE",
"381 642 CURVE SMOOTH",
"351 685 OFFCURVE",
"310 712 OFFCURVE",
"246 712 CURVE SMOOTH"
);
}
);
width = 490;
},
{
anchors = (
{
name = ogonek;
position = "{473, -1}";
},
{
name = top;
position = "{239, 700}";
}
);
layerId = "C85A4985-4A4B-40F2-9F5D-E307D783C1A5";
name = InsideLight;
paths = (
{
closed = 1;
nodes = (
"400 614 OFFCURVE",
"411 578 OFFCURVE",
"411 528 CURVE",
"411 214 LINE",
"497 142 LINE",
"497 436 LINE SMOOTH",
"497 471 OFFCURVE",
"486 509 OFFCURVE",
"465 539 CURVE SMOOTH",
"434 583 OFFCURVE",
"412 610 OFFCURVE",
"381 642 CURVE"
);
},
{
closed = 1;
nodes = (
"185 214 LINE",
"253 163 LINE",
"253 453 LINE",
"185 605 LINE"
);
}
);
width = 490;
},
{
anchors = (
{
name = ogonek;
position = "{473, -1}";
},
{
name = top;
position = "{239, 700}";
}
);
layerId = "2AF69027-8699-4DA7-9B20-F07C10F82EEB";
name = InsideShadow;
paths = (
{
closed = 1;
nodes = (
"223 614 OFFCURVE",
"204 611 OFFCURVE",
"185 605 CURVE",
"253 453 LINE",
"253 163 LINE",
"281 142 LINE",
"281 500 LINE",
"306 505 LINE",
"306 537 LINE SMOOTH",
"306 573 OFFCURVE",
"284 614 OFFCURVE",
"247 614 CURVE SMOOTH"
);
},
{
closed = 1;
nodes = (
"80 214 LINE",
"185 142 LINE",
"281 142 LINE",
"185 214 LINE"
);
},
{
closed = 1;
nodes = (
"306 214 LINE",
"399 142 LINE",
"497 142 LINE",
"411 214 LINE"
);
}
);
width = 490;
},
{
anchors = (
{
name = ogonek;
position = "{473, -1}";
},
{
name = top;
position = "{239, 700}";
}
);
layerId = "251EB316-0412-4A3C-A569-0EEB43C6D9CE";
name = Shadow;
paths = (
{
closed = 1;
nodes = (
"281 500 LINE",
"281 142 LINE",
"185 142 LINE",
"80 214 LINE",
"80 528 LINE",
"25 462 LINE",
"25 0 LINE",
"127 0 LINE",
"252 105 LINE",
"252 0 LINE",
"362 0 LINE",
"497 142 LINE",
"399 142 LINE",
"306 214 LINE",
"306 505 LINE"
);
}
);
width = 490;
}
);
},
